<?xml version="1.0" standalone="no"?>
<!DOCTYPE svg PUBLIC "-//W3C//DTD SVG 1.1//EN" "http://www.w3.org/Graphics/SVG/1.1/DTD/svg11.dtd" >
<svg>
<metadata>
Created by FontForge 20120731 at Wed Sep 18 15:02:46 2019
 By www-data
 The digitally encoded machine readable software for producing the
 Typefaces licensed to you is copyrighted (c) 1989, 1990, 2002 Adobe Systems.
 All Rights Reserved. This software is the property of Adobe Systems
 Incorporated and its licensors, and may not be reproduced, used,
 displayed, modified, disclosed or transferred without the express
 written approval of Adobe.
 
 The digitally encoded machine readable outline data for producing the Typefaces 
 provided as part of your laser printer is copyrighted (c) 1981, 2002 Heidelberger Druckmaschinen AG. 
 All rights reserved. This data is the property of Heidelberger Druckmaschinen AG, 
 and may not be reproduced, used, displayed, modified, disclosed or transferred 
 without the express written approval of Heidelberger Druckmaschinen AG. 
</metadata>
<defs>
<font id="SyntaxLTStd-UltraBlack" horiz-adv-x="667" >
  <font-face 
    font-family="Syntax LT Std"
    font-weight="900"
    font-stretch="normal"
    units-per-em="1000"
    panose-1="2 11 9 3 3 5 3 2 2 4"
    ascent="750"
    descent="-250"
    x-height="512"
    cap-height="692"
    bbox="-146 -260 1002 942"
    underline-thickness="50"
    underline-position="-50"
    stemh="54"
    stemv="120"
    unicode-range="U+0020-FB02"
  />
<missing-glyph horiz-adv-x="500" 
d="M0 0v700h500v-700h-500zM250 395l170 255h-340zM280 350l170 -255v510zM80 50h340l-170 255zM50 605v-510l170 255z" />
    <glyph glyph-name="fi" unicode="fi" horiz-adv-x="778" 
d="M492 0l4 512h232l-4 -512h-232zM497 585l1 148h232l-1 -148h-232zM84 0l3 334h-87l2 178h87v36c1 162 114 214 237 214h119l-2 -160h-55c-41 0 -60 -14 -61 -68v-22h115l-2 -178h-115l-3 -334h-238z" />
    <glyph glyph-name="fl" unicode="fl" horiz-adv-x="778" 
d="M492 0l5 762h232l-5 -762h-232zM84 0l3 334h-87l2 178h87v36c1 162 114 214 237 214h119l-2 -160h-55c-41 0 -60 -14 -61 -68v-22h115l-2 -178h-115l-3 -334h-238z" />
    <glyph glyph-name=".notdef" horiz-adv-x="500" 
d="M0 0v700h500v-700h-500zM250 395l170 255h-340zM280 350l170 -255v510zM80 50h340l-170 255zM50 605v-510l170 255z" />
    <glyph glyph-name="space" unicode=" " horiz-adv-x="334" 
 />
    <glyph glyph-name="exclam" unicode="!" horiz-adv-x="390" 
d="M70 215l2 477h250l-2 -477h-250zM68 0l1 160h250l-1 -160h-250z" />
    <glyph glyph-name="quotedbl" unicode="&#x22;" 
d="M395 354v338h172v-338h-172zM100 354v338h172v-338h-172z" />
    <glyph glyph-name="numbersign" unicode="#" horiz-adv-x="668" 
d="M296 404l-16 -116h92l16 116h-92zM110 0l22 162h-75v126h93l16 116h-79v126h97l22 162h130l-22 -162h92l22 162h130l-22 -162h75v-126h-93l-16 -116h79v-126h-97l-22 -162h-130l22 162h-92l-22 -162h-130z" />
    <glyph glyph-name="dollar" unicode="$" horiz-adv-x="668" 
d="M354 249l-1 -94c52 3 66 15 66 49c0 21 -9 38 -65 45zM302 439l1 99c-42 -5 -60 -20 -60 -55c0 -18 10 -40 59 -44zM65 -8l8 166c48 -4 105 -6 203 -6h23l1 100h-14c-182 0 -257 99 -257 230c0 159 126 222 276 229v51h54v-50c62 -1 157 -4 246 -15l-10 -168
c-88 7 -184 11 -238 11l-1 -104c223 -7 283 -106 283 -226c0 -193 -157 -228 -287 -230v-50h-54v50c-99 1 -165 5 -233 12z" />
    <glyph glyph-name="percent" unicode="%" horiz-adv-x="833" 
d="M459 190c0 141 87 210 185 210c99 0 185 -69 185 -210s-86 -210 -185 -210c-98 0 -185 69 -185 210zM186 0l396 726l63 -34l-396 -726zM4 502c0 141 86 210 185 210c98 0 185 -69 185 -210s-87 -210 -185 -210c-99 0 -185 69 -185 210zM597 190c0 -75 15 -102 47 -102
s47 27 47 102s-15 102 -47 102s-47 -27 -47 -102zM142 502c0 -75 15 -102 47 -102s47 27 47 102s-15 102 -47 102s-47 -27 -47 -102z" />
    <glyph glyph-name="ampersand" unicode="&#x26;" horiz-adv-x="778" 
d="M455 375l80 -76c17 32 25 75 26 113h156c-1 -99 -17 -160 -58 -231l98 -98l-128 -133l-93 100c-56 -54 -139 -70 -211 -70c-172 0 -273 94 -273 212c0 72 33 140 144 204c-44 36 -68 85 -68 132c0 73 49 154 223 154c135 0 210 -55 210 -152c0 -55 -34 -108 -106 -155z
M426 169l-109 111c-27 -14 -45 -43 -45 -75c0 -43 38 -71 81 -71c23 0 53 13 73 35zM301 534c0 -24 14 -49 49 -74c42 21 60 47 60 74c0 34 -28 52 -56 52s-53 -22 -53 -52z" />
    <glyph glyph-name="quoteright" unicode="&#x2019;" horiz-adv-x="332" 
d="M34 350v342h264l-129 -342h-135z" />
    <glyph glyph-name="parenleft" unicode="(" horiz-adv-x="333" 
d="M313 -152l-126 -53c-94 209 -126 334 -126 482c0 164 32 264 141 493l121 -48c-75 -152 -108 -293 -108 -465c0 -135 24 -246 98 -409z" />
    <glyph glyph-name="parenright" unicode=")" horiz-adv-x="333" 
d="M131 -205l-121 48c75 152 108 293 108 465c0 135 -24 246 -98 409l125 53c95 -209 127 -334 127 -482c0 -164 -32 -264 -141 -493z" />
    <glyph glyph-name="asterisk" unicode="*" horiz-adv-x="444" 
d="M408 561v-124l-117 23h-2l78 -92l-105 -62l-39 115h-2l-39 -115l-105 62l78 92h-2l-117 -23v124l117 -23h2l-78 92l105 62l39 -115h2l39 115l105 -62l-78 -92h2z" />
    <glyph glyph-name="plus" unicode="+" horiz-adv-x="600" 
d="M226 0v179h-179v148h179v179h148v-179h179v-148h-179v-179h-148z" />
    <glyph glyph-name="comma" unicode="," horiz-adv-x="334" 
d="M42 -138v342h264l-129 -342h-135z" />
    <glyph glyph-name="hyphen" unicode="-" horiz-adv-x="389" 
d="M22 204v184h345v-184h-345z" />
    <glyph glyph-name="period" unicode="." horiz-adv-x="334" 
d="M42 0v204h250v-204h-250z" />
    <glyph glyph-name="slash" unicode="/" horiz-adv-x="444" 
d="M24 0l248 725l148 -33l-246 -723z" />
    <glyph glyph-name="zero" unicode="0" horiz-adv-x="668" 
d="M334 -20c-141 0 -316 82 -316 366c0 248 150 366 316 366s316 -118 316 -366c0 -284 -175 -366 -316 -366zM334 170c61 0 78 58 78 179s-17 179 -78 179s-78 -58 -78 -179s17 -179 78 -179z" />
    <glyph glyph-name="one" unicode="1" horiz-adv-x="668" 
d="M39 485l302 207h201l-6 -692h-249l4 439l-150 -105z" />
    <glyph glyph-name="two" unicode="2" horiz-adv-x="668" 
d="M64 0l-36 149c228 127 306 207 306 275c0 81 -61 104 -122 104c-40 0 -70 -2 -136 -25l-56 153c103 40 186 56 268 56c185 0 310 -80 310 -251c0 -90 -59 -194 -228 -278l2 -2l239 6l-2 -187h-545z" />
    <glyph glyph-name="three" unicode="3" horiz-adv-x="668" 
d="M45 17l45 164c47 -15 99 -23 140 -23c73 0 112 22 112 57c0 33 -27 42 -57 42h-195l1 172h178c50 0 73 8 73 48c0 34 -36 57 -103 57c-30 0 -95 -14 -148 -31l-47 159c109 34 205 50 285 50c152 0 277 -67 277 -206c0 -70 -41 -135 -136 -155v-2c69 -13 136 -57 136 -157
c0 -112 -89 -212 -292 -212c-78 0 -180 14 -269 37z" />
    <glyph glyph-name="four" unicode="4" horiz-adv-x="668" 
d="M329 502l-131 -223h131l2 223h-2zM328 0l1 125h-278l-43 160l294 407h261l-2 -413h82l-1 -154h-81l-1 -125h-232z" />
    <glyph glyph-name="five" unicode="5" horiz-adv-x="668" 
d="M50 24l45 156c54 -16 116 -28 151 -28c83 0 126 29 126 69c0 57 -80 76 -134 76c-21 0 -66 -5 -100 -18l-80 78l50 335h495l-1 -166h-293l-9 -68c154 0 322 -38 322 -232c0 -122 -100 -246 -335 -246c-75 0 -171 19 -237 44z" />
    <glyph glyph-name="six" unicode="6" horiz-adv-x="668" 
d="M441 230c0 35 -25 72 -75 72c-51 0 -75 -37 -75 -72s24 -72 75 -72c50 0 75 37 75 72zM633 672l-59 -160c-54 17 -86 22 -125 22c-80 0 -159 -61 -167 -144l2 -1c43 46 106 67 157 67c95 0 214 -69 214 -220c0 -164 -141 -256 -299 -256c-263 0 -332 228 -332 326
c0 226 156 406 386 406c71 0 152 -11 223 -40z" />
    <glyph glyph-name="seven" unicode="7" horiz-adv-x="668" 
d="M35 502l2 190h556l58 -178c-175 -175 -241 -319 -242 -465l-1 -49h-272v44c0 176 59 311 223 458h-324z" />
    <glyph glyph-name="eight" unicode="8" horiz-adv-x="668" 
d="M334 -20c-185 0 -323 64 -323 198c0 101 58 153 149 171v2c-94 19 -137 91 -137 156c0 129 99 205 311 205s311 -76 311 -205c0 -65 -43 -137 -137 -156v-2c91 -18 149 -70 149 -171c0 -134 -138 -198 -323 -198zM334 140c61 0 79 32 79 62c0 42 -61 71 -79 71
s-79 -29 -79 -71c0 -30 18 -62 79 -62zM334 558c-61 0 -79 -32 -79 -62c0 -42 61 -71 79 -71s79 29 79 71c0 30 -18 62 -79 62z" />
    <glyph glyph-name="nine" unicode="9" horiz-adv-x="668" 
d="M227 462c0 -35 25 -72 75 -72c51 0 75 37 75 72s-24 72 -75 72c-50 0 -75 -37 -75 -72zM35 20l59 160c54 -17 86 -22 125 -22c80 0 159 61 167 144l-2 1c-43 -46 -106 -67 -157 -67c-95 0 -214 69 -214 220c0 164 141 256 299 256c263 0 332 -228 332 -326
c0 -226 -156 -406 -386 -406c-71 0 -152 11 -223 40z" />
    <glyph glyph-name="colon" unicode=":" horiz-adv-x="334" 
d="M42 300v204h250v-204h-250zM42 0v204h250v-204h-250z" />
    <glyph glyph-name="semicolon" unicode=";" horiz-adv-x="334" 
d="M42 -138v342h265l-130 -342h-135zM42 300v204h252v-204h-252z" />
    <glyph glyph-name="less" unicode="&#x3c;" horiz-adv-x="600" 
d="M47 196v114l506 214v-151l-316 -120l316 -120v-151z" />
    <glyph glyph-name="equal" unicode="=" horiz-adv-x="600" 
d="M47 291v148h506v-148h-506zM47 67v148h506v-148h-506z" />
    <glyph glyph-name="greater" unicode="&#x3e;" horiz-adv-x="600" 
d="M553 310v-114l-506 -214v151l316 120l-316 120v151z" />
    <glyph glyph-name="question" unicode="?" horiz-adv-x="556" 
d="M96 498l-51 172c74 27 153 42 230 42c146 0 249 -75 249 -199c0 -34 -13 -79 -52 -126c-79 -97 -82 -109 -82 -172h-250c0 88 12 123 70 177c41 39 50 57 50 81s-26 49 -73 49c-24 0 -49 -5 -91 -24zM139 0l1 160h250l-1 -160h-250z" />
    <glyph glyph-name="at" unicode="@" horiz-adv-x="800" 
d="M327 335c0 -43 23 -74 65 -74c54 0 90 42 90 94c0 43 -28 73 -70 73c-49 0 -85 -47 -85 -93zM518 518h84l-39 -209c-4 -18 -5 -27 -5 -38s8 -17 21 -17c70 0 89 86 89 142c0 146 -107 226 -254 226c-161 0 -264 -114 -264 -277c0 -173 116 -275 281 -275
c64 0 132 18 184 59h122c-77 -111 -186 -149 -314 -149c-234 0 -405 152 -405 365c0 209 167 367 399 367c197 0 365 -115 365 -297c0 -216 -176 -253 -238 -253c-58 0 -74 18 -88 45h-2c-22 -28 -51 -45 -90 -45c-68 0 -141 58 -141 161c0 105 70 204 178 204
c45 0 83 -16 109 -53z" />
    <glyph glyph-name="A" unicode="A" horiz-adv-x="833" 
d="M5 0l261 692h315l247 -692h-270l-27 111h-223l-28 -111h-275zM419 554l-66 -265h133l-65 265h-2z" />
    <glyph glyph-name="B" unicode="B" horiz-adv-x="722" 
d="M44 0l5 692h423c137 0 214 -55 214 -193c0 -88 -61 -145 -162 -147v-2c103 -3 162 -64 162 -167c0 -122 -64 -183 -221 -183h-421zM292 277l-1 -123h81c51 0 72 29 72 63c0 42 -27 60 -67 60h-85zM296 544l-1 -119h85c41 0 62 21 62 60c0 35 -16 59 -60 59h-86z" />
    <glyph glyph-name="C" unicode="C" horiz-adv-x="611" 
d="M554 203l31 -203c-29 -6 -61 -11 -95 -15c-33 -3 -70 -5 -111 -5c-242 0 -371 166 -371 366c0 222 129 366 400 366c75 0 123 -6 183 -18l-33 -207c-35 7 -78 11 -102 11c-160 0 -190 -93 -190 -151c0 -72 33 -153 178 -153c37 0 74 3 110 9z" />
    <glyph glyph-name="D" unicode="D" horiz-adv-x="778" 
d="M292 496l-3 -300h61c97 0 154 46 154 149c0 107 -68 151 -137 151h-75zM44 0l5 692h333c164 0 366 -27 366 -343c0 -301 -195 -349 -344 -349h-360z" />
    <glyph glyph-name="E" unicode="E" 
d="M44 0l5 692h568l-2 -184h-322v-72h322l-2 -178h-322l-1 -74h323l-2 -184h-567z" />
    <glyph glyph-name="F" unicode="F" 
d="M44 0l5 692h568l-1 -190h-324v-77h324l-1 -190h-324l-1 -235h-246z" />
    <glyph glyph-name="G" unicode="G" horiz-adv-x="722" 
d="M691 378l-4 -374c-89 -16 -165 -24 -275 -24c-278 0 -394 166 -394 366c0 204 110 366 420 366c86 0 162 -8 229 -25l-30 -193c-47 8 -100 14 -158 14c-183 0 -211 -101 -211 -171c0 -82 40 -153 137 -153h39l2 194h245z" />
    <glyph glyph-name="H" unicode="H" horiz-adv-x="778" 
d="M44 0l6 692h250l-2 -236h184l2 236h250l-6 -692h-250l2 242h-184l-2 -242h-250z" />
    <glyph glyph-name="I" unicode="I" horiz-adv-x="334" 
d="M39 0l6 692h250l-6 -692h-250z" />
    <glyph glyph-name="J" unicode="J" horiz-adv-x="500" 
d="M15 -12l2 209c23 -2 43 -3 59 -3c72 0 131 25 132 131l3 367h250l-3 -406c-2 -217 -116 -306 -315 -306c-38 0 -87 3 -128 8z" />
    <glyph glyph-name="K" unicode="K" horiz-adv-x="778" 
d="M44 0l6 692h250l-3 -338h2l181 338h285l-208 -342l207 -350h-296l-169 347h-2l-3 -347h-250z" />
    <glyph glyph-name="L" unicode="L" 
d="M44 0l6 692h250l-6 -488h332l-2 -204h-580z" />
    <glyph glyph-name="M" unicode="M" horiz-adv-x="1000" 
d="M-2 0l136 692h310l60 -526h2l81 526h308l107 -692h-231l-43 520h-2l-78 -520h-289l-66 520h-2l-65 -520h-228z" />
    <glyph glyph-name="N" unicode="N" horiz-adv-x="778" 
d="M44 0l5 692h310l149 -399h2l2 399h222l-6 -692h-309l-160 403h-2l7 -403h-220z" />
    <glyph glyph-name="O" unicode="O" horiz-adv-x="778" 
d="M18 346c0 200 129 366 371 366s371 -166 371 -366s-129 -366 -371 -366s-371 166 -371 366zM502 346c0 89 -26 162 -113 162s-113 -73 -113 -162s26 -162 113 -162s113 73 113 162z" />
    <glyph glyph-name="P" unicode="P" 
d="M298 526l-1 -139h40c71 0 92 34 92 77c0 50 -40 62 -75 62h-56zM44 0l6 692h342c154 0 269 -48 269 -240c0 -129 -71 -231 -227 -231h-138l-2 -221h-250z" />
    <glyph glyph-name="Q" unicode="Q" horiz-adv-x="778" 
d="M784 71l-127 -161l-128 92c-41 -14 -88 -22 -140 -22c-242 0 -371 166 -371 366s129 366 371 366s371 -166 371 -366c0 -79 -20 -154 -61 -215zM502 346c0 89 -26 162 -113 162s-113 -73 -113 -162s26 -162 113 -162s113 73 113 162z" />
    <glyph glyph-name="R" unicode="R" horiz-adv-x="722" 
d="M289 0h-245l5 692h366c194 0 255 -94 255 -208c0 -92 -62 -171 -149 -175v-2c69 -15 101 -59 194 -307h-276l-59 167c-14 42 -28 54 -51 54h-37zM295 526l-1 -139h51c45 0 81 5 81 64c0 47 -14 75 -75 75h-56z" />
    <glyph glyph-name="S" unicode="S" horiz-adv-x="611" 
d="M37 0l23 186c53 -10 108 -16 153 -16c90 0 120 10 120 38c0 26 -11 35 -38 39l-104 15c-127 19 -171 130 -171 204c0 197 142 246 320 246c94 0 174 -10 233 -20l-19 -181c-49 10 -124 17 -174 17c-90 0 -102 -22 -102 -45c0 -15 9 -26 39 -32l115 -21
c106 -19 159 -96 159 -199c0 -166 -99 -251 -295 -251c-97 0 -187 9 -259 20z" />
    <glyph glyph-name="T" unicode="T" horiz-adv-x="668" 
d="M204 0l4 488h-204l2 204h658l-2 -204h-204l-4 -488h-250z" />
    <glyph glyph-name="U" unicode="U" horiz-adv-x="778" 
d="M49 692h250l-2 -276c0 -42 -1 -84 -1 -126c0 -60 26 -90 93 -90c62 0 90 32 91 101l4 391h250l-4 -368c-1 -215 -77 -344 -354 -344c-253 0 -332 153 -332 281c0 43 0 99 1 149z" />
    <glyph glyph-name="V" unicode="V" horiz-adv-x="722" 
d="M213 0l-209 692h264l87 -448h2l97 448h264l-224 -692h-281z" />
    <glyph glyph-name="W" unicode="W" horiz-adv-x="1000" 
d="M108 0l-110 692h230l44 -566h2l82 566h287l66 -566h2l63 566h228l-132 -692h-309l-66 566h-2l-76 -566h-309z" />
    <glyph glyph-name="X" unicode="X" horiz-adv-x="778" 
d="M10 0l207 353l-192 339h284l88 -219l90 219h281l-199 -342l199 -350h-283l-92 229l-96 -229h-287z" />
    <glyph glyph-name="Y" unicode="Y" horiz-adv-x="722" 
d="M235 0l3 281l-234 411h273l80 -257h2l96 257h263l-236 -411l-3 -281h-244z" />
    <glyph glyph-name="Z" unicode="Z" 
d="M626 0h-559l-44 169l305 319h-292l2 204h557l49 -167l-283 -321h267z" />
    <glyph glyph-name="bracketleft" unicode="[" horiz-adv-x="333" 
d="M56 -196l8 958h261l-1 -120h-112l-8 -718h112l-1 -120h-259z" />
    <glyph glyph-name="backslash" unicode="\" horiz-adv-x="444" 
d="M172 725l248 -725l-150 -31l-246 723z" />
    <glyph glyph-name="bracketright" unicode="]" horiz-adv-x="333" 
d="M277 762l-8 -958h-261l1 120h112l8 718h-112l1 120h259z" />
    <glyph glyph-name="asciicircum" unicode="^" horiz-adv-x="600" 
d="M43 327l174 365h166l174 -365h-146l-111 217l-111 -217h-146z" />
    <glyph glyph-name="underscore" unicode="_" horiz-adv-x="500" 
d="M0 -125v50h500v-50h-500z" />
    <glyph glyph-name="quoteleft" unicode="&#x2018;" horiz-adv-x="332" 
d="M298 692v-342h-264l129 342h135z" />
    <glyph glyph-name="a" unicode="a" horiz-adv-x="611" 
d="M541 373c0 -71 -2 -137 -2 -202c0 -25 17 -35 31 -35c10 0 21 3 31 8l14 -133c-60 -18 -130 -29 -184 -29c-47 0 -89 23 -97 64c-47 -38 -118 -64 -177 -64c-84 0 -161 52 -161 147c0 119 64 187 325 187v15c0 24 -12 45 -52 45c-44 0 -100 -15 -156 -41l-56 125
c124 52 208 70 280 70c137 0 204 -59 204 -157zM327 135v97c-100 0 -122 -28 -122 -66c0 -35 25 -58 55 -58c20 0 47 8 67 27z" />
    <glyph glyph-name="b" unicode="b" 
d="M268 32v-32h-227l7 762h230l-3 -286c36 38 96 54 139 54c127 0 232 -89 232 -272c0 -206 -135 -276 -243 -276c-39 0 -97 15 -135 50zM276 328l-1 -58c0 -31 -1 -61 -1 -92c0 -7 32 -24 53 -24c38 0 87 25 87 100c0 69 -40 98 -81 98c-20 0 -37 -7 -57 -24z" />
    <glyph glyph-name="c" unicode="c" horiz-adv-x="500" 
d="M492 512l-37 -161c-21 5 -44 7 -69 7c-79 0 -127 -34 -127 -101c0 -62 40 -97 100 -97c22 0 61 5 94 13l41 -161c-66 -21 -144 -30 -198 -30c-189 0 -275 130 -275 274c0 116 74 274 314 274c30 0 106 -6 157 -18z" />
    <glyph glyph-name="d" unicode="d" 
d="M391 177l1 72c0 33 1 65 1 97c-18 9 -31 12 -54 12c-35 0 -86 -17 -86 -104c0 -71 38 -100 80 -100c23 0 40 7 58 23zM390 0v44h-3c-26 -42 -97 -62 -145 -62c-143 0 -221 132 -221 259c0 188 120 289 253 289c45 0 83 -6 121 -38l1 270h229l-7 -762h-228z" />
    <glyph glyph-name="e" unicode="e" horiz-adv-x="611" 
d="M521 172l46 -140c-104 -36 -194 -50 -232 -50c-240 0 -314 158 -314 274s74 274 314 274c171 0 266 -138 266 -316h-360c5 -58 58 -78 113 -78c35 0 95 12 167 36zM241 316h182c-5 50 -38 95 -92 94c-54 1 -85 -44 -90 -94z" />
    <glyph glyph-name="f" unicode="f" horiz-adv-x="444" 
d="M84 0l3 334h-87l2 178h87v36c1 162 114 214 237 214h118l-1 -160h-55c-41 0 -60 -14 -61 -68v-22h115l-2 -178h-115l-3 -334h-238z" />
    <glyph glyph-name="g" unicode="g" horiz-adv-x="611" 
d="M39 350c0 95 87 180 265 180c62 0 116 -16 141 -26l164 3v-129l-74 3c9 -16 13 -34 13 -54c0 -67 -74 -138 -231 -138c-31 0 -48 4 -66 4c-17 0 -26 -13 -26 -21c0 -12 5 -20 33 -23l115 -11c160 -15 231 -78 231 -179c0 -77 -56 -219 -359 -219c-160 0 -235 48 -235 124
c0 55 49 112 119 134v2c-103 18 -127 49 -127 92c0 50 58 88 148 126v2c-58 14 -111 66 -111 130zM200 -79c0 -28 26 -55 84 -55c68 0 94 30 94 66c0 43 -52 50 -108 55c-34 -6 -70 -22 -70 -66zM242 358c0 -44 29 -67 65 -67c35 0 64 26 64 66s-27 65 -67 65
c-30 0 -62 -28 -62 -64z" />
    <glyph glyph-name="h" unicode="h" 
d="M48 0l6 762h233l-2 -294c57 33 109 62 172 62c70 0 162 -26 162 -150c0 -51 -1 -131 -2 -210l-1 -170h-230l1 300c0 35 -15 46 -44 46c-22 0 -41 -9 -60 -23l-3 -323h-232z" />
    <glyph glyph-name="i" unicode="i" horiz-adv-x="334" 
d="M48 0l4 512h232l-4 -512h-232zM53 585v148h232v-148h-232z" />
    <glyph glyph-name="j" unicode="j" horiz-adv-x="334" 
d="M-50 -257v171c5 -1 11 -2 22 -2c70 0 76 34 76 95l4 505h232l-4 -492c-1 -151 -25 -280 -264 -280c-27 0 -50 0 -66 3zM53 585v148h232v-148h-232z" />
    <glyph glyph-name="k" unicode="k" 
d="M48 0l6 762h232l-4 -464l2 -2l117 216h255l-159 -249l164 -263h-272l-105 231h-2l-2 -231h-232z" />
    <glyph glyph-name="l" unicode="l" horiz-adv-x="334" 
d="M48 0l6 762h232l-6 -762h-232z" />
    <glyph glyph-name="m" unicode="m" horiz-adv-x="1000" 
d="M46 0l4 512h236l-2 -57c99 59 141 72 196 72s100 -23 129 -69c101 58 141 72 197 72s148 -26 148 -156c0 -45 -1 -125 -2 -204l-2 -170h-231l1 108c1 65 2 131 2 186c0 40 -15 52 -41 52c-19 0 -44 -10 -63 -23l-2 -323h-234l1 108c1 65 2 131 2 186c0 40 -15 52 -41 52
c-19 0 -44 -10 -63 -23l-2 -323h-233z" />
    <glyph glyph-name="n" unicode="n" 
d="M48 0l5 512h231l1 -44c57 33 109 62 172 62c70 0 162 -26 162 -150c0 -51 -1 -131 -2 -210l-1 -170h-230l1 300c0 35 -15 46 -44 46c-22 0 -41 -9 -60 -23l-3 -323h-232z" />
    <glyph glyph-name="o" unicode="o" 
d="M259 256c0 -81 21 -120 75 -120c52 0 74 39 74 120s-22 120 -74 120c-54 0 -75 -39 -75 -120zM21 256c0 116 74 274 313 274c238 0 312 -158 312 -274s-74 -274 -312 -274c-239 0 -313 158 -313 274z" />
    <glyph glyph-name="p" unicode="p" 
d="M274 335l-1 -72c0 -33 -1 -65 -1 -97c0 -9 32 -12 50 -12c41 0 92 21 92 108c0 73 -35 96 -74 96c-26 0 -48 -7 -66 -23zM275 512v-44h3c26 42 97 62 145 62c145 0 223 -132 223 -259c0 -188 -120 -289 -255 -289c-45 0 -83 6 -122 38l-1 -280h-229l7 772h229z" />
    <glyph glyph-name="q" unicode="q" 
d="M399 480v32h226l-7 -762h-230l3 286c-35 -38 -95 -54 -138 -54c-127 0 -232 89 -232 272c0 206 135 276 243 276c39 0 97 -15 135 -50zM391 184l1 58c0 31 1 61 1 92c0 7 -32 24 -53 24c-38 0 -87 -25 -87 -100c0 -69 40 -98 81 -98c20 0 37 7 57 24z" />
    <glyph glyph-name="r" unicode="r" horiz-adv-x="444" 
d="M48 0l4 512h218l-1 -90l2 -2c33 79 80 107 172 110l-2 -204c-82 0 -120 -18 -158 -76l-2 -250h-233z" />
    <glyph glyph-name="s" unicode="s" horiz-adv-x="500" 
d="M25 9l24 153c47 -12 115 -26 152 -26c31 0 48 13 48 29c0 15 -7 24 -65 31c-101 12 -159 70 -159 157c0 105 81 177 232 177c71 0 123 -7 207 -25l-24 -146c-45 15 -92 23 -139 23c-35 0 -50 -9 -50 -26c0 -10 6 -19 28 -24l75 -18c79 -19 121 -75 121 -158
c0 -160 -165 -174 -237 -174c-64 0 -144 12 -213 27z" />
    <glyph glyph-name="t" unicode="t" horiz-adv-x="444" 
d="M0 334v178h74l2 180h232l-2 -180h130v-178h-132v-6c0 -33 -1 -66 -1 -100c0 -44 25 -54 51 -54c16 0 34 3 57 4l18 -171c-43 -13 -127 -25 -187 -25c-107 0 -172 46 -172 166c0 39 1 76 1 113l1 67v6h-72z" />
    <glyph glyph-name="u" unicode="u" 
d="M621 512l-5 -512h-231l1 44c-56 -40 -123 -62 -174 -62c-70 0 -162 28 -162 162c0 50 1 119 2 198l1 170h229v-289c0 -40 17 -57 51 -57c18 0 34 8 53 23l1 323h234z" />
    <glyph glyph-name="v" unicode="v" horiz-adv-x="611" 
d="M160 0l-150 512h233l55 -328h2l69 328h232l-174 -512h-267z" />
    <glyph glyph-name="w" unicode="w" horiz-adv-x="1000" 
d="M990 512l-155 -512h-268l-72 322h-2l-66 -322h-270l-147 512h220l63 -328h2l71 328h268l64 -328h2l69 328h221z" />
    <glyph glyph-name="x" unicode="x" 
d="M5 0l164 262l-153 250h260l63 -172l63 172h260l-160 -250l160 -262h-260l-65 166l-71 -166h-261z" />
    <glyph glyph-name="y" unicode="y" horiz-adv-x="611" 
d="M28 -258l2 170h48c66 0 93 10 107 60l-175 540h232l65 -340h2l63 340h229l-195 -596c-39 -119 -86 -176 -275 -176c-36 0 -68 1 -103 2z" />
    <glyph glyph-name="z" unicode="z" horiz-adv-x="556" 
d="M54 0l-30 124l200 210h-189v178h466l31 -132l-207 -202h197v-178h-468z" />
    <glyph glyph-name="braceleft" unicode="{" horiz-adv-x="333" 
d="M5 217l2 102c21 0 78 6 78 62l2 225c1 98 85 141 127 141h114l-1 -96h-34c-39 0 -52 -7 -53 -66l-2 -213c-2 -79 -76 -100 -110 -103v-2c34 -3 107 -6 107 -103c0 -72 -2 -145 -2 -213c0 -47 21 -66 60 -66h26l-1 -96h-104c-42 0 -133 43 -133 141c0 72 2 143 2 215
c0 65 -55 72 -78 72z" />
    <glyph glyph-name="bar" unicode="|" horiz-adv-x="222" 
d="M33 -20l8 782h148l-8 -782h-148z" />
    <glyph glyph-name="braceright" unicode="}" horiz-adv-x="333" 
d="M5 -211l1 96h34c39 0 52 7 53 66l2 213c2 79 76 100 110 103v2c-34 3 -107 6 -107 103c0 72 2 145 2 213c0 47 -21 66 -60 66h-26l1 96h104c42 0 133 -43 133 -141c0 -72 -2 -143 -2 -215c0 -65 55 -72 78 -72l-2 -102c-21 0 -78 -6 -78 -62l-2 -225
c-1 -98 -85 -141 -127 -141h-114z" />
    <glyph glyph-name="asciitilde" unicode="~" horiz-adv-x="600" 
d="M110 145l-46 125c40 67 83 91 134 91c73 0 164 -68 213 -68c21 0 51 10 79 68l46 -125c-40 -67 -83 -91 -134 -91c-73 0 -164 68 -213 68c-21 0 -51 -10 -79 -68z" />
    <glyph glyph-name="exclamdown" unicode="&#xa1;" horiz-adv-x="390" 
d="M319 297l-2 -477h-249l2 477h249zM322 512l-1 -160h-250l1 160h250z" />
    <glyph glyph-name="cent" unicode="&#xa2;" horiz-adv-x="668" 
d="M375 172l38 182c-54 -10 -86 -42 -86 -97c0 -41 18 -71 48 -85zM322 -86l14 68c-169 12 -247 137 -247 274c0 116 74 274 314 274c10 0 26 -1 46 -3l16 79l46 -8l-16 -76c23 -1 46 -5 65 -9l-37 -162c-19 5 -40 7 -62 7l-41 -198c34 0 68 5 101 13l41 -161
c-59 -19 -127 -30 -179 -30l-16 -76z" />
    <glyph glyph-name="sterling" unicode="&#xa3;" horiz-adv-x="668" 
d="M47 0l1 184c83 0 117 31 128 111h-125l1 160h124c2 209 101 257 269 257c74 0 119 -3 159 -6l-1 -148h-64c-74 0 -105 -22 -113 -103h177l-1 -160h-176c-3 -68 -25 -103 -97 -127v-2h272l-1 -166h-553z" />
    <glyph glyph-name="fraction" unicode="&#x2044;" horiz-adv-x="167" 
d="M-146 0l396 726l63 -34l-396 -726z" />
    <glyph glyph-name="yen" unicode="&#xa5;" horiz-adv-x="668" 
d="M56 128v96h175l1 57l-20 39h-156v96h108l-140 276h238l69 -257h2l85 257h226l-140 -276h102v-96h-151l-20 -39l-1 -57h172v-96h-173l-1 -128h-203l1 128h-174z" />
    <glyph glyph-name="florin" unicode="&#x192;" horiz-adv-x="668" 
d="M-22 -251l23 151c16 -4 32 -6 51 -6c57 0 83 16 95 90l49 291h-132l26 160h133l12 83c22 163 95 194 295 194c30 0 66 -2 107 -7l-24 -151c-16 3 -29 4 -43 4c-69 0 -93 -31 -100 -123h131l-25 -160h-133l-56 -345c-25 -151 -86 -190 -261 -190c-55 0 -103 4 -148 9z" />
    <glyph glyph-name="section" unicode="&#xa7;" 
d="M72 -80l31 140c71 -17 102 -19 131 -19c66 0 79 17 79 26c0 21 -13 31 -92 39c-143 14 -189 83 -189 145c0 71 44 122 147 150v2c-95 28 -123 82 -123 142c0 99 81 167 308 167c73 0 164 -10 228 -29l-30 -135c-42 9 -92 16 -117 16c-74 0 -87 -11 -87 -30
c0 -17 9 -24 94 -33c121 -13 183 -58 183 -150c0 -76 -66 -120 -142 -143v-2c86 -29 116 -73 116 -144c0 -79 -54 -169 -273 -169c-36 0 -167 1 -264 27zM246 299c0 -12 8 -27 21 -33c15 -7 72 -22 77 -22s24 6 60 27c11 7 17 19 17 37c0 19 -8 30 -47 42
c-29 9 -46 13 -53 13s-49 -21 -61 -32c-10 -10 -14 -20 -14 -32z" />
    <glyph glyph-name="currency" unicode="&#xa4;" horiz-adv-x="668" 
d="M40 152l68 62c-23 37 -36 82 -36 131c0 48 13 93 36 131l-68 62l79 80l64 -59c43 30 95 48 151 48s109 -18 150 -48l65 59l79 -80l-68 -62c23 -39 36 -83 36 -131s-13 -92 -36 -130l68 -63l-79 -80l-65 59c-41 -30 -94 -48 -150 -48s-107 18 -150 48l-65 -59zM220 345
c0 -68 51 -119 114 -119s114 51 114 119s-51 119 -114 119s-114 -51 -114 -119z" />
    <glyph glyph-name="quotesingle" unicode="'" horiz-adv-x="332" 
d="M80 354v338h172v-338h-172z" />
    <glyph glyph-name="quotedblleft" unicode="&#x201c;" 
d="M610 692v-342h-264l129 342h135zM321 692v-342h-264l129 342h135z" />
    <glyph glyph-name="guillemotleft" unicode="&#xab;" 
d="M505 80l-186 222l212 210l97 -38l-114 -172l101 -192zM225 80l-186 222l212 210l97 -38l-114 -172l102 -192z" />
    <glyph glyph-name="guilsinglleft" unicode="&#x2039;" horiz-adv-x="333" 
d="M198 80l-186 222l211 210l98 -38l-114 -172l101 -192z" />
    <glyph glyph-name="guilsinglright" unicode="&#x203a;" horiz-adv-x="333" 
d="M109 80l-97 38l114 172l-102 192l111 30l186 -222z" />
    <glyph glyph-name="endash" unicode="&#x2013;" horiz-adv-x="500" 
d="M0 204v184h500v-184h-500z" />
    <glyph glyph-name="dagger" unicode="&#x2020;" 
d="M204 0l4 364h-169v190h171l2 138h250l-2 -136h168v-190h-170l-4 -366h-250z" />
    <glyph glyph-name="daggerdbl" unicode="&#x2021;" 
d="M212 0l1 113h-168v172h170l1 122h-168v172h169l1 113h237l-1 -113h168v-172h-168l-1 -122h166v-172h-168l-1 -113h-238z" />
    <glyph glyph-name="periodcentered" unicode="&#xb7;" horiz-adv-x="334" 
d="M75 257c0 51 41 92 92 92s92 -41 92 -92s-41 -92 -92 -92s-92 41 -92 92z" />
    <glyph glyph-name="paragraph" unicode="&#xb6;" 
d="M241 -87l3 430c-150 0 -228 64 -228 171c0 144 107 178 246 178h368l-5 -779h-154l5 659h-78l-3 -659h-154z" />
    <glyph glyph-name="bullet" unicode="&#x2022;" horiz-adv-x="500" 
d="M77 346c0 96 77 173 173 173s173 -77 173 -173s-77 -173 -173 -173s-173 77 -173 173z" />
    <glyph glyph-name="quotesinglbase" unicode="&#x201a;" horiz-adv-x="332" 
d="M34 -138v342h264l-129 -342h-135z" />
    <glyph glyph-name="quotedblbase" unicode="&#x201e;" 
d="M57 -138v342h264l-129 -342h-135zM346 -138v342h264l-129 -342h-135z" />
    <glyph glyph-name="quotedblright" unicode="&#x201d;" 
d="M57 350v342h264l-129 -342h-135zM346 350v342h264l-129 -342h-135z" />
    <glyph glyph-name="guillemotright" unicode="&#xbb;" 
d="M39 118l114 172l-101 192l110 30l186 -222l-211 -210zM319 118l114 172l-101 192l110 30l186 -222l-212 -210z" />
    <glyph glyph-name="ellipsis" unicode="&#x2026;" horiz-adv-x="1000" 
d="M41 0v204h250v-204h-250zM375 0v204h250v-204h-250zM709 0v204h250v-204h-250z" />
    <glyph glyph-name="perthousand" unicode="&#x2030;" horiz-adv-x="1000" 
d="M162 346c-107 0 -158 81 -158 183c0 101 51 183 158 183s158 -82 158 -183c0 -102 -51 -183 -158 -183zM118 529c0 -88 18 -99 44 -99s44 11 44 99c0 87 -18 99 -44 99s-44 -12 -44 -99zM42 0l495 726l57 -34l-495 -726zM838 -20c-107 0 -158 81 -158 183
c0 101 51 183 158 183s158 -82 158 -183c0 -102 -51 -183 -158 -183zM794 163c0 -88 18 -99 44 -99s44 11 44 99c0 87 -18 99 -44 99s-44 -12 -44 -99zM475 -20c-107 0 -158 81 -158 183c0 101 51 183 158 183s158 -82 158 -183c0 -102 -51 -183 -158 -183zM431 163
c0 -88 18 -99 44 -99s44 11 44 99c0 87 -18 99 -44 99s-44 -12 -44 -99z" />
    <glyph glyph-name="questiondown" unicode="&#xbf;" horiz-adv-x="556" 
d="M460 14l51 -172c-74 -27 -153 -42 -230 -42c-146 0 -249 75 -249 199c0 34 13 79 52 126c79 97 82 109 82 172h250c0 -88 -12 -123 -70 -177c-41 -39 -50 -57 -50 -81s26 -49 73 -49c24 0 49 5 91 24zM417 512l-1 -160h-250l1 160h250z" />
    <glyph glyph-name="grave" unicode="`" horiz-adv-x="278" 
d="M116 574l-165 154h188l100 -154h-123z" />
    <glyph glyph-name="acute" unicode="&#xb4;" horiz-adv-x="278" 
d="M39 574l100 154h188l-165 -154h-123z" />
    <glyph glyph-name="circumflex" unicode="&#x2c6;" horiz-adv-x="278" 
d="M-55 574l117 154h154l117 -154h-132l-62 82l-63 -82h-131z" />
    <glyph glyph-name="tilde" unicode="&#x2dc;" horiz-adv-x="278" 
d="M17 574h-73c13 90 70 138 120 138c71 0 113 -40 153 -40c24 0 38 14 44 40h73c-13 -90 -70 -138 -120 -138c-71 0 -113 40 -153 40c-24 0 -38 -14 -44 -40z" />
    <glyph glyph-name="macron" unicode="&#xaf;" horiz-adv-x="278" 
d="M-28 602v90h334v-90h-334z" />
    <glyph glyph-name="breve" unicode="&#x2d8;" horiz-adv-x="278" 
d="M-40 733h70c9 -55 53 -69 109 -69s100 14 109 69h70c-7 -108 -85 -159 -179 -159s-172 51 -179 159z" />
    <glyph glyph-name="dotaccent" unicode="&#x2d9;" horiz-adv-x="278" 
d="M62 580v132h154v-132h-154z" />
    <glyph glyph-name="dieresis" unicode="&#xa8;" horiz-adv-x="278" 
d="M171 580v132h154v-132h-154zM-47 580v132h154v-132h-154z" />
    <glyph glyph-name="ring" unicode="&#x2da;" horiz-adv-x="278" 
d="M25 688c0 62 51 114 113 114s115 -51 115 -114c0 -62 -54 -114 -115 -114c-62 0 -113 53 -113 114zM85 688c0 -28 25 -54 53 -54c29 0 55 25 55 54s-27 54 -55 54s-53 -27 -53 -54z" />
    <glyph glyph-name="cedilla" unicode="&#xb8;" horiz-adv-x="278" 
d="M39 -222l20 60c30 -10 66 -19 84 -19c35 0 54 14 54 37c0 22 -21 37 -42 37c-16 0 -32 -2 -45 -7l-34 19l58 95h82l-42 -62l2 -2c9 4 21 5 32 5c51 0 97 -29 97 -80c0 -70 -50 -108 -129 -108c-49 0 -101 10 -137 25z" />
    <glyph glyph-name="hungarumlaut" unicode="&#x2dd;" horiz-adv-x="278" 
d="M-71 574l100 154h188l-165 -154h-123zM147 574l100 154h188l-165 -154h-123z" />
    <glyph glyph-name="ogonek" unicode="&#x2db;" horiz-adv-x="278" 
d="M266 -141l8 -80c-22 -11 -53 -14 -92 -14c-66 0 -126 28 -126 100c0 61 64 124 139 160h107c-82 -53 -120 -100 -120 -144c0 -13 11 -34 29 -34c22 0 40 2 55 12z" />
    <glyph glyph-name="caron" unicode="&#x2c7;" horiz-adv-x="278" 
d="M62 574l-117 154h131l63 -82l63 82h131l-117 -154h-154z" />
    <glyph glyph-name="emdash" unicode="&#x2014;" horiz-adv-x="1000" 
d="M0 204v184h1000v-184h-1000z" />
    <glyph glyph-name="AE" unicode="&#xc6;" horiz-adv-x="1000" 
d="M300 111l-29 -111h-267l246 692h711l-2 -184h-285v-72h285l-2 -178h-285v-74h285l-1 -184h-528l-2 111h-126zM349 301h82l6 307h-2z" />
    <glyph glyph-name="ordfeminine" unicode="&#xaa;" horiz-adv-x="433" 
d="M98 585l-42 85c86 31 140 42 193 42c94 0 135 -35 135 -104c0 -43 -1 -82 -1 -121c0 -15 11 -21 23 -21c6 0 13 1 19 4l10 -87c-50 -11 -95 -18 -130 -18c-31 0 -58 14 -64 39c-30 -23 -77 -39 -122 -39c-62 0 -110 31 -110 96c0 75 39 115 226 115v7c0 14 -7 27 -43 27
c-21 0 -58 -9 -94 -25zM236 465v57c-64 0 -79 -17 -79 -38s17 -35 36 -35c13 0 31 5 43 16z" />
    <glyph glyph-name="Lslash" unicode="&#x141;" 
d="M44 0l2 259l-77 -40l1 131l77 40l3 302h250l-2 -186l210 108v-130l-212 -109l-2 -171h332l-2 -204h-580z" />
    <glyph glyph-name="Oslash" unicode="&#xd8;" horiz-adv-x="778" 
d="M490 432l-175 -220c17 -18 41 -28 74 -28c87 0 113 73 113 162c0 32 -3 61 -12 86zM288 260l175 220c-17 18 -41 28 -74 28c-87 0 -113 -73 -113 -162c0 -32 3 -62 12 -86zM66 -20l69 87c-77 68 -117 168 -117 279c0 200 129 366 371 366c85 0 157 -21 214 -57l45 57h65
l-69 -87c77 -69 116 -169 116 -279c0 -200 -129 -366 -371 -366c-86 0 -157 21 -214 57l-45 -57h-64z" />
    <glyph glyph-name="OE" unicode="&#x152;" horiz-adv-x="1000" 
d="M956 0h-459c-25 -8 -51 -13 -75 -16s-45 -4 -61 -4c-222 0 -343 112 -343 366s121 366 343 366c34 0 93 -5 140 -20h460l-2 -184h-285v-72h285l-2 -178h-285v-74h285zM440 349c0 130 -23 165 -86 165c-51 0 -86 -31 -86 -168s27 -168 86 -168c57 0 86 34 86 171z" />
    <glyph glyph-name="ordmasculine" unicode="&#xba;" horiz-adv-x="470" 
d="M183 539c0 -49 22 -72 52 -72c31 0 52 17 52 72c0 53 -21 71 -52 71c-30 0 -52 -24 -52 -71zM11 539c0 78 48 173 224 173c141 0 224 -52 224 -173c0 -122 -83 -174 -224 -174c-176 0 -224 95 -224 174z" />
    <glyph glyph-name="ae" unicode="&#xe6;" horiz-adv-x="889" 
d="M127 335l-57 125c124 52 209 70 280 70c43 0 78 -11 105 -39c54 31 101 39 146 39c184 0 278 -138 278 -316h-358c4 -58 56 -78 112 -78c35 0 94 12 166 36l46 -140c-103 -36 -194 -50 -257 -50c-89 0 -161 33 -202 81c-49 -53 -126 -81 -215 -81c-84 0 -161 52 -161 147
c0 119 63 187 315 187v15c0 24 -10 45 -46 45c-40 0 -97 -15 -152 -41zM218 170c0 -34 23 -62 53 -62c29 0 58 16 71 30c-12 19 -23 70 -19 95c-67 -1 -105 -19 -105 -63zM521 316h180c-5 50 -36 95 -92 94c-53 1 -84 -44 -88 -94z" />
    <glyph glyph-name="dotlessi" unicode="&#x131;" horiz-adv-x="334" 
d="M48 0l4 512h232l-4 -512h-232z" />
    <glyph glyph-name="lslash" unicode="&#x142;" horiz-adv-x="334" 
d="M48 0l2 279l-81 -42v120l82 43l3 362h232l-2 -241l81 42v-120l-82 -43l-3 -400h-232z" />
    <glyph glyph-name="oslash" unicode="&#xf8;" 
d="M263 212l127 136c-11 14 -24 28 -56 28c-54 0 -75 -39 -75 -120c0 -17 1 -32 4 -44zM48 -18l65 70c-67 56 -92 137 -92 204c0 116 74 274 313 274c79 0 139 -17 185 -45l42 45h58l-65 -69c67 -56 92 -138 92 -205c0 -116 -74 -274 -312 -274c-79 0 -140 17 -186 45
l-42 -45h-58zM404 300l-127 -136c11 -15 24 -28 57 -28c52 0 74 39 74 120c0 16 -1 31 -4 44z" />
    <glyph glyph-name="oe" unicode="&#x153;" horiz-adv-x="1000" 
d="M397 256c0 91 -30 120 -68 120s-70 -39 -70 -120s32 -120 70 -120s68 29 68 120zM631 316h181c-5 50 -36 95 -92 94c-53 1 -85 -44 -89 -94zM21 256c0 116 75 274 314 274c77 0 132 -18 187 -60c54 42 120 60 191 60c183 0 277 -138 277 -316h-359c5 -58 57 -78 113 -78
c35 0 94 12 167 36l45 -140c-103 -36 -194 -50 -257 -50c-67 0 -136 16 -184 60c-48 -46 -112 -60 -180 -60c-239 0 -314 158 -314 274z" />
    <glyph glyph-name="germandbls" unicode="&#xdf;" horiz-adv-x="722" 
d="M48 0l4 519c2 173 128 243 326 243c249 0 305 -74 305 -176c0 -24 -13 -55 -32 -76l-56 -63c-12 -13 -20 -28 -20 -38c0 -11 3 -18 19 -33l70 -66c42 -40 55 -70 55 -141c0 -84 -66 -187 -270 -187c-49 0 -78 4 -100 8l18 159c8 -1 18 -1 32 -1c59 0 76 26 76 56
c0 62 -126 95 -126 186c0 75 107 125 107 172c0 22 -26 40 -71 40c-78 0 -100 -32 -101 -102l-4 -500h-232z" />
    <glyph glyph-name="onesuperior" unicode="&#xb9;" horiz-adv-x="434" 
d="M163 285l2 243l-83 -63l-82 111l197 124h153l-4 -415h-183z" />
    <glyph glyph-name="logicalnot" unicode="&#xac;" horiz-adv-x="600" 
d="M405 80v211h-358v148h506v-359h-148z" />
    <glyph glyph-name="mu" unicode="&#xb5;" 
d="M47 -260l6 772h229v-304c0 -30 15 -42 51 -42c18 0 34 8 53 23l1 323h234l-5 -512h-231l2 44c-35 -26 -68 -40 -103 -48l-3 -256h-234z" />
    <glyph glyph-name="trademark" unicode="&#x2122;" horiz-adv-x="1000" 
d="M156 280v322h-112v90h344v-90h-112v-322h-120zM438 280v412h160l89 -239l89 239h160v-412h-114v270h-2l-89 -270h-88l-89 270h-2v-270h-114z" />
    <glyph glyph-name="Eth" unicode="&#xd0;" horiz-adv-x="778" 
d="M426 399l-2 -102h-134l-1 -101h61c97 0 154 46 154 149c0 107 -68 151 -137 151h-73l-2 -97h134zM44 0l3 297h-53l1 102h53l2 293h332c164 0 366 -27 366 -343c0 -301 -195 -349 -344 -349h-360z" />
    <glyph glyph-name="onehalf" unicode="&#xbd;" horiz-adv-x="1000" 
d="M234 0l396 726l63 -34l-396 -726zM163 285l2 243l-83 -63l-82 111l197 124h153l-4 -415h-183zM591 0l-27 99c152 77 203 125 203 155c0 39 -40 53 -80 53c-27 0 -47 -3 -85 -15l-38 102c65 24 119 33 172 33c138 0 221 -48 221 -150c0 -49 -40 -107 -148 -155v-2h155
l-1 -120h-372z" />
    <glyph glyph-name="plusminus" unicode="&#xb1;" horiz-adv-x="600" 
d="M47 268v148h179v90h148v-90h179v-148h-179v-90h-148v90h-179zM47 0v148h506v-148h-506z" />
    <glyph glyph-name="Thorn" unicode="&#xde;" 
d="M298 419l-1 -139h35c73 0 94 34 94 77c0 50 -40 62 -77 62h-51zM44 0l7 692h250l-1 -107h89c154 0 269 -48 269 -240c0 -129 -71 -231 -227 -231h-135l-1 -114h-251z" />
    <glyph glyph-name="onequarter" unicode="&#xbc;" horiz-adv-x="1000" 
d="M743 301l-84 -129h86l1 129h-1h-2zM254 0l396 726l63 -34l-396 -726zM743 0l1 70h-183l-29 102l188 243h192l-1 -243h54l-1 -102h-53v-70h-168zM163 285l2 243l-83 -63l-82 111l197 124h153l-4 -415h-183z" />
    <glyph glyph-name="divide" unicode="&#xf7;" horiz-adv-x="600" 
d="M47 179v148h506v-148h-506zM193 489c0 59 48 107 107 107s107 -48 107 -107s-48 -107 -107 -107s-107 48 -107 107zM193 17c0 59 48 107 107 107s107 -48 107 -107s-48 -107 -107 -107s-107 48 -107 107z" />
    <glyph glyph-name="brokenbar" unicode="&#xa6;" horiz-adv-x="222" 
d="M33 -20l3 292h148l-3 -292h-148zM38 470l3 292h148l-3 -292h-148z" />
    <glyph glyph-name="degree" unicode="&#xb0;" horiz-adv-x="400" 
d="M57 569c0 79 64 143 143 143s143 -64 143 -143s-64 -143 -143 -143s-143 64 -143 143zM141 569c0 -33 26 -59 59 -59s59 26 59 59s-26 59 -59 59s-59 -26 -59 -59z" />
    <glyph glyph-name="thorn" unicode="&#xfe;" 
d="M274 335l-1 -72c0 -33 -1 -65 -1 -97c0 -9 32 -12 50 -12c41 0 92 21 92 99c0 82 -43 105 -78 105c-16 0 -44 -7 -62 -23zM39 -260l7 1022h232l-3 -286c36 38 96 54 139 54c153 0 232 -135 232 -259c0 -188 -120 -289 -255 -289c-45 0 -83 6 -122 38l-1 -280h-229z" />
    <glyph glyph-name="threequarters" unicode="&#xbe;" horiz-adv-x="1000" 
d="M743 301l-84 -129h86l1 129h-1h-2zM270 0l396 726l63 -34l-396 -726zM743 0l1 70h-183l-29 102l188 243h192l-1 -243h54l-1 -102h-53v-70h-168zM25 295l28 106c32 -9 66 -14 94 -14c48 0 73 13 73 27c0 18 -17 23 -38 23h-128v108h120c31 0 46 5 46 26
c0 14 -23 27 -67 27c-22 0 -63 -8 -99 -18l-30 102c71 21 133 30 196 30c108 0 190 -40 190 -123c0 -42 -27 -81 -88 -93v-2c46 -7 88 -34 88 -103c0 -53 -58 -118 -200 -118c-61 0 -127 8 -185 22z" />
    <glyph glyph-name="twosuperior" unicode="&#xb2;" horiz-adv-x="434" 
d="M39 285l-27 99c152 77 203 125 203 155c0 39 -40 53 -80 53c-27 0 -47 -3 -85 -15l-38 102c65 24 119 33 172 33c138 0 221 -48 221 -150c0 -49 -40 -107 -148 -155v-2h155l-1 -120h-372z" />
    <glyph glyph-name="registered" unicode="&#xae;" horiz-adv-x="800" 
d="M255 148v393h142c103 0 166 -27 166 -120c0 -73 -43 -100 -96 -103l94 -170h-100l-83 164h-33v-164h-90zM345 471v-89h75c34 0 53 9 53 49c0 38 -44 40 -73 40h-55zM34 346c0 202 164 366 366 366s366 -164 366 -366s-164 -366 -366 -366s-366 164 -366 366zM154 346
c0 -160 104 -258 246 -258s246 98 246 258s-104 258 -246 258s-246 -98 -246 -258z" />
    <glyph glyph-name="minus" unicode="&#x2212;" horiz-adv-x="600" 
d="M47 193v148h506v-148h-506z" />
    <glyph glyph-name="eth" unicode="&#xf0;" 
d="M259 256c0 -81 31 -120 75 -120c42 0 74 39 74 120s-32 118 -74 118c-44 0 -75 -39 -75 -118zM156 522l-54 75l131 48c-36 17 -74 27 -111 33l71 112c95 -2 177 -27 244 -69l156 57l59 -74l-133 -49c84 -87 130 -211 130 -345c0 -236 -133 -328 -314 -328
c-240 0 -314 158 -314 274c0 178 132 256 264 256c30 0 65 -6 85 -23l2 2c-9 36 -26 67 -50 92z" />
    <glyph glyph-name="multiply" unicode="&#xd7;" horiz-adv-x="600" 
d="M157 6l-104 104l143 143l-143 143l104 104l143 -143l143 143l104 -104l-143 -143l143 -143l-104 -104l-143 144z" />
    <glyph glyph-name="threesuperior" unicode="&#xb3;" horiz-adv-x="434" 
d="M25 295l28 106c32 -9 66 -14 94 -14c48 0 73 13 73 27c0 18 -17 23 -38 23h-128v108h120c31 0 46 5 46 26c0 14 -23 27 -67 27c-22 0 -63 -8 -99 -18l-30 102c71 21 133 30 196 30c108 0 190 -40 190 -123c0 -42 -27 -81 -88 -93v-2c46 -7 88 -34 88 -103
c0 -53 -58 -118 -200 -118c-61 0 -127 8 -185 22z" />
    <glyph glyph-name="copyright" unicode="&#xa9;" horiz-adv-x="800" 
d="M484 290h98c-14 -100 -89 -152 -174 -152c-122 0 -202 91 -202 208c0 120 76 209 200 209c88 0 157 -51 172 -149h-94c-9 39 -38 59 -82 59c-57 0 -88 -45 -88 -117c0 -69 36 -120 90 -120c43 0 77 18 80 62zM34 346c0 202 164 366 366 366s366 -164 366 -366
s-164 -366 -366 -366s-366 164 -366 366zM154 346c0 -160 104 -258 246 -258s246 98 246 258s-104 258 -246 258s-246 -98 -246 -258z" />
    <glyph glyph-name="Aacute" unicode="&#xc1;" horiz-adv-x="833" 
d="M5 0l261 692h315l247 -692h-270l-27 111h-223l-28 -111h-275zM419 554l-66 -265h133l-65 265h-2zM317 754l100 154h188l-165 -154h-123z" />
    <glyph glyph-name="Acircumflex" unicode="&#xc2;" horiz-adv-x="833" 
d="M5 0l261 692h315l247 -692h-270l-27 111h-223l-28 -111h-275zM419 554l-66 -265h133l-65 265h-2zM223 754l117 154h154l117 -154h-132l-62 82l-63 -82h-131z" />
    <glyph glyph-name="Adieresis" unicode="&#xc4;" horiz-adv-x="833" 
d="M5 0l261 692h315l247 -692h-270l-27 111h-223l-28 -111h-275zM419 554l-66 -265h133l-65 265h-2zM449 760v132h154v-132h-154zM231 760v132h154v-132h-154z" />
    <glyph glyph-name="Agrave" unicode="&#xc0;" horiz-adv-x="833" 
d="M5 0l261 692h315l247 -692h-270l-27 111h-223l-28 -111h-275zM419 554l-66 -265h133l-65 265h-2zM394 754l-165 154h188l100 -154h-123z" />
    <glyph glyph-name="Aring" unicode="&#xc5;" horiz-adv-x="833" 
d="M5 0l261 692h315l247 -692h-270l-27 111h-223l-28 -111h-275zM419 554l-66 -265h133l-65 265h-2zM303 828c0 62 51 114 113 114s115 -51 115 -114c0 -62 -54 -114 -115 -114c-62 0 -113 53 -113 114zM363 828c0 -28 25 -54 53 -54c29 0 55 25 55 54s-27 54 -55 54
s-53 -27 -53 -54z" />
    <glyph glyph-name="Atilde" unicode="&#xc3;" horiz-adv-x="833" 
d="M5 0l261 692h315l247 -692h-270l-27 111h-223l-28 -111h-275zM419 554l-66 -265h133l-65 265h-2zM295 754h-73c13 90 70 138 120 138c71 0 113 -40 153 -40c24 0 38 14 44 40h73c-13 -90 -70 -138 -120 -138c-71 0 -113 40 -153 40c-24 0 -38 -14 -44 -40z" />
    <glyph glyph-name="Ccedilla" unicode="&#xc7;" horiz-adv-x="611" 
d="M554 203l31 -203c-29 -6 -61 -11 -95 -15c-33 -3 -70 -5 -111 -5h-9l-29 -42l2 -2c9 4 21 5 32 5c51 0 97 -29 97 -80c0 -70 -50 -108 -129 -108c-49 0 -101 10 -137 25l20 60c30 -10 66 -19 84 -19c35 0 54 14 54 37c0 22 -21 37 -42 37c-16 0 -32 -2 -45 -7l-34 19
l50 83c-187 35 -285 183 -285 358c0 222 129 366 400 366c75 0 123 -6 183 -18l-33 -207c-35 7 -78 11 -102 11c-160 0 -190 -93 -190 -151c0 -72 33 -153 178 -153c37 0 74 3 110 9z" />
    <glyph glyph-name="Eacute" unicode="&#xc9;" 
d="M44 0l5 692h568l-2 -184h-322v-72h322l-2 -178h-322l-1 -74h323l-2 -184h-567zM234 754l100 154h188l-165 -154h-123z" />
    <glyph glyph-name="Ecircumflex" unicode="&#xca;" 
d="M44 0l5 692h568l-2 -184h-322v-72h322l-2 -178h-322l-1 -74h323l-2 -184h-567zM140 754l117 154h154l117 -154h-132l-62 82l-63 -82h-131z" />
    <glyph glyph-name="Edieresis" unicode="&#xcb;" 
d="M44 0l5 692h568l-2 -184h-322v-72h322l-2 -178h-322l-1 -74h323l-2 -184h-567zM366 760v132h154v-132h-154zM148 760v132h154v-132h-154z" />
    <glyph glyph-name="Egrave" unicode="&#xc8;" 
d="M44 0l5 692h568l-2 -184h-322v-72h322l-2 -178h-322l-1 -74h323l-2 -184h-567zM311 754l-165 154h188l100 -154h-123z" />
    <glyph glyph-name="Iacute" unicode="&#xcd;" horiz-adv-x="334" 
d="M39 0l6 692h250l-6 -692h-250zM67 754l100 154h188l-165 -154h-123z" />
    <glyph glyph-name="Icircumflex" unicode="&#xce;" horiz-adv-x="334" 
d="M39 0l6 692h250l-6 -692h-250zM-27 754l117 154h154l117 -154h-132l-62 82l-63 -82h-131z" />
    <glyph glyph-name="Idieresis" unicode="&#xcf;" horiz-adv-x="334" 
d="M39 0l6 692h250l-6 -692h-250zM199 760v132h154v-132h-154zM-19 760v132h154v-132h-154z" />
    <glyph glyph-name="Igrave" unicode="&#xcc;" horiz-adv-x="334" 
d="M39 0l6 692h250l-6 -692h-250zM144 754l-165 154h188l100 -154h-123z" />
    <glyph glyph-name="Ntilde" unicode="&#xd1;" horiz-adv-x="778" 
d="M44 0l5 692h310l149 -399h2l2 399h222l-6 -692h-309l-160 403h-2l7 -403h-220zM267 754h-73c13 90 70 138 120 138c71 0 113 -40 153 -40c24 0 38 14 44 40h73c-13 -90 -70 -138 -120 -138c-71 0 -113 40 -153 40c-24 0 -38 -14 -44 -40z" />
    <glyph glyph-name="Oacute" unicode="&#xd3;" horiz-adv-x="778" 
d="M18 346c0 200 129 366 371 366s371 -166 371 -366s-129 -366 -371 -366s-371 166 -371 366zM502 346c0 89 -26 162 -113 162s-113 -73 -113 -162s26 -162 113 -162s113 73 113 162zM289 754l100 154h188l-165 -154h-123z" />
    <glyph glyph-name="Ocircumflex" unicode="&#xd4;" horiz-adv-x="778" 
d="M18 346c0 200 129 366 371 366s371 -166 371 -366s-129 -366 -371 -366s-371 166 -371 366zM502 346c0 89 -26 162 -113 162s-113 -73 -113 -162s26 -162 113 -162s113 73 113 162zM195 754l117 154h154l117 -154h-132l-62 82l-63 -82h-131z" />
    <glyph glyph-name="Odieresis" unicode="&#xd6;" horiz-adv-x="778" 
d="M18 346c0 200 129 366 371 366s371 -166 371 -366s-129 -366 -371 -366s-371 166 -371 366zM502 346c0 89 -26 162 -113 162s-113 -73 -113 -162s26 -162 113 -162s113 73 113 162zM421 760v132h154v-132h-154zM203 760v132h154v-132h-154z" />
    <glyph glyph-name="Ograve" unicode="&#xd2;" horiz-adv-x="778" 
d="M18 346c0 200 129 366 371 366s371 -166 371 -366s-129 -366 -371 -366s-371 166 -371 366zM502 346c0 89 -26 162 -113 162s-113 -73 -113 -162s26 -162 113 -162s113 73 113 162zM366 754l-165 154h188l100 -154h-123z" />
    <glyph glyph-name="Otilde" unicode="&#xd5;" horiz-adv-x="778" 
d="M18 346c0 200 129 366 371 366s371 -166 371 -366s-129 -366 -371 -366s-371 166 -371 366zM502 346c0 89 -26 162 -113 162s-113 -73 -113 -162s26 -162 113 -162s113 73 113 162zM267 754h-73c13 90 70 138 120 138c71 0 113 -40 153 -40c24 0 38 14 44 40h73
c-13 -90 -70 -138 -120 -138c-71 0 -113 40 -153 40c-24 0 -38 -14 -44 -40z" />
    <glyph glyph-name="Scaron" unicode="&#x160;" horiz-adv-x="611" 
d="M37 0l23 186c53 -10 108 -16 153 -16c90 0 120 10 120 38c0 26 -11 35 -38 39l-104 15c-127 19 -171 130 -171 204c0 197 142 246 320 246c94 0 174 -10 233 -20l-19 -181c-49 10 -124 17 -174 17c-90 0 -102 -22 -102 -45c0 -15 9 -26 39 -32l115 -21
c106 -19 159 -96 159 -199c0 -166 -99 -251 -295 -251c-97 0 -187 9 -259 20zM229 754l-117 154h131l63 -82l63 82h131l-117 -154h-154z" />
    <glyph glyph-name="Uacute" unicode="&#xda;" horiz-adv-x="778" 
d="M49 692h250l-2 -276c0 -42 -1 -84 -1 -126c0 -60 26 -90 93 -90c62 0 90 32 91 101l4 391h250l-4 -368c-1 -215 -77 -344 -354 -344c-253 0 -332 153 -332 281c0 43 0 99 1 149zM289 754l100 154h188l-165 -154h-123z" />
    <glyph glyph-name="Ucircumflex" unicode="&#xdb;" horiz-adv-x="778" 
d="M49 692h250l-2 -276c0 -42 -1 -84 -1 -126c0 -60 26 -90 93 -90c62 0 90 32 91 101l4 391h250l-4 -368c-1 -215 -77 -344 -354 -344c-253 0 -332 153 -332 281c0 43 0 99 1 149zM195 754l117 154h154l117 -154h-132l-62 82l-63 -82h-131z" />
    <glyph glyph-name="Udieresis" unicode="&#xdc;" horiz-adv-x="778" 
d="M49 692h250l-2 -276c0 -42 -1 -84 -1 -126c0 -60 26 -90 93 -90c62 0 90 32 91 101l4 391h250l-4 -368c-1 -215 -77 -344 -354 -344c-253 0 -332 153 -332 281c0 43 0 99 1 149zM421 760v132h154v-132h-154zM203 760v132h154v-132h-154z" />
    <glyph glyph-name="Ugrave" unicode="&#xd9;" horiz-adv-x="778" 
d="M49 692h250l-2 -276c0 -42 -1 -84 -1 -126c0 -60 26 -90 93 -90c62 0 90 32 91 101l4 391h250l-4 -368c-1 -215 -77 -344 -354 -344c-253 0 -332 153 -332 281c0 43 0 99 1 149zM366 754l-165 154h188l100 -154h-123z" />
    <glyph glyph-name="Yacute" unicode="&#xdd;" horiz-adv-x="722" 
d="M235 0l3 281l-234 411h273l80 -257h2l96 257h263l-236 -411l-3 -281h-244zM261 754l100 154h188l-165 -154h-123z" />
    <glyph glyph-name="Ydieresis" unicode="&#x178;" horiz-adv-x="722" 
d="M235 0l3 281l-234 411h273l80 -257h2l96 257h263l-236 -411l-3 -281h-244zM393 760v132h154v-132h-154zM175 760v132h154v-132h-154z" />
    <glyph glyph-name="Zcaron" unicode="&#x17d;" 
d="M626 0h-559l-44 169l305 319h-292l2 204h557l49 -167l-283 -321h267zM257 754l-117 154h131l63 -82l63 82h131l-117 -154h-154z" />
    <glyph glyph-name="aacute" unicode="&#xe1;" horiz-adv-x="611" 
d="M541 373c0 -71 -2 -137 -2 -202c0 -25 17 -35 31 -35c10 0 21 3 31 8l14 -133c-60 -18 -130 -29 -184 -29c-47 0 -89 23 -97 64c-47 -38 -118 -64 -177 -64c-84 0 -161 52 -161 147c0 119 64 187 325 187v15c0 24 -12 45 -52 45c-44 0 -100 -15 -156 -41l-56 125
c124 52 208 70 280 70c137 0 204 -59 204 -157zM327 135v97c-100 0 -122 -28 -122 -66c0 -35 25 -58 55 -58c20 0 47 8 67 27zM206 574l100 154h188l-165 -154h-123z" />
    <glyph glyph-name="acircumflex" unicode="&#xe2;" horiz-adv-x="611" 
d="M541 373c0 -71 -2 -137 -2 -202c0 -25 17 -35 31 -35c10 0 21 3 31 8l14 -133c-60 -18 -130 -29 -184 -29c-47 0 -89 23 -97 64c-47 -38 -118 -64 -177 -64c-84 0 -161 52 -161 147c0 119 64 187 325 187v15c0 24 -12 45 -52 45c-44 0 -100 -15 -156 -41l-56 125
c124 52 208 70 280 70c137 0 204 -59 204 -157zM327 135v97c-100 0 -122 -28 -122 -66c0 -35 25 -58 55 -58c20 0 47 8 67 27zM112 574l117 154h154l117 -154h-132l-62 82l-63 -82h-131z" />
    <glyph glyph-name="adieresis" unicode="&#xe4;" horiz-adv-x="611" 
d="M541 373c0 -71 -2 -137 -2 -202c0 -25 17 -35 31 -35c10 0 21 3 31 8l14 -133c-60 -18 -130 -29 -184 -29c-47 0 -89 23 -97 64c-47 -38 -118 -64 -177 -64c-84 0 -161 52 -161 147c0 119 64 187 325 187v15c0 24 -12 45 -52 45c-44 0 -100 -15 -156 -41l-56 125
c124 52 208 70 280 70c137 0 204 -59 204 -157zM327 135v97c-100 0 -122 -28 -122 -66c0 -35 25 -58 55 -58c20 0 47 8 67 27zM338 580v132h154v-132h-154zM120 580v132h154v-132h-154z" />
    <glyph glyph-name="agrave" unicode="&#xe0;" horiz-adv-x="611" 
d="M541 373c0 -71 -2 -137 -2 -202c0 -25 17 -35 31 -35c10 0 21 3 31 8l14 -133c-60 -18 -130 -29 -184 -29c-47 0 -89 23 -97 64c-47 -38 -118 -64 -177 -64c-84 0 -161 52 -161 147c0 119 64 187 325 187v15c0 24 -12 45 -52 45c-44 0 -100 -15 -156 -41l-56 125
c124 52 208 70 280 70c137 0 204 -59 204 -157zM327 135v97c-100 0 -122 -28 -122 -66c0 -35 25 -58 55 -58c20 0 47 8 67 27zM283 574l-165 154h188l100 -154h-123z" />
    <glyph glyph-name="aring" unicode="&#xe5;" horiz-adv-x="611" 
d="M541 373c0 -71 -2 -137 -2 -202c0 -25 17 -35 31 -35c10 0 21 3 31 8l14 -133c-60 -18 -130 -29 -184 -29c-47 0 -89 23 -97 64c-47 -38 -118 -64 -177 -64c-84 0 -161 52 -161 147c0 119 64 187 325 187v15c0 24 -12 45 -52 45c-44 0 -100 -15 -156 -41l-56 125
c124 52 208 70 280 70c137 0 204 -59 204 -157zM327 135v97c-100 0 -122 -28 -122 -66c0 -35 25 -58 55 -58c20 0 47 8 67 27zM192 688c0 62 51 114 113 114s115 -51 115 -114c0 -62 -54 -114 -115 -114c-62 0 -113 53 -113 114zM252 688c0 -28 25 -54 53 -54
c29 0 55 25 55 54s-27 54 -55 54s-53 -27 -53 -54z" />
    <glyph glyph-name="atilde" unicode="&#xe3;" horiz-adv-x="611" 
d="M541 373c0 -71 -2 -137 -2 -202c0 -25 17 -35 31 -35c10 0 21 3 31 8l14 -133c-60 -18 -130 -29 -184 -29c-47 0 -89 23 -97 64c-47 -38 -118 -64 -177 -64c-84 0 -161 52 -161 147c0 119 64 187 325 187v15c0 24 -12 45 -52 45c-44 0 -100 -15 -156 -41l-56 125
c124 52 208 70 280 70c137 0 204 -59 204 -157zM327 135v97c-100 0 -122 -28 -122 -66c0 -35 25 -58 55 -58c20 0 47 8 67 27zM184 574h-73c13 90 70 138 120 138c71 0 113 -40 153 -40c24 0 38 14 44 40h73c-13 -90 -70 -138 -120 -138c-71 0 -113 40 -153 40
c-24 0 -38 -14 -44 -40z" />
    <glyph glyph-name="ccedilla" unicode="&#xe7;" horiz-adv-x="500" 
d="M492 512l-37 -161c-21 5 -44 7 -69 7c-79 0 -127 -34 -127 -101c0 -62 40 -97 100 -97c22 0 61 5 94 13l41 -161c-59 -19 -127 -28 -179 -30l-30 -44l2 -2c9 4 21 5 32 5c51 0 97 -29 97 -80c0 -70 -50 -108 -129 -108c-49 0 -101 10 -137 25l20 60c30 -10 66 -19 84 -19
c35 0 54 14 54 37c0 22 -21 37 -42 37c-16 0 -32 -2 -45 -7l-34 19l50 82c-148 24 -216 141 -216 269c0 116 74 274 314 274c30 0 106 -6 157 -18z" />
    <glyph glyph-name="eacute" unicode="&#xe9;" horiz-adv-x="611" 
d="M521 172l46 -140c-104 -36 -194 -50 -232 -50c-240 0 -314 158 -314 274s74 274 314 274c171 0 266 -138 266 -316h-360c5 -58 58 -78 113 -78c35 0 95 12 167 36zM241 316h182c-5 50 -38 95 -92 94c-54 1 -85 -44 -90 -94zM206 574l100 154h188l-165 -154h-123z" />
    <glyph glyph-name="ecircumflex" unicode="&#xea;" horiz-adv-x="611" 
d="M521 172l46 -140c-104 -36 -194 -50 -232 -50c-240 0 -314 158 -314 274s74 274 314 274c171 0 266 -138 266 -316h-360c5 -58 58 -78 113 -78c35 0 95 12 167 36zM241 316h182c-5 50 -38 95 -92 94c-54 1 -85 -44 -90 -94zM112 574l117 154h154l117 -154h-132l-62 82
l-63 -82h-131z" />
    <glyph glyph-name="edieresis" unicode="&#xeb;" horiz-adv-x="611" 
d="M521 172l46 -140c-104 -36 -194 -50 -232 -50c-240 0 -314 158 -314 274s74 274 314 274c171 0 266 -138 266 -316h-360c5 -58 58 -78 113 -78c35 0 95 12 167 36zM241 316h182c-5 50 -38 95 -92 94c-54 1 -85 -44 -90 -94zM338 580v132h154v-132h-154zM120 580v132h154
v-132h-154z" />
    <glyph glyph-name="egrave" unicode="&#xe8;" horiz-adv-x="611" 
d="M521 172l46 -140c-104 -36 -194 -50 -232 -50c-240 0 -314 158 -314 274s74 274 314 274c171 0 266 -138 266 -316h-360c5 -58 58 -78 113 -78c35 0 95 12 167 36zM241 316h182c-5 50 -38 95 -92 94c-54 1 -85 -44 -90 -94zM283 574l-165 154h188l100 -154h-123z" />
    <glyph glyph-name="iacute" unicode="&#xed;" horiz-adv-x="334" 
d="M48 0l4 512h232l-4 -512h-232zM67 574l100 154h188l-165 -154h-123z" />
    <glyph glyph-name="icircumflex" unicode="&#xee;" horiz-adv-x="334" 
d="M48 0l4 512h232l-4 -512h-232zM-27 574l117 154h154l117 -154h-132l-62 82l-63 -82h-131z" />
    <glyph glyph-name="idieresis" unicode="&#xef;" horiz-adv-x="334" 
d="M48 0l4 512h232l-4 -512h-232zM199 580v132h154v-132h-154zM-19 580v132h154v-132h-154z" />
    <glyph glyph-name="igrave" unicode="&#xec;" horiz-adv-x="334" 
d="M48 0l4 512h232l-4 -512h-232zM144 574l-165 154h188l100 -154h-123z" />
    <glyph glyph-name="ntilde" unicode="&#xf1;" 
d="M48 0l5 512h231l1 -44c57 33 109 62 172 62c70 0 162 -26 162 -150c0 -51 -1 -131 -2 -210l-1 -170h-230l1 300c0 35 -15 46 -44 46c-22 0 -41 -9 -60 -23l-3 -323h-232zM212 574h-73c13 90 70 138 120 138c71 0 113 -40 153 -40c24 0 38 14 44 40h73
c-13 -90 -70 -138 -120 -138c-71 0 -113 40 -153 40c-24 0 -38 -14 -44 -40z" />
    <glyph glyph-name="oacute" unicode="&#xf3;" 
d="M259 256c0 -81 21 -120 75 -120c52 0 74 39 74 120s-22 120 -74 120c-54 0 -75 -39 -75 -120zM21 256c0 116 74 274 313 274c238 0 312 -158 312 -274s-74 -274 -312 -274c-239 0 -313 158 -313 274zM234 574l100 154h188l-165 -154h-123z" />
    <glyph glyph-name="ocircumflex" unicode="&#xf4;" 
d="M259 256c0 -81 21 -120 75 -120c52 0 74 39 74 120s-22 120 -74 120c-54 0 -75 -39 -75 -120zM21 256c0 116 74 274 313 274c238 0 312 -158 312 -274s-74 -274 -312 -274c-239 0 -313 158 -313 274zM140 574l117 154h154l117 -154h-132l-62 82l-63 -82h-131z" />
    <glyph glyph-name="odieresis" unicode="&#xf6;" 
d="M259 256c0 -81 21 -120 75 -120c52 0 74 39 74 120s-22 120 -74 120c-54 0 -75 -39 -75 -120zM21 256c0 116 74 274 313 274c238 0 312 -158 312 -274s-74 -274 -312 -274c-239 0 -313 158 -313 274zM366 580v132h154v-132h-154zM148 580v132h154v-132h-154z" />
    <glyph glyph-name="ograve" unicode="&#xf2;" 
d="M259 256c0 -81 21 -120 75 -120c52 0 74 39 74 120s-22 120 -74 120c-54 0 -75 -39 -75 -120zM21 256c0 116 74 274 313 274c238 0 312 -158 312 -274s-74 -274 -312 -274c-239 0 -313 158 -313 274zM311 574l-165 154h188l100 -154h-123z" />
    <glyph glyph-name="otilde" unicode="&#xf5;" 
d="M259 256c0 -81 21 -120 75 -120c52 0 74 39 74 120s-22 120 -74 120c-54 0 -75 -39 -75 -120zM21 256c0 116 74 274 313 274c238 0 312 -158 312 -274s-74 -274 -312 -274c-239 0 -313 158 -313 274zM212 574h-73c13 90 70 138 120 138c71 0 113 -40 153 -40
c24 0 38 14 44 40h73c-13 -90 -70 -138 -120 -138c-71 0 -113 40 -153 40c-24 0 -38 -14 -44 -40z" />
    <glyph glyph-name="scaron" unicode="&#x161;" horiz-adv-x="500" 
d="M25 9l24 153c47 -12 115 -26 152 -26c31 0 48 13 48 29c0 15 -7 24 -65 31c-101 12 -159 70 -159 157c0 105 81 177 232 177c71 0 123 -7 207 -25l-24 -146c-45 15 -92 23 -139 23c-35 0 -50 -9 -50 -26c0 -10 6 -19 28 -24l75 -18c79 -19 121 -75 121 -158
c0 -160 -165 -174 -237 -174c-64 0 -144 12 -213 27zM173 574l-117 154h131l63 -82l63 82h131l-117 -154h-154z" />
    <glyph glyph-name="uacute" unicode="&#xfa;" 
d="M621 512l-5 -512h-231l1 44c-56 -40 -123 -62 -174 -62c-70 0 -162 28 -162 162c0 50 1 119 2 198l1 170h229v-289c0 -40 17 -57 51 -57c18 0 34 8 53 23l1 323h234zM234 574l100 154h188l-165 -154h-123z" />
    <glyph glyph-name="ucircumflex" unicode="&#xfb;" 
d="M621 512l-5 -512h-231l1 44c-56 -40 -123 -62 -174 -62c-70 0 -162 28 -162 162c0 50 1 119 2 198l1 170h229v-289c0 -40 17 -57 51 -57c18 0 34 8 53 23l1 323h234zM140 574l117 154h154l117 -154h-132l-62 82l-63 -82h-131z" />
    <glyph glyph-name="udieresis" unicode="&#xfc;" 
d="M621 512l-5 -512h-231l1 44c-56 -40 -123 -62 -174 -62c-70 0 -162 28 -162 162c0 50 1 119 2 198l1 170h229v-289c0 -40 17 -57 51 -57c18 0 34 8 53 23l1 323h234zM366 580v132h154v-132h-154zM148 580v132h154v-132h-154z" />
    <glyph glyph-name="ugrave" unicode="&#xf9;" 
d="M621 512l-5 -512h-231l1 44c-56 -40 -123 -62 -174 -62c-70 0 -162 28 -162 162c0 50 1 119 2 198l1 170h229v-289c0 -40 17 -57 51 -57c18 0 34 8 53 23l1 323h234zM311 574l-165 154h188l100 -154h-123z" />
    <glyph glyph-name="yacute" unicode="&#xfd;" horiz-adv-x="611" 
d="M28 -258l2 170h48c66 0 93 10 107 60l-175 540h232l65 -340h2l63 340h229l-195 -596c-39 -119 -86 -176 -275 -176c-36 0 -68 1 -103 2zM206 574l100 154h188l-165 -154h-123z" />
    <glyph glyph-name="ydieresis" unicode="&#xff;" horiz-adv-x="611" 
d="M28 -258l2 170h48c66 0 93 10 107 60l-175 540h232l65 -340h2l63 340h229l-195 -596c-39 -119 -86 -176 -275 -176c-36 0 -68 1 -103 2zM338 580v132h154v-132h-154zM120 580v132h154v-132h-154z" />
    <glyph glyph-name="zcaron" unicode="&#x17e;" horiz-adv-x="556" 
d="M54 0l-30 124l200 210h-189v178h466l31 -132l-207 -202h197v-178h-468zM201 574l-117 154h131l63 -82l63 82h131l-117 -154h-154z" />
    <glyph glyph-name="Delta" unicode="&#x2206;" horiz-adv-x="776" 
d="M22 0v99l243 619h251l237 -617v-101h-731zM244 155h274l-90 239c-14 46 -35 108 -47 151h-4c-9 -32 -28 -92 -43 -141z" />
    <glyph glyph-name="Omega" unicode="&#x2126;" horiz-adv-x="845" 
d="M184 154v4c-61 43 -135 126 -135 248c0 163 141 310 374 310c240 0 370 -155 370 -308c0 -118 -63 -195 -138 -250v-4h152v-154h-354v118c75 47 130 112 130 250c0 113 -62 193 -159 193c-91 0 -163 -74 -163 -199c0 -120 52 -206 130 -244v-118h-356v154h149z" />
    <glyph glyph-name="uni03BC" unicode="&#x3bc;" 
d="M47 -260l6 772h229v-304c0 -30 15 -42 51 -42c18 0 34 8 53 23l1 323h234l-5 -512h-231l2 44c-35 -26 -68 -40 -103 -48l-3 -256h-234z" />
    <glyph glyph-name="pi" unicode="&#x3c0;" horiz-adv-x="735" 
d="M708 375h-68v-205c0 -68 5 -134 13 -170h-204c-16 22 -20 95 -20 158v217h-106c-2 -107 -24 -289 -58 -375h-204c31 110 59 280 57 375c-33 0 -72 -1 -101 -8l-18 125c25 26 95 42 213 42h513z" />
    <glyph glyph-name="Euro" unicode="&#x20ac;" horiz-adv-x="668" 
d="M663 691l-45 -162c-21 5 -53 8 -94 8c-71 0 -125 -23 -161 -70h199v-93h-237v-51h237v-93h-211c29 -47 80 -70 153 -70c48 0 82 4 101 13l47 -162c-55 -19 -118 -29 -189 -29c-201 0 -320 83 -357 248h-81v93h71v51h-71v93h88c27 81 76 142 148 185c67 40 145 60 233 60
c25 0 53 -3 86 -8c51 -8 78 -12 83 -13z" />
    <glyph glyph-name="afii61289" unicode="&#x2113;" horiz-adv-x="652" 
d="M546 229l83 -86c-73 -124 -183 -161 -280 -161c-124 0 -191 49 -221 142c-1 2 -1 4 -2 7c-18 -11 -30 -21 -48 -31l-53 100c31 22 66 43 98 66v204c0 198 88 295 235 295c133 0 193 -90 193 -195c0 -122 -83 -220 -229 -338l1 -29c5 -31 32 -60 78 -60
c54 0 108 41 145 86zM322 508v-107c56 58 89 127 89 173c0 39 -13 60 -41 60c-25 0 -48 -28 -48 -126z" />
    <glyph glyph-name="estimated" unicode="&#x212e;" horiz-adv-x="883" 
d="M847 336h-658c-3 0 -5 -1 -5 -5v-199c0 -8 3 -16 8 -23c64 -66 152 -108 249 -108c105 0 198 48 262 121h59c-73 -85 -191 -141 -322 -141c-224 0 -406 163 -406 365s182 366 406 366c225 0 407 -164 407 -366v-10zM698 362v200c0 9 -3 17 -10 24
c-64 63 -150 104 -247 104c-96 0 -184 -42 -248 -107c-6 -7 -9 -16 -9 -25v-196c0 -2 2 -7 5 -7h505c3 0 4 5 4 7z" />
    <glyph glyph-name="partialdiff" unicode="&#x2202;" horiz-adv-x="694" 
d="M112 589l-56 137c31 20 112 65 240 65c203 0 355 -152 355 -394c0 -262 -151 -413 -357 -413c-182 0 -264 148 -264 248c0 153 99 269 256 269c89 0 143 -50 162 -77h1v17c0 89 -57 193 -181 193c-76 0 -130 -29 -156 -45zM317 140h1c61 0 103 81 112 140
c-5 25 -39 71 -95 71c-63 0 -100 -58 -100 -123c0 -51 36 -88 82 -88z" />
    <glyph glyph-name="product" unicode="&#x220f;" horiz-adv-x="845" 
d="M824 534h-112v-631h-201v631h-178v-631h-201v631h-113v170h805v-170z" />
    <glyph glyph-name="summation" unicode="&#x2211;" horiz-adv-x="658" 
d="M644 -97h-621v112l246 286l-235 272v131h585v-165h-306v-4l187 -209l-210 -248v-4h354v-171z" />
    <glyph glyph-name="uni2219" unicode="&#x2219;" horiz-adv-x="334" 
d="M75 257c0 51 41 92 92 92s92 -41 92 -92s-41 -92 -92 -92s-92 41 -92 92z" />
    <glyph glyph-name="radical" unicode="&#x221a;" horiz-adv-x="707" 
d="M736 847l-270 -991h-155l-170 421l-82 -34l-32 98l231 95l104 -288c10 -35 20 -68 28 -95l2 -1c5 26 12 63 21 104l182 691h141z" />
    <glyph glyph-name="infinity" unicode="&#x221e;" horiz-adv-x="827" 
d="M780 292v-1c0 -126 -89 -197 -180 -197c-53 0 -120 12 -188 112c-52 -69 -106 -112 -189 -112c-92 0 -178 72 -178 190c0 117 82 194 188 194c79 0 134 -34 187 -107c34 39 85 109 184 107c94 0 176 -71 176 -186zM234 193h2c50 0 89 42 123 87c-39 57 -65 101 -126 101
c-49 0 -87 -35 -87 -97c0 -49 40 -91 88 -91zM594 381h-1c-55 0 -94 -54 -124 -93c57 -80 87 -95 131 -95c51 0 78 52 78 90c0 54 -31 98 -84 98z" />
    <glyph glyph-name="integral" unicode="&#x222b;" horiz-adv-x="457" 
d="M443 871l-16 -125c-13 4 -26 7 -42 7c-25 0 -46 -12 -57 -30c-18 -27 -22 -80 -22 -156c0 -170 18 -265 18 -460c0 -82 -12 -154 -34 -197c-37 -71 -108 -97 -174 -97c-37 0 -79 6 -101 16l21 130c13 -5 29 -9 48 -9c20 0 38 6 51 21c18 24 25 61 25 137
c0 199 -19 297 -19 479c0 123 23 190 75 242c35 37 97 53 153 53c31 0 61 -6 74 -11z" />
    <glyph glyph-name="approxequal" unicode="&#x2248;" horiz-adv-x="610" 
d="M508 489l69 -69c-49 -75 -111 -112 -164 -112c-48 0 -77 13 -122 39c-29 17 -53 33 -89 33c-46 0 -76 -34 -107 -71l-67 69c33 57 105 111 177 111c52 0 83 -15 112 -33c43 -28 60 -39 90 -39c39 0 69 29 101 72zM508 275l69 -68c-48 -74 -109 -113 -166 -113
c-46 0 -79 15 -120 40c-32 19 -55 33 -88 33c-48 0 -77 -34 -108 -72l-67 69c33 57 106 111 178 111c50 0 82 -16 110 -32c31 -19 55 -40 90 -40c41 0 67 28 102 72z" />
    <glyph glyph-name="notequal" unicode="&#x2260;" horiz-adv-x="610" 
d="M463 533l-34 -78h130v-107h-175l-54 -124h229v-107h-274l-52 -117l-86 37l36 80h-133v107h177l54 124h-231v107h276l50 115z" />
    <glyph glyph-name="lessequal" unicode="&#x2264;" horiz-adv-x="610" 
d="M558 127l-506 226v116l505 226v-120l-393 -163v-2l394 -164v-119zM560 -17h-509v110h509v-110z" />
    <glyph glyph-name="greaterequal" unicode="&#x2265;" horiz-adv-x="610" 
d="M54 695l505 -227v-115l-505 -226v119l394 165v2l-394 162v120zM555 -17h-503v110h503v-110z" />
    <glyph glyph-name="lozenge" unicode="&#x25ca;" horiz-adv-x="706" 
d="M659 351l-231 -401h-156l-225 401l229 402h156zM484 347l-111 210c-7 15 -16 36 -19 51h-4c-4 -15 -12 -36 -19 -51l-110 -203l112 -212c7 -15 15 -37 18 -48h4c4 12 13 37 18 47z" />
    <glyph glyph-name="uni00A0" unicode="&#xa0;" horiz-adv-x="334" 
 />
    <glyph glyph-name="uni00AD" unicode="&#xad;" horiz-adv-x="389" 
d="M22 204v184h345v-184h-345z" />
    <glyph glyph-name="uni02C9" unicode="&#x2c9;" horiz-adv-x="278" 
d="M-28 602v90h334v-90h-334z" />
    <glyph glyph-name="uni03A9" unicode="&#x3a9;" horiz-adv-x="845" 
d="M184 154v4c-61 43 -135 126 -135 248c0 163 141 310 374 310c240 0 370 -155 370 -308c0 -118 -63 -195 -138 -250v-4h152v-154h-354v118c75 47 130 112 130 250c0 113 -62 193 -159 193c-91 0 -163 -74 -163 -199c0 -120 52 -206 130 -244v-118h-356v154h149z" />
    <glyph glyph-name="uni2215" unicode="&#x2215;" horiz-adv-x="167" 
d="M-146 0l396 726l63 -34l-396 -726z" />
    </font>
</defs>
</svg>
