<?xml version="1.0" standalone="no"?>
<!DOCTYPE svg PUBLIC "-//W3C//DTD SVG 1.1//EN" "http://www.w3.org/Graphics/SVG/1.1/DTD/svg11.dtd" >
<svg>
<metadata>
Created by FontForge 20120731 at Wed Sep 18 14:58:15 2019
 By www-data
 The digitally encoded machine readable software for producing the
 Typefaces licensed to you is copyrighted (c) 1989, 1990, 2002 Adobe Systems.
 All Rights Reserved. This software is the property of Adobe Systems
 Incorporated and its licensors, and may not be reproduced, used,
 displayed, modified, disclosed or transferred without the express
 written approval of Adobe.
 
 The digitally encoded machine readable outline data for producing the Typefaces 
 provided as part of your laser printer is copyrighted (c) 1981, 2002 Heidelberger Druckmaschinen AG. 
 All rights reserved. This data is the property of Heidelberger Druckmaschinen AG, 
 and may not be reproduced, used, displayed, modified, disclosed or transferred 
 without the express written approval of Heidelberger Druckmaschinen AG. 
</metadata>
<defs>
<font id="SyntaxLTStd-Bold" horiz-adv-x="556" >
  <font-face 
    font-family="Syntax LT Std"
    font-weight="700"
    font-stretch="normal"
    units-per-em="1000"
    panose-1="2 13 7 2 3 5 3 2 2 4"
    ascent="750"
    descent="-250"
    x-height="504"
    cap-height="692"
    bbox="-166 -242 1008 918"
    underline-thickness="50"
    underline-position="-50"
    stemh="78"
    stemv="122"
    unicode-range="U+0020-FB02"
  />
<missing-glyph horiz-adv-x="500" 
d="M0 0v700h500v-700h-500zM250 395l170 255h-340zM280 350l170 -255v510zM80 50h340l-170 255zM50 605v-510l170 255z" />
    <glyph glyph-name="fi" unicode="fi" horiz-adv-x="611" 
d="M413 574l1 118h122l-1 -118h-122zM100 0l2 412h-80v92h80v65c0 109 66 189 190 189h39v-98h-28c-45 0 -77 -24 -77 -87v-69h309l-5 -504h-122l5 412h-190v-412h-123z" />
    <glyph glyph-name="fl" unicode="fl" horiz-adv-x="611" 
d="M100 0l2 412h-80v92h80v65c0 109 66 189 190 189h39v-98h-28c-45 0 -77 -24 -77 -87v-69h104v-92h-107v-412h-123zM408 0l6 750h122l-6 -750h-122z" />
    <glyph glyph-name=".notdef" horiz-adv-x="500" 
d="M0 0v700h500v-700h-500zM250 395l170 255h-340zM280 350l170 -255v510zM80 50h340l-170 255zM50 605v-510l170 255z" />
    <glyph glyph-name="space" unicode=" " horiz-adv-x="278" 
 />
    <glyph glyph-name="exclam" unicode="!" horiz-adv-x="332" 
d="M103 0v124h122v-124h-122zM103 195l3 497h122l-3 -497h-122z" />
    <glyph glyph-name="quotedbl" unicode="&#x22;" horiz-adv-x="333" 
d="M198 438v254h104v-254h-104zM31 438v254h104v-254h-104z" />
    <glyph glyph-name="numbersign" unicode="#" 
d="M325 282l17 118h-103l-17 -118h103zM134 282l17 118h-88v86h100l28 196h89l-28 -196h102l28 196h89l-28 -196h80v-86h-92l-17 -118h79v-86h-92l-28 -196h-88l28 196h-103l-28 -196h-88l28 196h-89v86h101z" />
    <glyph glyph-name="dollar" unicode="$" 
d="M304 265l-2 -158c37 17 53 48 53 83s-18 57 -51 75zM250 428v164c-33 -14 -57 -42 -57 -83c0 -38 23 -62 57 -81zM244 -102l1 89c-64 1 -124 20 -179 52l50 99c32 -22 84 -47 122 -47l8 1l2 201c-81 35 -183 70 -183 212c0 101 73 181 187 198l1 71h56l-1 -69
c65 -2 128 -25 183 -57l-54 -93c-42 23 -81 46 -130 46l-2 -202c81 -37 178 -76 178 -204c0 -104 -74 -187 -182 -205l-1 -92h-56z" />
    <glyph glyph-name="percent" unicode="%" horiz-adv-x="1000" 
d="M340 524c0 55 -28 90 -70 90s-70 -35 -70 -90s28 -90 70 -90s70 35 70 90zM102 524c0 92 75 168 168 168c92 0 168 -76 168 -168s-76 -168 -168 -168c-93 0 -168 76 -168 168zM562 154c0 92 75 168 168 168c92 0 168 -76 168 -168s-76 -168 -168 -168
c-93 0 -168 76 -168 168zM800 154c0 55 -28 90 -70 90s-70 -35 -70 -90s28 -90 70 -90s70 35 70 90zM251 0l444 711l55 -33l-443 -709z" />
    <glyph glyph-name="ampersand" unicode="&#x26;" horiz-adv-x="722" 
d="M605 -22l-80 89c-60 -55 -124 -81 -209 -81c-204 0 -244 156 -244 213c0 96 68 172 141 219c-33 41 -56 81 -56 137c0 95 74 151 163 151c81 0 152 -54 152 -141c0 -71 -46 -120 -106 -160l143 -156c13 46 16 95 18 143h110c1 -79 -11 -158 -46 -230l98 -110zM452 147
l-175 196c-40 -32 -77 -72 -77 -125c0 -76 55 -128 126 -128c41 0 89 17 126 57zM319 614c-37 0 -58 -19 -58 -56c0 -20 12 -47 44 -82c38 28 63 58 63 86c0 30 -20 52 -49 52z" />
    <glyph glyph-name="quoteright" unicode="&#x2019;" horiz-adv-x="278" 
d="M79 438l6 254h148l-89 -254h-65z" />
    <glyph glyph-name="parenleft" unicode="(" horiz-adv-x="333" 
d="M293 -60l-83 -69c-100 114 -179 259 -179 414c0 178 72 319 192 446l79 -68c-100 -111 -155 -220 -155 -372c0 -136 59 -250 146 -351z" />
    <glyph glyph-name="parenright" unicode=")" horiz-adv-x="333" 
d="M110 -129l-79 68c100 111 155 220 155 372c0 136 -59 250 -146 351l83 69c100 -114 179 -259 179 -414c0 -178 -72 -319 -192 -446z" />
    <glyph glyph-name="asterisk" unicode="*" 
d="M223 354l-68 40l73 103l-124 -12v79l124 -14l-78 101l77 41l51 -115l56 115l70 -41l-80 -101l128 14v-79l-128 12l80 -103l-74 -40l-50 120z" />
    <glyph glyph-name="plus" unicode="+" horiz-adv-x="600" 
d="M248 0v201h-201v104h201v201h104v-201h201v-104h-201v-201h-104z" />
    <glyph glyph-name="comma" unicode="," horiz-adv-x="278" 
d="M66 -120l6 254h148l-89 -254h-65z" />
    <glyph glyph-name="hyphen" unicode="-" horiz-adv-x="389" 
d="M63 198v110h263v-110h-263z" />
    <glyph glyph-name="period" unicode="." horiz-adv-x="278" 
d="M72 0v134h134v-134h-134z" />
    <glyph glyph-name="slash" unicode="/" horiz-adv-x="444" 
d="M122 -30l-91 30l292 721l90 -29z" />
    <glyph glyph-name="zero" unicode="0" 
d="M520 339c0 -169 -52 -353 -242 -353s-242 184 -242 353s52 353 242 353s242 -184 242 -353zM392 339c0 169 -36 255 -114 255s-114 -86 -114 -255s36 -255 114 -255s114 86 114 255z" />
    <glyph glyph-name="one" unicode="1" 
d="M268 0l6 539l-158 -144l-75 78l239 209h116l-6 -682h-122z" />
    <glyph glyph-name="two" unicode="2" 
d="M37 0l-28 80c292 242 329 297 329 383c0 77 -52 125 -125 125c-42 0 -77 -15 -136 -66l-67 78c69 62 130 92 223 92c138 0 239 -85 239 -223c0 -135 -108 -239 -272 -363v-2h271v-104h-434z" />
    <glyph glyph-name="three" unicode="3" 
d="M28 52l59 83c40 -28 86 -45 136 -45c63 0 134 30 134 105c0 59 -55 94 -131 96l-98 2v103h65c145 0 165 56 165 100c0 61 -54 92 -110 92c-54 0 -108 -20 -151 -51l-58 82c72 52 135 73 224 73c105 0 217 -58 217 -176c0 -85 -35 -144 -120 -164v-2
c82 -12 125 -77 125 -157c0 -79 -44 -207 -261 -207c-75 0 -145 27 -196 66z" />
    <glyph glyph-name="four" unicode="4" 
d="M316 0l1 153h-283l-34 92l316 437h128l-4 -425h64v-104h-65l-1 -153h-122zM318 257l4 279l-2 2l-190 -281h188z" />
    <glyph glyph-name="five" unicode="5" 
d="M33 18l37 93c43 -21 90 -27 129 -27c86 0 177 52 177 157c0 78 -55 117 -129 117c-47 0 -91 -30 -106 -76l-102 18l78 382h368v-104h-276l-35 -150l2 -2c30 25 67 36 118 36c115 0 210 -83 210 -211c0 -149 -113 -265 -303 -265c-60 0 -117 5 -168 32z" />
    <glyph glyph-name="six" unicode="6" 
d="M520 688l-11 -99c-26 5 -49 5 -70 5c-182 0 -269 -138 -281 -259l2 -2c34 47 90 80 163 80c110 0 199 -78 199 -205c0 -71 -38 -222 -242 -222c-133 0 -244 102 -244 308c0 174 113 398 405 398c40 0 59 -2 79 -4zM293 309c-51 0 -93 -28 -131 -89
c0 -14 20 -130 130 -130c66 0 108 52 108 112c0 63 -43 107 -107 107z" />
    <glyph glyph-name="seven" unicode="7" 
d="M72 35l301 537h-339v110h450l32 -80l-333 -616z" />
    <glyph glyph-name="eight" unicode="8" 
d="M163 183c0 -63 57 -93 114 -93c55 0 110 33 110 92c0 50 -20 71 -113 113c-44 -19 -111 -56 -111 -112zM179 509c0 -56 56 -87 101 -107c47 20 102 51 102 108c0 55 -52 78 -104 78c-50 0 -99 -25 -99 -79zM57 507c0 126 111 185 229 185c115 0 218 -59 218 -178
c0 -87 -52 -127 -117 -163c82 -33 128 -86 128 -164c0 -120 -95 -201 -245 -201c-109 0 -229 47 -229 201c0 80 58 132 132 160c-68 25 -116 75 -116 160z" />
    <glyph glyph-name="nine" unicode="9" 
d="M36 -10l11 99c26 -5 49 -5 70 -5c182 0 269 138 281 259l-2 2c-34 -47 -91 -80 -150 -80c-123 0 -212 78 -212 205c0 71 38 222 242 222c133 0 244 -102 244 -308c0 -174 -113 -398 -405 -398c-40 0 -59 2 -79 4zM263 369c51 0 93 28 131 89c0 14 -20 130 -130 130
c-66 0 -108 -52 -108 -112c0 -63 43 -107 107 -107z" />
    <glyph glyph-name="colon" unicode=":" horiz-adv-x="278" 
d="M72 0v134h134v-134h-134zM72 358v134h134v-134h-134z" />
    <glyph glyph-name="semicolon" unicode=";" horiz-adv-x="278" 
d="M66 -120l6 254h148l-89 -254h-65zM72 358v134h134v-134h-134z" />
    <glyph glyph-name="less" unicode="&#x3c;" horiz-adv-x="600" 
d="M47 210v86l506 218v-102l-372 -159l372 -159v-102z" />
    <glyph glyph-name="equal" unicode="=" horiz-adv-x="600" 
d="M47 310v104h506v-104h-506zM47 92v104h506v-104h-506z" />
    <glyph glyph-name="greater" unicode="&#x3e;" horiz-adv-x="600" 
d="M47 -8v102l372 159l-372 159v102l506 -218v-86z" />
    <glyph glyph-name="question" unicode="?" horiz-adv-x="500" 
d="M150 193v35c0 173 184 175 184 290c0 54 -59 90 -109 90c-47 0 -97 -25 -133 -54l-59 77c60 48 120 75 197 75c114 0 226 -65 226 -191c0 -174 -190 -158 -190 -304v-18h-116zM146 0v124h122v-124h-122z" />
    <glyph glyph-name="at" unicode="@" horiz-adv-x="800" 
d="M311 321c0 -46 26 -76 68 -76c61 0 103 61 103 120c0 41 -29 69 -70 69c-59 0 -101 -60 -101 -113zM47 346c0 204 167 360 369 360c226 0 337 -136 337 -292c0 -144 -125 -255 -245 -255c-35 0 -58 16 -59 46h-2c-22 -24 -57 -46 -90 -46c-74 0 -138 68 -138 147
c0 108 72 214 184 214c42 0 78 -18 103 -58l11 46h75l-49 -218c-3 -9 -7 -23 -7 -34s4 -19 22 -19c56 0 117 85 117 179c0 128 -113 212 -261 212c-163 0 -269 -122 -269 -284c0 -169 118 -280 283 -280c79 0 150 28 201 75h85c-67 -97 -172 -153 -292 -153
c-207 0 -375 152 -375 360z" />
    <glyph glyph-name="A" unicode="A" horiz-adv-x="667" 
d="M215 184l-78 -198l-119 36l266 670h118l247 -670l-125 -36l-68 198h-241zM421 288l-80 270h-2l-87 -270h169z" />
    <glyph glyph-name="B" unicode="B" horiz-adv-x="611" 
d="M76 0l7 692h236c132 0 216 -74 216 -178c0 -94 -53 -154 -121 -162v-2c84 -13 133 -78 133 -162c0 -115 -88 -188 -219 -188h-252zM206 98h87c83 -1 126 37 126 96c0 70 -45 106 -139 106h-71zM210 398h75c67 0 128 30 128 100c0 63 -45 96 -121 96h-81z" />
    <glyph glyph-name="C" unicode="C" horiz-adv-x="667" 
d="M600 141l51 -88c-64 -45 -142 -67 -220 -67c-206 0 -359 151 -359 358c0 213 148 362 354 362c82 0 163 -27 226 -80l-56 -89c-42 36 -111 59 -166 59c-135 0 -224 -108 -224 -246c0 -132 91 -254 220 -254c88 0 132 21 174 45z" />
    <glyph glyph-name="D" unicode="D" horiz-adv-x="722" 
d="M76 0l6 692h228c218 0 363 -136 363 -342c0 -210 -175 -350 -359 -350h-238zM205 110h83c150 0 251 87 251 241c0 131 -89 231 -225 231h-105z" />
    <glyph glyph-name="E" unicode="E" horiz-adv-x="500" 
d="M76 0l7 692h370v-110h-242l-2 -178h240v-104h-241l-1 -190h246v-110h-377z" />
    <glyph glyph-name="F" unicode="F" horiz-adv-x="500" 
d="M76 0l7 692h383l-1 -110h-254l-1 -178h252l-1 -110h-253l-1 -294h-131z" />
    <glyph glyph-name="G" unicode="G" horiz-adv-x="722" 
d="M523 108l5 243h134l-5 -315c-76 -30 -156 -50 -232 -50c-210 0 -371 150 -371 360c0 202 165 360 371 360c89 0 166 -19 224 -51l-47 -96c-52 25 -107 43 -177 43c-116 0 -237 -95 -237 -256c0 -151 94 -256 237 -256c37 0 71 7 98 18z" />
    <glyph glyph-name="H" unicode="H" horiz-adv-x="722" 
d="M76 0l6 692h129l-2 -282h305l2 282h130l-6 -692h-130l4 300h-305l-4 -300h-129z" />
    <glyph glyph-name="I" unicode="I" horiz-adv-x="278" 
d="M72 0l6 692h128l-6 -692h-128z" />
    <glyph glyph-name="J" unicode="J" horiz-adv-x="389" 
d="M-25 -8l8 102c12 -2 24 -4 38 -4c70 0 122 29 123 141l4 461h128l-4 -488c-1 -128 -90 -218 -232 -218c-22 0 -44 3 -65 6z" />
    <glyph glyph-name="K" unicode="K" horiz-adv-x="611" 
d="M76 0l5 692h128l-2 -323h5l283 337l95 -76l-247 -273l244 -297l-104 -74l-274 348h-2l-3 -334h-128z" />
    <glyph glyph-name="L" unicode="L" horiz-adv-x="500" 
d="M83 0l6 692h128l-6 -582h271v-110h-399z" />
    <glyph glyph-name="M" unicode="M" horiz-adv-x="944" 
d="M48 0l122 692h131l168 -553h2l192 553h131l102 -692l-130 -14l-52 546h-2l-176 -532h-132l-159 532h-2l-72 -546z" />
    <glyph glyph-name="N" unicode="N" horiz-adv-x="722" 
d="M76 0l6 670l119 36l323 -530h2l-8 516h128l-6 -670l-129 -36l-315 527l-2 -2l10 -511h-128z" />
    <glyph glyph-name="O" unicode="O" horiz-adv-x="832" 
d="M179 346c0 -151 94 -256 237 -256s237 119 237 256c0 147 -94 256 -237 256c-116 0 -237 -95 -237 -256zM45 346c0 202 165 360 371 360c224 0 371 -158 371 -360s-161 -360 -371 -360s-371 150 -371 360z" />
    <glyph glyph-name="P" unicode="P" 
d="M76 0l7 692h195c181 0 253 -82 253 -211c0 -142 -118 -210 -252 -210h-71l-1 -271h-131zM210 375h65c69 0 122 42 122 107c0 42 -24 106 -117 106h-68z" />
    <glyph glyph-name="Q" unicode="Q" horiz-adv-x="832" 
d="M740 -96l-188 104c-48 -16 -98 -22 -136 -22c-210 0 -371 150 -371 360c0 202 165 360 371 360c224 0 371 -158 371 -360c0 -106 -43 -200 -128 -278l147 -74zM179 346c0 -151 94 -256 237 -256s237 120 237 256c0 147 -94 256 -237 256c-116 0 -237 -95 -237 -256z" />
    <glyph glyph-name="R" unicode="R" horiz-adv-x="611" 
d="M76 0l7 692h219c167 0 235 -90 235 -200c0 -88 -53 -151 -134 -180l197 -258l-114 -68l-192 267c-12 17 -27 24 -46 24h-40l-1 -277h-131zM210 381h79c38 0 114 17 114 107c0 66 -52 100 -117 100h-74z" />
    <glyph glyph-name="S" unicode="S" horiz-adv-x="500" 
d="M38 39l50 98c32 -22 84 -47 122 -47c71 0 111 45 111 100c-1 138 -284 79 -284 315c0 113 92 201 231 201c69 0 136 -24 195 -58l-54 -92c-42 23 -81 46 -131 46c-58 0 -113 -31 -113 -93c0 -136 290 -93 290 -314c0 -118 -95 -209 -229 -209c-67 0 -130 19 -188 53z" />
    <glyph glyph-name="T" unicode="T" 
d="M210 0l5 582h-194l1 110h513l-1 -110h-191l-5 -582h-128z" />
    <glyph glyph-name="U" unicode="U" horiz-adv-x="722" 
d="M646 692l-4 -442c-2 -170 -120 -264 -285 -264c-164 0 -279 92 -279 271c0 145 3 290 4 435h128c-1 -147 -4 -295 -4 -442c0 -97 68 -154 153 -154c101 0 154 67 155 161l4 435h128z" />
    <glyph glyph-name="V" unicode="V" horiz-adv-x="667" 
d="M265 0l-247 665l129 41l177 -544h2l199 544l124 -41l-264 -665h-120z" />
    <glyph glyph-name="W" unicode="W" horiz-adv-x="1000" 
d="M209 0l-191 674l128 32l130 -550h2l156 536h135l136 -536h2l151 550l124 -33l-213 -673h-136l-135 541h-2l-153 -541h-134z" />
    <glyph glyph-name="X" unicode="X" horiz-adv-x="611" 
d="M132 -14l-111 60l213 306l-201 290l117 64l162 -257l165 257l111 -64l-204 -292l206 -304l-116 -60l-166 265z" />
    <glyph glyph-name="Y" unicode="Y" horiz-adv-x="611" 
d="M231 0l4 287l-229 353l117 66l181 -296l188 296l113 -65l-236 -350l-4 -291h-134z" />
    <glyph glyph-name="Z" unicode="Z" 
d="M71 0l-40 82l331 500h-315v110h438l40 -92l-325 -490h309v-110h-438z" />
    <glyph glyph-name="bracketleft" unicode="[" horiz-adv-x="333" 
d="M87 -114l8 820h226l-1 -86h-115l-8 -648h116l-1 -86h-225z" />
    <glyph glyph-name="backslash" unicode="\" horiz-adv-x="444" 
d="M413 0l-91 -30l-291 722l90 29z" />
    <glyph glyph-name="bracketright" unicode="]" horiz-adv-x="333" 
d="M12 -114l1 86h115l8 648h-116l1 86h225l-8 -820h-226z" />
    <glyph glyph-name="asciicircum" unicode="^" horiz-adv-x="600" 
d="M66 297l187 385h94l187 -385h-104l-130 281l-130 -281h-104z" />
    <glyph glyph-name="underscore" unicode="_" horiz-adv-x="500" 
d="M0 -125v50h500v-50h-500z" />
    <glyph glyph-name="quoteleft" unicode="&#x2018;" horiz-adv-x="278" 
d="M45 438l89 254h65l-6 -254h-148z" />
    <glyph glyph-name="a" unicode="a" horiz-adv-x="500" 
d="M112 351l-58 65c110 90 166 102 220 102c75 0 144 -47 144 -145c0 -18 0 -29 -1 -42l-4 -145c-1 -23 -2 -42 -2 -63c0 -28 14 -48 27 -48c6 0 15 3 36 13l29 -61c-53 -35 -82 -41 -105 -41c-43 0 -78 25 -87 67c-36 -42 -81 -67 -129 -67c-90 0 -151 57 -151 147
c0 81 52 151 270 187v33c0 56 -24 67 -58 67c-25 0 -55 -10 -131 -69zM298 125l2 117c-116 -26 -153 -54 -153 -105c0 -37 26 -59 64 -59c25 0 58 16 87 47z" />
    <glyph glyph-name="b" unicode="b" 
d="M183 348l-1 -219c13 -19 47 -39 81 -39c90 0 134 86 134 165c0 77 -34 159 -113 159c-46 0 -75 -26 -101 -66zM61 0l4 750h122l-4 -307l2 -2c22 49 69 77 131 77c124 0 203 -115 203 -252c0 -128 -81 -280 -223 -280c-48 0 -93 16 -116 58h-2v-44h-117z" />
    <glyph glyph-name="c" unicode="c" horiz-adv-x="444" 
d="M376 146l68 -64c-49 -60 -108 -96 -188 -96c-144 0 -219 136 -219 258c0 139 87 274 237 274c74 0 131 -35 176 -85l-69 -67c-31 25 -59 48 -102 48c-76 0 -114 -82 -114 -159c0 -106 47 -165 108 -165c45 0 75 27 103 56z" />
    <glyph glyph-name="d" unicode="d" 
d="M375 0v55h-2c-25 -38 -74 -67 -125 -67c-123 0 -211 107 -211 257c0 136 78 271 219 271c39 0 84 -12 112 -48h2l3 282h122l-3 -750h-117zM368 171v195c-15 21 -43 46 -85 46c-66 0 -124 -63 -124 -161c0 -93 51 -159 121 -159c38 0 81 36 88 79z" />
    <glyph glyph-name="e" unicode="e" horiz-adv-x="500" 
d="M475 237h-316c1 -69 32 -153 116 -153c48 0 86 32 117 65l70 -64c-53 -59 -123 -99 -205 -99c-128 0 -220 106 -220 264c0 134 83 268 230 268c142 0 208 -105 208 -281zM165 323h194c-3 54 -28 109 -92 109c-55 0 -97 -59 -102 -109z" />
    <glyph glyph-name="f" unicode="f" horiz-adv-x="333" 
d="M100 0l2 412h-80v92h80v65c0 109 66 189 190 189h39v-98h-28c-45 0 -77 -24 -77 -87v-69h104v-92h-107v-412h-123z" />
    <glyph glyph-name="g" unicode="g" 
d="M549 421l-99 3c19 -21 29 -48 29 -77c0 -104 -90 -163 -186 -163c-41 0 -73 7 -92 13c-19 -14 -44 -28 -44 -46c0 -22 31 -26 144 -36s232 -25 232 -150c0 -138 -148 -207 -275 -207c-161 0 -228 75 -228 148s55 105 108 132v2c-46 10 -108 21 -108 70
c0 44 34 66 118 119c-48 26 -69 69 -69 118c0 108 91 171 195 171c57 0 82 -10 112 -22l163 3v-78zM134 -77c0 -65 81 -87 134 -87c87 0 149 54 149 106c0 53 -20 59 -195 80c-39 -24 -88 -51 -88 -99zM284 440c-56 0 -89 -38 -89 -93c0 -44 28 -85 86 -85c55 0 82 37 82 90
c0 48 -30 88 -79 88z" />
    <glyph glyph-name="h" unicode="h" 
d="M66 0l5 750h122l-2 -307h2c39 44 96 75 163 75c106 0 134 -74 134 -152c0 -50 -1 -81 -1 -113l-3 -253h-122l1 126c1 78 2 174 2 214c0 39 -15 68 -66 68c-38 0 -80 -36 -111 -66l-2 -342h-122z" />
    <glyph glyph-name="i" unicode="i" horiz-adv-x="278" 
d="M75 0l5 504h122l-5 -504h-122zM80 574l1 118h122l-1 -118h-122z" />
    <glyph glyph-name="j" unicode="j" horiz-adv-x="278" 
d="M-3 -242v92c68 5 78 21 79 131l4 523h122l-4 -534c-1 -161 -35 -212 -201 -212zM80 574l1 118h122l-1 -118h-122z" />
    <glyph glyph-name="k" unicode="k" horiz-adv-x="500" 
d="M66 0l6 750h122l-6 -481h2l214 265l87 -73l-176 -198l176 -225l-100 -69l-201 278h-2v-247h-122z" />
    <glyph glyph-name="l" unicode="l" horiz-adv-x="278" 
d="M75 0l6 750h122l-6 -750h-122z" />
    <glyph glyph-name="m" unicode="m" horiz-adv-x="833" 
d="M67 0l2 504h121v-67l2 -2c31 48 88 83 150 83c59 0 107 -27 123 -86c38 52 101 86 165 86c113 0 136 -81 136 -145c0 -124 -1 -249 -1 -373h-122l1 198c0 52 1 121 1 148c0 38 -23 62 -61 62c-36 0 -83 -41 -104 -67l-4 -341h-121l1 198c0 52 1 121 1 148
c0 38 -23 62 -61 62c-36 0 -83 -41 -104 -67l-4 -341h-121z" />
    <glyph glyph-name="n" unicode="n" 
d="M66 0l5 504h120v-61h2c39 44 96 75 163 75c106 0 134 -74 134 -152c0 -50 -1 -81 -1 -113l-3 -253h-122l1 126c1 78 2 138 2 198c0 62 -15 84 -66 84c-38 0 -80 -36 -111 -66l-2 -342h-122z" />
    <glyph glyph-name="o" unicode="o" 
d="M37 252c0 133 93 266 241 266c160 0 241 -117 241 -266c0 -143 -89 -266 -241 -266c-164 0 -241 123 -241 266zM159 248c0 -61 28 -164 119 -164c88 0 119 94 119 164c0 105 -37 172 -119 172c-91 0 -119 -102 -119 -172z" />
    <glyph glyph-name="p" unicode="p" 
d="M56 -242l3 746h117v-53h2c25 38 74 67 127 67c126 0 214 -107 214 -259c0 -136 -78 -271 -222 -271c-41 0 -86 12 -114 48h-2l-3 -278h-122zM183 335v-197c17 -21 43 -46 87 -46c62 0 127 60 127 161c0 95 -51 161 -124 161c-51 0 -83 -36 -90 -79z" />
    <glyph glyph-name="q" unicode="q" 
d="M369 -242l4 303l-2 2c-22 -49 -69 -77 -131 -77c-124 0 -203 115 -203 252c0 128 81 280 223 280c48 0 93 -16 116 -58h2v44h117l-4 -746h-122zM373 156l1 219c-13 19 -47 39 -81 39c-90 0 -134 -86 -134 -165c0 -77 34 -159 113 -159c46 0 75 26 101 66z" />
    <glyph glyph-name="r" unicode="r" horiz-adv-x="333" 
d="M66 0l5 504h122v-92l1 -2c24 58 55 106 117 108c12 0 24 -2 36 -5l-20 -117c-10 2 -20 4 -29 4c-47 0 -81 -35 -106 -88l-3 -312h-123z" />
    <glyph glyph-name="s" unicode="s" horiz-adv-x="443" 
d="M40 34l45 86c39 -23 80 -42 126 -42c37 0 70 18 70 59c0 101 -235 23 -235 225c0 104 88 156 186 156c58 0 126 -17 171 -55l-52 -77c-29 22 -74 40 -111 40c-35 0 -78 -19 -78 -60c0 -96 241 -36 241 -219c0 -108 -92 -161 -190 -161c-61 0 -121 17 -173 48z" />
    <glyph glyph-name="t" unicode="t" horiz-adv-x="333" 
d="M305 102l35 -74l-41 -22c-32 -18 -61 -20 -76 -20c-84 0 -137 44 -137 151c0 23 0 77 1 121l3 154h-68v92l68 -2l4 180h122l-4 -180l112 2v-92h-112l-3 -148c-1 -50 -1 -96 -1 -133c0 -33 11 -53 41 -53c21 0 39 12 56 24z" />
    <glyph glyph-name="u" unicode="u" 
d="M491 504l-4 -504h-122v61h-2c-38 -44 -95 -75 -156 -75c-111 0 -140 73 -140 171c0 31 1 62 1 94l3 253h122l-1 -126c-1 -73 -2 -144 -2 -199c0 -59 15 -83 66 -83c38 0 80 36 111 66l2 342h122z" />
    <glyph glyph-name="v" unicode="v" horiz-adv-x="500" 
d="M180 0l-170 483l122 35l109 -366h2l131 366l116 -35l-194 -483h-116z" />
    <glyph glyph-name="w" unicode="w" horiz-adv-x="778" 
d="M167 0l-154 488l120 30l92 -369h2l99 355h129l93 -355h2l102 369l113 -37l-162 -481h-124l-89 369h-2l-98 -369h-123z" />
    <glyph glyph-name="x" unicode="x" horiz-adv-x="500" 
d="M16 42l165 210l-155 211l107 67l121 -192l125 192l101 -67l-156 -211l160 -210l-109 -63l-121 190l-135 -190z" />
    <glyph glyph-name="y" unicode="y" horiz-adv-x="500" 
d="M21 -242v98h18c19 0 74 2 105 67l36 77l-170 483l122 35l109 -366h2l131 366l116 -35l-218 -546c-47 -117 -98 -179 -228 -179h-23z" />
    <glyph glyph-name="z" unicode="z" horiz-adv-x="444" 
d="M61 0l-36 72l233 334h-221v98h345l37 -72l-235 -334h223v-98h-346z" />
    <glyph glyph-name="braceleft" unicode="{" horiz-adv-x="333" 
d="M13 253v86c34 0 95 24 95 91l1 141c1 91 79 135 124 135h88v-86h-55c-48 0 -54 -42 -54 -74l-1 -130c-1 -98 -70 -114 -100 -118v-4c30 -4 97 -20 97 -118c0 -43 -1 -87 -1 -130c0 -32 6 -74 54 -74h54v-86h-89c-45 0 -122 44 -122 135c0 47 2 94 2 141
c0 67 -60 91 -93 91z" />
    <glyph glyph-name="bar" unicode="|" horiz-adv-x="222" 
d="M59 -14v764h104v-764h-104z" />
    <glyph glyph-name="braceright" unicode="}" horiz-adv-x="333" 
d="M12 -114v86h54c48 0 54 42 54 74l1 130c1 98 70 114 101 118v4c-31 4 -98 20 -98 118c0 43 1 87 1 130c0 32 -6 74 -54 74h-53v86h88c45 0 122 -44 122 -135c0 -47 -2 -94 -2 -141c0 -67 60 -91 94 -91v-86c-35 0 -96 -24 -96 -91l-1 -141c-1 -91 -79 -135 -124 -135h-87
z" />
    <glyph glyph-name="asciitilde" unicode="~" horiz-adv-x="600" 
d="M105 165l-36 84c22 42 58 86 125 86c37 0 78 -17 115 -34c38 -17 73 -34 98 -34c40 0 65 37 88 72l36 -84c-30 -42 -63 -86 -125 -86c-40 0 -71 17 -104 34s-67 34 -113 34c-44 0 -68 -37 -84 -72z" />
    <glyph glyph-name="exclamdown" unicode="&#xa1;" horiz-adv-x="332" 
d="M229 504v-124h-122v124h122zM229 309l-3 -497h-122l3 497h122z" />
    <glyph glyph-name="cent" unicode="&#xa2;" 
d="M250 117l75 296l-6 1c-76 0 -114 -82 -114 -159c0 -66 18 -113 45 -138zM200 -82l21 82c-95 38 -144 146 -144 244c0 139 87 274 237 274c13 0 25 -1 37 -4l21 84l51 -12l-22 -86c34 -15 63 -39 89 -67l-69 -67c-15 12 -29 23 -45 33l-78 -307c5 -2 10 -2 15 -2
c45 0 75 27 103 56l68 -64c-49 -60 -108 -96 -188 -96c-8 0 -17 0 -24 2l-21 -81z" />
    <glyph glyph-name="sterling" unicode="&#xa3;" 
d="M36 318v78h108c6 172 90 296 276 296c45 0 71 -4 103 -10l-12 -94c-21 2 -42 6 -64 6c-133 0 -171 -77 -169 -198h216v-78h-219c-5 -74 -19 -181 -76 -212v-2h311v-104h-468v89c54 10 100 21 100 229h-106z" />
    <glyph glyph-name="fraction" unicode="&#x2044;" horiz-adv-x="167" 
d="M-166 0l444 711l55 -33l-443 -709z" />
    <glyph glyph-name="yen" unicode="&#xa5;" 
d="M207 174l1 62h-139v78h124l-185 326l117 66l152 -296l158 296l113 -65l-194 -327h127v-78h-139l-1 -62h138v-78h-139l-1 -96h-134l1 96h-139v78h140z" />
    <glyph glyph-name="florin" unicode="&#x192;" 
d="M110 339l15 92h94l23 120c21 113 90 153 183 153c21 0 41 -1 62 -5l-15 -95c-12 1 -23 2 -29 2c-59 0 -76 -26 -87 -89l-15 -86h94l-16 -92h-93l-71 -378c-21 -110 -89 -149 -184 -149c-19 0 -40 3 -57 7l17 93c9 -1 18 -2 26 -2c55 0 74 33 83 83l64 346h-94z" />
    <glyph glyph-name="section" unicode="&#xa7;" 
d="M165 309c0 -17 9 -41 32 -55c9 -5 69 -28 141 -47c23 11 53 40 53 67c0 54 -26 65 -175 107c-28 -14 -51 -39 -51 -72zM70 -63l51 85c37 -23 90 -44 134 -44c52 0 111 12 111 75c0 96 -311 46 -311 235c0 58 42 105 90 129c-43 24 -63 69 -63 119c0 111 115 170 213 170
c69 0 135 -22 191 -62l-51 -84c-52 33 -100 48 -140 48c-52 0 -97 -23 -97 -73c0 -102 303 -46 303 -234c0 -57 -34 -95 -86 -125c47 -23 67 -57 67 -114c0 -118 -115 -182 -213 -182c-80 0 -146 24 -199 57z" />
    <glyph glyph-name="currency" unicode="&#xa4;" 
d="M20 139l57 58c-31 36 -48 87 -48 142s15 111 48 144l-57 58l57 57l57 -56c33 28 90 46 146 46c53 0 107 -18 137 -45l58 57l61 -61l-56 -55c29 -32 45 -88 45 -143s-16 -109 -46 -146l55 -56l-55 -55l-57 58c-33 -32 -88 -50 -143 -50c-58 0 -112 17 -147 49l-56 -58z
M280 490c-84 0 -147 -67 -147 -151c0 -83 64 -149 146 -149s142 69 142 151c0 80 -60 149 -141 149z" />
    <glyph glyph-name="quotesingle" unicode="'" horiz-adv-x="222" 
d="M59 438v254h104v-254h-104z" />
    <glyph glyph-name="quotedblleft" unicode="&#x201c;" 
d="M86 438l89 254h65l-6 -254h-148zM276 438l89 254h65l-6 -254h-148z" />
    <glyph glyph-name="guillemotleft" unicode="&#xab;" 
d="M429 54l-170 199l163 199l56 -42l-103 -157l109 -160zM242 54l-170 199l163 199l55 -42l-103 -157l109 -160z" />
    <glyph glyph-name="guilsinglleft" unicode="&#x2039;" horiz-adv-x="333" 
d="M224 54l-170 199l163 199l56 -42l-103 -157l109 -160z" />
    <glyph glyph-name="guilsinglright" unicode="&#x203a;" horiz-adv-x="333" 
d="M109 54l-55 39l109 160l-103 157l56 42l163 -199z" />
    <glyph glyph-name="endash" unicode="&#x2013;" horiz-adv-x="500" 
d="M0 204v98h500v-98h-500z" />
    <glyph glyph-name="dagger" unicode="&#x2020;" 
d="M218 0l2 411h-179v98h179l1 183h116l-1 -183h179v-98h-179l-2 -411h-116z" />
    <glyph glyph-name="daggerdbl" unicode="&#x2021;" 
d="M218 0l1 158h-179v92h179l1 193h-178v92h178l1 157h116l-1 -157h180v-92h-180l-1 -193h180v-92h-180l-1 -158h-116z" />
    <glyph glyph-name="periodcentered" unicode="&#xb7;" horiz-adv-x="278" 
d="M66 282c0 40 33 73 73 73s73 -33 73 -73s-33 -73 -73 -73s-73 33 -73 73z" />
    <glyph glyph-name="paragraph" unicode="&#xb6;" horiz-adv-x="620" 
d="M221 -106v445c-139 0 -219 68 -219 173c0 138 101 180 240 180h293v-798h-104v712h-106v-712h-104z" />
    <glyph glyph-name="bullet" unicode="&#x2022;" horiz-adv-x="500" 
d="M425 346c0 -96 -78 -173 -175 -173s-175 76 -175 173c-1 96 77 173 175 173c97 0 175 -77 175 -173z" />
    <glyph glyph-name="quotesinglbase" unicode="&#x201a;" horiz-adv-x="278" 
d="M73 -120l6 254h148l-89 -254h-65z" />
    <glyph glyph-name="quotedblbase" unicode="&#x201e;" 
d="M310 -120l6 254h148l-89 -254h-65zM120 -120l6 254h148l-89 -254h-65z" />
    <glyph glyph-name="quotedblright" unicode="&#x201d;" 
d="M126 438l6 254h148l-89 -254h-65zM316 438l6 254h148l-89 -254h-65z" />
    <glyph glyph-name="guillemotright" unicode="&#xbb;" 
d="M314 54l-54 39l109 160l-103 157l55 42l163 -199zM126 54l-54 39l109 160l-103 157l55 42l163 -199z" />
    <glyph glyph-name="ellipsis" unicode="&#x2026;" horiz-adv-x="1000" 
d="M100 0v134h134v-134h-134zM433 0v134h134v-134h-134zM766 0v134h134v-134h-134z" />
    <glyph glyph-name="perthousand" unicode="&#x2030;" horiz-adv-x="1000" 
d="M230 524c0 55 -28 90 -70 90s-70 -35 -70 -90s28 -90 70 -90s70 35 70 90zM-8 524c0 92 75 168 168 168c92 0 168 -76 168 -168s-76 -168 -168 -168c-93 0 -168 76 -168 168zM307 154c0 92 75 168 168 168c92 0 168 -76 168 -168s-76 -168 -168 -168
c-93 0 -168 76 -168 168zM545 154c0 55 -28 90 -70 90s-70 -35 -70 -90s28 -90 70 -90s70 35 70 90zM672 154c0 92 75 168 168 168c92 0 168 -76 168 -168s-76 -168 -168 -168c-93 0 -168 76 -168 168zM910 154c0 55 -28 90 -70 90s-70 -35 -70 -90s28 -90 70 -90
s70 35 70 90zM68 0l444 711l55 -33l-443 -709z" />
    <glyph glyph-name="questiondown" unicode="&#xbf;" horiz-adv-x="500" 
d="M350 311v-35c0 -173 -184 -175 -184 -290c0 -54 59 -90 109 -90c47 0 97 25 133 54l59 -77c-60 -48 -120 -75 -197 -75c-114 0 -226 65 -226 191c0 174 190 158 190 304v18h116zM354 504v-124h-122v124h122z" />
    <glyph glyph-name="grave" unicode="`" horiz-adv-x="278" 
d="M130 574l-140 140h135l88 -140h-83z" />
    <glyph glyph-name="acute" unicode="&#xb4;" horiz-adv-x="278" 
d="M65 574l88 140h135l-140 -140h-83z" />
    <glyph glyph-name="circumflex" unicode="&#x2c6;" horiz-adv-x="278" 
d="M-26 568l109 146h111l110 -146h-91l-74 92l-74 -92h-91z" />
    <glyph glyph-name="tilde" unicode="&#x2dc;" horiz-adv-x="278" 
d="M18 577h-55c13 64 39 116 112 116c20 0 48 -10 73 -19c26 -9 52 -18 69 -18c25 0 37 23 43 45h55c-13 -64 -39 -116 -112 -116c-20 0 -48 10 -73 19c-26 9 -52 18 -69 18c-25 0 -37 -23 -43 -45z" />
    <glyph glyph-name="macron" unicode="&#xaf;" horiz-adv-x="278" 
d="M-6 603v66h290v-66h-290z" />
    <glyph glyph-name="breve" unicode="&#x2d8;" horiz-adv-x="278" 
d="M-22 714h57c13 -56 54 -75 108 -75c50 0 90 25 101 75h56c-7 -93 -75 -141 -165 -141c-93 0 -148 48 -157 141z" />
    <glyph glyph-name="dotaccent" unicode="&#x2d9;" horiz-adv-x="278" 
d="M84 582v110h110v-110h-110z" />
    <glyph glyph-name="dieresis" unicode="&#xa8;" horiz-adv-x="278" 
d="M173 582v110h110v-110h-110zM-5 582v110h110v-110h-110z" />
    <glyph glyph-name="ring" unicode="&#x2da;" horiz-adv-x="278" 
d="M139 552c-56 0 -103 48 -103 103c0 56 47 103 103 103c55 0 103 -47 103 -103c0 -55 -48 -103 -103 -103zM90 655c0 -27 22 -49 49 -49s49 22 49 49s-22 49 -49 49s-49 -22 -49 -49z" />
    <glyph glyph-name="cedilla" unicode="&#xb8;" horiz-adv-x="278" 
d="M39 -200l19 38c20 -7 42 -16 64 -16c27 0 61 7 61 43c0 28 -24 37 -49 37c-13 0 -27 -3 -36 -7l-22 17l56 88h49l-34 -58l2 -2c6 2 14 4 22 4c46 0 92 -24 92 -75c0 -67 -62 -95 -121 -95c-36 0 -71 12 -103 26z" />
    <glyph glyph-name="hungarumlaut" unicode="&#x2dd;" horiz-adv-x="278" 
d="M-35 574l88 140h135l-140 -140h-83zM167 574l88 140h135l-140 -140h-83z" />
    <glyph glyph-name="ogonek" unicode="&#x2db;" horiz-adv-x="278" 
d="M148 0h46c-44 -38 -81 -82 -81 -126c0 -38 22 -52 51 -52c16 0 28 2 39 5l6 -46c-16 -4 -35 -7 -62 -7c-54 0 -114 26 -114 94c0 57 64 104 115 132z" />
    <glyph glyph-name="caron" unicode="&#x2c7;" horiz-adv-x="278" 
d="M84 568l-110 146h91l74 -92l74 92h91l-109 -146h-111z" />
    <glyph glyph-name="emdash" unicode="&#x2014;" horiz-adv-x="1000" 
d="M0 204v98h1000v-98h-1000z" />
    <glyph glyph-name="AE" unicode="&#xc6;" horiz-adv-x="889" 
d="M443 300l4 294h-2l-164 -294h162zM441 0l2 196h-223l-115 -210l-111 52l380 654h440v-110h-238l-2 -178h232v-104h-232l-2 -190h242v-110h-373z" />
    <glyph glyph-name="ordfeminine" unicode="&#xaa;" horiz-adv-x="325" 
d="M73 586l-38 45c72 54 108 61 143 61c49 0 94 -28 94 -87c0 -11 0 -18 -1 -25l-3 -74c0 -14 -1 -26 -1 -38c0 -17 9 -29 18 -29c4 0 9 2 23 12l19 -50c-35 -21 -53 -24 -68 -24c-28 0 -54 15 -63 40c-20 -25 -47 -40 -78 -40c-58 0 -98 34 -98 88c0 44 34 86 164 108v14
c0 26 -10 33 -26 33s-36 -6 -85 -34zM179 469l4 57c-58 -15 -77 -32 -77 -61c0 -9 11 -22 31 -22c16 0 32 9 42 26z" />
    <glyph glyph-name="Lslash" unicode="&#x141;" horiz-adv-x="500" 
d="M83 0l2 262l-78 -42v95l79 42l3 335h128l-3 -266l147 79v-95l-148 -79l-2 -221h271v-110h-399z" />
    <glyph glyph-name="Oslash" unicode="&#xd8;" horiz-adv-x="832" 
d="M228 183l336 368c-39 33 -89 51 -148 51c-116 0 -237 -95 -237 -256c0 -65 17 -121 49 -163zM102 -41l-42 39l86 95c-63 64 -101 151 -101 253c0 202 165 360 371 360c90 0 168 -25 227 -68l87 95l43 -39l-86 -94c64 -65 100 -154 100 -254c0 -202 -161 -360 -371 -360
c-86 0 -164 25 -226 70zM604 508l-337 -368c38 -32 89 -50 149 -50c143 0 237 119 237 256c0 63 -17 119 -49 162z" />
    <glyph glyph-name="OE" unicode="&#x152;" horiz-adv-x="1000" 
d="M182 343c0 -127 65 -253 207 -253c135 0 208 131 208 254c0 159 -82 252 -196 252c-147 0 -219 -119 -219 -253zM594 0l1 88l-2 2c-53 -78 -143 -104 -207 -104c-210 0 -332 150 -332 368c0 202 152 352 328 352c88 0 167 -34 217 -105h2v91h345v-110h-222l-2 -178h220
v-104h-222l-2 -190h228v-110h-352z" />
    <glyph glyph-name="ordmasculine" unicode="&#xba;" horiz-adv-x="361" 
d="M181 692c104 0 156 -70 156 -158c0 -84 -57 -157 -156 -157c-107 0 -157 73 -157 157c0 78 61 158 157 158zM181 620c-52 0 -65 -54 -65 -88c0 -28 13 -83 65 -83c51 0 64 55 64 83c0 34 -13 88 -64 88z" />
    <glyph glyph-name="ae" unicode="&#xe6;" horiz-adv-x="778" 
d="M741 237h-328c1 -69 33 -153 118 -153c45 0 83 32 114 65l70 -64c-53 -59 -123 -99 -205 -99c-70 0 -117 25 -163 84c-49 -53 -113 -84 -172 -84c-82 0 -144 56 -144 140c0 137 166 176 273 189v36c0 44 -22 69 -55 69c-25 0 -55 -9 -135 -65l-54 68
c100 74 171 95 214 95c52 0 97 -22 116 -72c38 44 83 72 142 72c143 0 209 -105 209 -281zM303 234c-102 -14 -156 -52 -156 -101c0 -36 28 -61 61 -61c24 0 64 14 109 63c-10 32 -14 65 -14 99zM417 323h208c-1 60 -39 103 -93 103c-57 0 -92 -34 -115 -103z" />
    <glyph glyph-name="dotlessi" unicode="&#x131;" horiz-adv-x="278" 
d="M75 0l5 504h122l-5 -504h-122z" />
    <glyph glyph-name="lslash" unicode="&#x142;" horiz-adv-x="278" 
d="M67 0l3 308l-51 -36v87l52 37l2 354h122l-2 -268l50 36v-87l-51 -36l-3 -395h-122z" />
    <glyph glyph-name="oslash" unicode="&#xf8;" 
d="M174 166l183 222c-19 21 -45 32 -79 32c-91 0 -119 -102 -119 -172c0 -24 4 -55 15 -82zM383 341l-182 -221c17 -21 43 -36 77 -36c88 0 119 94 119 164c0 36 -4 67 -14 93zM28 -11l66 80c-39 48 -57 113 -57 183c0 133 93 266 241 266c61 0 111 -17 148 -46l63 76
l39 -32l-66 -80c38 -48 57 -112 57 -184c0 -143 -89 -266 -241 -266c-61 0 -111 17 -148 47l-63 -76z" />
    <glyph glyph-name="oe" unicode="&#x153;" horiz-adv-x="889" 
d="M852 236h-327c1 -68 32 -152 116 -152c48 0 86 32 117 65l70 -64c-53 -59 -123 -99 -205 -99c-64 1 -120 26 -164 92c-43 -58 -106 -92 -181 -92c-164 0 -241 123 -241 266c0 133 93 266 241 266c87 0 145 -29 194 -102c40 67 95 102 172 102c142 0 208 -105 208 -282z
M159 247c0 -61 28 -163 119 -163c93 0 131 92 131 170c0 73 -29 166 -131 166c-91 0 -119 -103 -119 -173zM532 322h204c-3 55 -23 104 -89 104c-64 0 -104 -45 -115 -104z" />
    <glyph glyph-name="germandbls" unicode="&#xdf;" 
d="M66 0l8 527c2 144 89 223 215 223c104 0 170 -66 170 -137c0 -88 -86 -150 -86 -183c0 -25 154 -114 154 -254c0 -126 -103 -190 -220 -190c-20 0 -41 2 -61 3l10 91c15 -1 30 -2 46 -2c55 0 109 32 109 92c0 86 -154 180 -154 243c0 53 86 119 86 182
c0 37 -25 63 -61 63c-64 0 -85 -58 -86 -131l-8 -527h-122z" />
    <glyph glyph-name="onesuperior" unicode="&#xb9;" horiz-adv-x="361" 
d="M165 277l5 313l-91 -86l-48 57l145 125h85l-3 -409h-93z" />
    <glyph glyph-name="logicalnot" unicode="&#xac;" horiz-adv-x="600" 
d="M449 108v202h-402v104h506v-306h-104z" />
    <glyph glyph-name="mu" unicode="&#xb5;" 
d="M65 -242l6 746h122l-1 -126c-1 -78 -2 -174 -2 -214c0 -39 15 -68 66 -68c38 0 80 36 111 66l2 342h122l-4 -504h-122v61h-2c-38 -44 -95 -75 -156 -75h-18l-2 -228h-122z" />
    <glyph glyph-name="trademark" unicode="&#x2122;" horiz-adv-x="1000" 
d="M432 277v415h143l99 -260l98 260h143v-415h-98v295h-2l-105 -295h-73l-105 295h-2v-295h-98zM129 277v337h-117v78h338v-78h-117v-337h-104z" />
    <glyph glyph-name="Eth" unicode="&#xd0;" horiz-adv-x="722" 
d="M76 0l3 318h-76v86h77l2 288h228c218 0 363 -136 363 -342c0 -210 -175 -350 -359 -350h-238zM205 110h83c150 0 251 87 251 241c0 131 -89 231 -225 231h-105l-2 -178h200v-86h-201z" />
    <glyph glyph-name="onehalf" unicode="&#xbd;" horiz-adv-x="834" 
d="M134 0l444 711l55 -33l-443 -709zM169 277l5 313l-91 -86l-48 57l145 125h85l-3 -409h-93zM478 0l-18 48c178 145 203 178 203 225c0 41 -34 70 -77 70c-21 0 -44 -9 -82 -35l-44 52c45 37 85 55 145 55c90 0 156 -51 156 -134c0 -81 -71 -143 -166 -207v-2h165v-72h-282
z" />
    <glyph glyph-name="plusminus" unicode="&#xb1;" horiz-adv-x="600" 
d="M248 374v132h104v-132h201v-104h-201v-133h-104v133h-201v104h201zM47 0v104h506v-104h-506z" />
    <glyph glyph-name="Thorn" unicode="&#xde;" 
d="M76 0l6 692h128l-1 -111h87c158 0 234 -82 234 -211c0 -142 -118 -210 -252 -210h-73l-1 -160h-128zM207 264h67c69 0 122 42 122 107c0 42 -24 106 -117 106h-70z" />
    <glyph glyph-name="onequarter" unicode="&#xbc;" horiz-adv-x="834" 
d="M616 0l1 88h-171l-22 59l205 262h83l-2 -249h41v-72h-42v-88h-93zM618 160l2 132l-2 2l-105 -134h105zM136 0l444 711l55 -33l-443 -709zM169 277l5 313l-91 -86l-48 57l145 125h85l-3 -409h-93z" />
    <glyph glyph-name="divide" unicode="&#xf7;" horiz-adv-x="600" 
d="M47 201v104h506v-104h-506zM216 460c0 46 38 84 84 84s84 -38 84 -84s-38 -84 -84 -84s-84 38 -84 84zM216 46c0 46 38 84 84 84s84 -38 84 -84s-38 -84 -84 -84s-84 38 -84 84z" />
    <glyph glyph-name="brokenbar" unicode="&#xa6;" horiz-adv-x="222" 
d="M59 -14v286h104v-286h-104zM59 464v286h104v-286h-104z" />
    <glyph glyph-name="degree" unicode="&#xb0;" horiz-adv-x="400" 
d="M200 406c-80 0 -143 63 -143 143s63 143 143 143s143 -63 143 -143s-63 -143 -143 -143zM117 549c0 -46 37 -83 83 -83s83 37 83 83s-37 83 -83 83s-83 -37 -83 -83z" />
    <glyph glyph-name="thorn" unicode="&#xfe;" 
d="M56 -242l3 992h117v-301h2c25 38 74 67 127 67c126 0 214 -107 214 -257c0 -136 -78 -271 -222 -271c-41 0 -86 12 -114 48h-2l-3 -278h-122zM183 333v-195c17 -21 43 -46 87 -46c62 0 127 60 127 161c0 93 -51 159 -124 159c-36 0 -83 -36 -90 -79z" />
    <glyph glyph-name="threequarters" unicode="&#xbe;" horiz-adv-x="834" 
d="M616 0l1 88h-171l-22 59l205 262h83l-2 -249h41v-72h-42v-88h-93zM618 160l2 132l-2 2l-105 -134h105zM180 0l444 711l55 -33l-443 -709zM111 448v72h35c89 0 102 32 102 51c0 30 -35 49 -66 49c-28 0 -63 -12 -91 -31l-38 59c47 32 88 44 146 44c68 0 141 -35 141 -105
c0 -50 -23 -86 -78 -98v-2c53 -6 81 -45 81 -94c0 -48 -28 -124 -169 -124c-49 0 -95 16 -128 39l39 60c26 -17 55 -27 81 -27c35 0 79 18 79 58c0 28 -34 49 -77 49h-57z" />
    <glyph glyph-name="twosuperior" unicode="&#xb2;" horiz-adv-x="361" 
d="M20 277l-18 48c178 145 203 178 203 225c0 41 -34 70 -77 70c-21 0 -44 -9 -82 -35l-44 52c45 37 85 55 145 55c90 0 156 -51 156 -134c0 -81 -71 -143 -166 -207v-2h165v-72h-282z" />
    <glyph glyph-name="registered" unicode="&#xae;" horiz-adv-x="800" 
d="M40 346c0 199 161 360 360 360s360 -161 360 -360s-161 -360 -360 -360s-360 161 -360 360zM126 346c0 -156 126 -282 274 -282s274 126 274 282s-126 282 -274 282s-274 -126 -274 -282zM255 147v399h151c102 0 160 -30 160 -119c0 -73 -44 -102 -106 -107l106 -173h-96
l-96 169h-33v-169h-86zM341 382h70c41 0 69 6 69 52c0 41 -44 46 -78 46h-61v-98z" />
    <glyph glyph-name="minus" unicode="&#x2212;" horiz-adv-x="600" 
d="M47 201v104h506v-104h-506z" />
    <glyph glyph-name="eth" unicode="&#xf0;" 
d="M159 247c0 -61 28 -163 119 -163c88 0 119 93 119 163c0 105 -37 173 -119 173c-91 0 -119 -103 -119 -173zM156 545l-37 55l106 61c-34 25 -70 42 -107 50l60 79c58 -13 109 -37 151 -69l120 69l40 -53l-108 -62c93 -98 138 -241 138 -381c0 -194 -85 -308 -241 -308
c-164 0 -241 122 -241 265c0 171 121 267 227 267c44 0 72 -10 96 -31h2c-15 46 -44 91 -82 129z" />
    <glyph glyph-name="multiply" unicode="&#xd7;" horiz-adv-x="600" 
d="M228 253l-162 162l72 72l162 -162l162 162l72 -72l-163 -162l163 -162l-72 -72l-162 163l-162 -163l-72 72z" />
    <glyph glyph-name="threesuperior" unicode="&#xb3;" horiz-adv-x="361" 
d="M79 448v72h35c89 0 102 32 102 51c0 30 -35 49 -66 49c-28 0 -63 -12 -91 -31l-38 59c47 32 88 44 146 44c68 0 141 -35 141 -105c0 -50 -23 -86 -78 -98v-2c53 -6 81 -45 81 -94c0 -48 -28 -124 -169 -124c-49 0 -95 16 -128 39l39 60c26 -17 55 -27 81 -27
c35 0 79 18 79 58c0 28 -34 49 -77 49h-57z" />
    <glyph glyph-name="copyright" unicode="&#xa9;" horiz-adv-x="800" 
d="M501 284h83c-15 -97 -89 -151 -175 -151c-124 0 -204 93 -204 212c0 121 76 212 202 212c89 0 160 -52 174 -149h-80c-9 47 -48 71 -94 71c-67 0 -104 -55 -104 -133c0 -75 42 -135 106 -135c50 0 87 26 92 73zM40 346c0 199 161 360 360 360s360 -161 360 -360
s-161 -360 -360 -360s-360 161 -360 360zM126 346c0 -156 126 -282 274 -282s274 126 274 282s-126 282 -274 282s-274 -126 -274 -282z" />
    <glyph glyph-name="Aacute" unicode="&#xc1;" horiz-adv-x="667" 
d="M215 184l-78 -198l-119 36l266 670h118l247 -670l-125 -36l-68 198h-241zM421 288l-80 270h-2l-87 -270h169zM260 750l88 140h135l-140 -140h-83z" />
    <glyph glyph-name="Acircumflex" unicode="&#xc2;" horiz-adv-x="667" 
d="M215 184l-78 -198l-119 36l266 670h118l247 -670l-125 -36l-68 198h-241zM421 288l-80 270h-2l-87 -270h169zM169 744l109 146h111l110 -146h-91l-74 92l-74 -92h-91z" />
    <glyph glyph-name="Adieresis" unicode="&#xc4;" horiz-adv-x="667" 
d="M215 184l-78 -198l-119 36l266 670h118l247 -670l-125 -36l-68 198h-241zM421 288l-80 270h-2l-87 -270h169zM368 758v110h110v-110h-110zM190 758v110h110v-110h-110z" />
    <glyph glyph-name="Agrave" unicode="&#xc0;" horiz-adv-x="667" 
d="M215 184l-78 -198l-119 36l266 670h118l247 -670l-125 -36l-68 198h-241zM421 288l-80 270h-2l-87 -270h169zM325 750l-140 140h135l88 -140h-83z" />
    <glyph glyph-name="Aring" unicode="&#xc5;" horiz-adv-x="667" 
d="M215 184l-78 -198l-119 36l266 670h118l247 -670l-125 -36l-68 198h-241zM421 288l-80 270h-2l-87 -270h169zM344 712c-56 0 -103 48 -103 103c0 56 47 103 103 103c55 0 103 -47 103 -103c0 -55 -48 -103 -103 -103zM295 815c0 -27 22 -49 49 -49s49 22 49 49
s-22 49 -49 49s-49 -22 -49 -49z" />
    <glyph glyph-name="Atilde" unicode="&#xc3;" horiz-adv-x="667" 
d="M215 184l-78 -198l-119 36l266 670h118l247 -670l-125 -36l-68 198h-241zM421 288l-80 270h-2l-87 -270h169zM213 753h-55c13 64 39 116 112 116c20 0 48 -10 73 -19c26 -9 52 -18 69 -18c25 0 37 23 43 45h55c-13 -64 -39 -116 -112 -116c-20 0 -48 10 -73 19
c-26 9 -52 18 -69 18c-25 0 -37 -23 -43 -45z" />
    <glyph glyph-name="Ccedilla" unicode="&#xc7;" horiz-adv-x="667" 
d="M600 141l51 -88c-64 -45 -142 -67 -220 -67h-3l-26 -44l2 -2c6 2 14 4 22 4c46 0 92 -24 92 -75c0 -67 -62 -95 -121 -95c-36 0 -71 12 -103 26l19 38c20 -7 42 -16 64 -16c27 0 61 7 61 43c0 28 -24 37 -49 37c-13 0 -27 -3 -36 -7l-22 17l49 77
c-180 23 -308 165 -308 355c0 213 148 362 354 362c82 0 163 -27 226 -80l-56 -89c-42 36 -111 59 -166 59c-135 0 -224 -108 -224 -246c0 -132 91 -254 220 -254c88 0 132 21 174 45z" />
    <glyph glyph-name="Eacute" unicode="&#xc9;" horiz-adv-x="500" 
d="M76 0l7 692h370v-110h-242l-2 -178h240v-104h-241l-1 -190h246v-110h-377zM176 750l88 140h135l-140 -140h-83z" />
    <glyph glyph-name="Ecircumflex" unicode="&#xca;" horiz-adv-x="500" 
d="M76 0l7 692h370v-110h-242l-2 -178h240v-104h-241l-1 -190h246v-110h-377zM85 744l109 146h111l110 -146h-91l-74 92l-74 -92h-91z" />
    <glyph glyph-name="Edieresis" unicode="&#xcb;" horiz-adv-x="500" 
d="M76 0l7 692h370v-110h-242l-2 -178h240v-104h-241l-1 -190h246v-110h-377zM284 758v110h110v-110h-110zM106 758v110h110v-110h-110z" />
    <glyph glyph-name="Egrave" unicode="&#xc8;" horiz-adv-x="500" 
d="M76 0l7 692h370v-110h-242l-2 -178h240v-104h-241l-1 -190h246v-110h-377zM241 750l-140 140h135l88 -140h-83z" />
    <glyph glyph-name="Iacute" unicode="&#xcd;" horiz-adv-x="278" 
d="M72 0l6 692h128l-6 -692h-128zM65 750l88 140h135l-140 -140h-83z" />
    <glyph glyph-name="Icircumflex" unicode="&#xce;" horiz-adv-x="278" 
d="M72 0l6 692h128l-6 -692h-128zM-26 744l109 146h111l110 -146h-91l-74 92l-74 -92h-91z" />
    <glyph glyph-name="Idieresis" unicode="&#xcf;" horiz-adv-x="278" 
d="M72 0l6 692h128l-6 -692h-128zM173 758v110h110v-110h-110zM-5 758v110h110v-110h-110z" />
    <glyph glyph-name="Igrave" unicode="&#xcc;" horiz-adv-x="278" 
d="M72 0l6 692h128l-6 -692h-128zM130 750l-140 140h135l88 -140h-83z" />
    <glyph glyph-name="Ntilde" unicode="&#xd1;" horiz-adv-x="722" 
d="M76 0l6 670l119 36l323 -530h2l-8 516h128l-6 -670l-129 -36l-315 527l-2 -2l10 -511h-128zM240 753h-55c13 64 39 116 112 116c20 0 48 -10 73 -19c26 -9 52 -18 69 -18c25 0 37 23 43 45h55c-13 -64 -39 -116 -112 -116c-20 0 -48 10 -73 19c-26 9 -52 18 -69 18
c-25 0 -37 -23 -43 -45z" />
    <glyph glyph-name="Oacute" unicode="&#xd3;" horiz-adv-x="832" 
d="M179 346c0 -151 94 -256 237 -256s237 119 237 256c0 147 -94 256 -237 256c-116 0 -237 -95 -237 -256zM45 346c0 202 165 360 371 360c224 0 371 -158 371 -360s-161 -360 -371 -360s-371 150 -371 360zM342 750l88 140h135l-140 -140h-83z" />
    <glyph glyph-name="Ocircumflex" unicode="&#xd4;" horiz-adv-x="832" 
d="M179 346c0 -151 94 -256 237 -256s237 119 237 256c0 147 -94 256 -237 256c-116 0 -237 -95 -237 -256zM45 346c0 202 165 360 371 360c224 0 371 -158 371 -360s-161 -360 -371 -360s-371 150 -371 360zM251 744l109 146h111l110 -146h-91l-74 92l-74 -92h-91z" />
    <glyph glyph-name="Odieresis" unicode="&#xd6;" horiz-adv-x="832" 
d="M179 346c0 -151 94 -256 237 -256s237 119 237 256c0 147 -94 256 -237 256c-116 0 -237 -95 -237 -256zM45 346c0 202 165 360 371 360c224 0 371 -158 371 -360s-161 -360 -371 -360s-371 150 -371 360zM450 758v110h110v-110h-110zM272 758v110h110v-110h-110z" />
    <glyph glyph-name="Ograve" unicode="&#xd2;" horiz-adv-x="832" 
d="M179 346c0 -151 94 -256 237 -256s237 119 237 256c0 147 -94 256 -237 256c-116 0 -237 -95 -237 -256zM45 346c0 202 165 360 371 360c224 0 371 -158 371 -360s-161 -360 -371 -360s-371 150 -371 360zM407 750l-140 140h135l88 -140h-83z" />
    <glyph glyph-name="Otilde" unicode="&#xd5;" horiz-adv-x="832" 
d="M179 346c0 -151 94 -256 237 -256s237 119 237 256c0 147 -94 256 -237 256c-116 0 -237 -95 -237 -256zM45 346c0 202 165 360 371 360c224 0 371 -158 371 -360s-161 -360 -371 -360s-371 150 -371 360zM295 753h-55c13 64 39 116 112 116c20 0 48 -10 73 -19
c26 -9 52 -18 69 -18c25 0 37 23 43 45h55c-13 -64 -39 -116 -112 -116c-20 0 -48 10 -73 19c-26 9 -52 18 -69 18c-25 0 -37 -23 -43 -45z" />
    <glyph glyph-name="Scaron" unicode="&#x160;" horiz-adv-x="500" 
d="M38 39l50 98c32 -22 84 -47 122 -47c71 0 111 45 111 100c-1 138 -284 79 -284 315c0 113 92 201 231 201c69 0 136 -24 195 -58l-54 -92c-42 23 -81 46 -131 46c-58 0 -113 -31 -113 -93c0 -136 290 -93 290 -314c0 -118 -95 -209 -229 -209c-67 0 -130 19 -188 53z
M195 744l-110 146h91l74 -92l74 92h91l-109 -146h-111z" />
    <glyph glyph-name="Uacute" unicode="&#xda;" horiz-adv-x="722" 
d="M646 692l-4 -442c-2 -170 -120 -264 -285 -264c-164 0 -279 92 -279 271c0 145 3 290 4 435h128c-1 -147 -4 -295 -4 -442c0 -97 68 -154 153 -154c101 0 154 67 155 161l4 435h128zM287 750l88 140h135l-140 -140h-83z" />
    <glyph glyph-name="Ucircumflex" unicode="&#xdb;" horiz-adv-x="722" 
d="M646 692l-4 -442c-2 -170 -120 -264 -285 -264c-164 0 -279 92 -279 271c0 145 3 290 4 435h128c-1 -147 -4 -295 -4 -442c0 -97 68 -154 153 -154c101 0 154 67 155 161l4 435h128zM196 744l109 146h111l110 -146h-91l-74 92l-74 -92h-91z" />
    <glyph glyph-name="Udieresis" unicode="&#xdc;" horiz-adv-x="722" 
d="M646 692l-4 -442c-2 -170 -120 -264 -285 -264c-164 0 -279 92 -279 271c0 145 3 290 4 435h128c-1 -147 -4 -295 -4 -442c0 -97 68 -154 153 -154c101 0 154 67 155 161l4 435h128zM395 758v110h110v-110h-110zM217 758v110h110v-110h-110z" />
    <glyph glyph-name="Ugrave" unicode="&#xd9;" horiz-adv-x="722" 
d="M646 692l-4 -442c-2 -170 -120 -264 -285 -264c-164 0 -279 92 -279 271c0 145 3 290 4 435h128c-1 -147 -4 -295 -4 -442c0 -97 68 -154 153 -154c101 0 154 67 155 161l4 435h128zM352 750l-140 140h135l88 -140h-83z" />
    <glyph glyph-name="Yacute" unicode="&#xdd;" horiz-adv-x="611" 
d="M231 0l4 287l-229 353l117 66l181 -296l188 296l113 -65l-236 -350l-4 -291h-134zM232 750l88 140h135l-140 -140h-83z" />
    <glyph glyph-name="Ydieresis" unicode="&#x178;" horiz-adv-x="611" 
d="M231 0l4 287l-229 353l117 66l181 -296l188 296l113 -65l-236 -350l-4 -291h-134zM340 758v110h110v-110h-110zM162 758v110h110v-110h-110z" />
    <glyph glyph-name="Zcaron" unicode="&#x17d;" 
d="M71 0l-40 82l331 500h-315v110h438l40 -92l-325 -490h309v-110h-438zM223 744l-110 146h91l74 -92l74 92h91l-109 -146h-111z" />
    <glyph glyph-name="aacute" unicode="&#xe1;" horiz-adv-x="500" 
d="M112 351l-58 65c110 90 166 102 220 102c75 0 144 -47 144 -145c0 -18 0 -29 -1 -42l-4 -145c-1 -23 -2 -42 -2 -63c0 -28 14 -48 27 -48c6 0 15 3 36 13l29 -61c-53 -35 -82 -41 -105 -41c-43 0 -78 25 -87 67c-36 -42 -81 -67 -129 -67c-90 0 -151 57 -151 147
c0 81 52 151 270 187v33c0 56 -24 67 -58 67c-25 0 -55 -10 -131 -69zM298 125l2 117c-116 -26 -153 -54 -153 -105c0 -37 26 -59 64 -59c25 0 58 16 87 47zM176 574l88 140h135l-140 -140h-83z" />
    <glyph glyph-name="acircumflex" unicode="&#xe2;" horiz-adv-x="500" 
d="M112 351l-58 65c110 90 166 102 220 102c75 0 144 -47 144 -145c0 -18 0 -29 -1 -42l-4 -145c-1 -23 -2 -42 -2 -63c0 -28 14 -48 27 -48c6 0 15 3 36 13l29 -61c-53 -35 -82 -41 -105 -41c-43 0 -78 25 -87 67c-36 -42 -81 -67 -129 -67c-90 0 -151 57 -151 147
c0 81 52 151 270 187v33c0 56 -24 67 -58 67c-25 0 -55 -10 -131 -69zM298 125l2 117c-116 -26 -153 -54 -153 -105c0 -37 26 -59 64 -59c25 0 58 16 87 47zM85 568l109 146h111l110 -146h-91l-74 92l-74 -92h-91z" />
    <glyph glyph-name="adieresis" unicode="&#xe4;" horiz-adv-x="500" 
d="M112 351l-58 65c110 90 166 102 220 102c75 0 144 -47 144 -145c0 -18 0 -29 -1 -42l-4 -145c-1 -23 -2 -42 -2 -63c0 -28 14 -48 27 -48c6 0 15 3 36 13l29 -61c-53 -35 -82 -41 -105 -41c-43 0 -78 25 -87 67c-36 -42 -81 -67 -129 -67c-90 0 -151 57 -151 147
c0 81 52 151 270 187v33c0 56 -24 67 -58 67c-25 0 -55 -10 -131 -69zM298 125l2 117c-116 -26 -153 -54 -153 -105c0 -37 26 -59 64 -59c25 0 58 16 87 47zM284 582v110h110v-110h-110zM106 582v110h110v-110h-110z" />
    <glyph glyph-name="agrave" unicode="&#xe0;" horiz-adv-x="500" 
d="M112 351l-58 65c110 90 166 102 220 102c75 0 144 -47 144 -145c0 -18 0 -29 -1 -42l-4 -145c-1 -23 -2 -42 -2 -63c0 -28 14 -48 27 -48c6 0 15 3 36 13l29 -61c-53 -35 -82 -41 -105 -41c-43 0 -78 25 -87 67c-36 -42 -81 -67 -129 -67c-90 0 -151 57 -151 147
c0 81 52 151 270 187v33c0 56 -24 67 -58 67c-25 0 -55 -10 -131 -69zM298 125l2 117c-116 -26 -153 -54 -153 -105c0 -37 26 -59 64 -59c25 0 58 16 87 47zM241 574l-140 140h135l88 -140h-83z" />
    <glyph glyph-name="aring" unicode="&#xe5;" horiz-adv-x="500" 
d="M112 351l-58 65c110 90 166 102 220 102c75 0 144 -47 144 -145c0 -18 0 -29 -1 -42l-4 -145c-1 -23 -2 -42 -2 -63c0 -28 14 -48 27 -48c6 0 15 3 36 13l29 -61c-53 -35 -82 -41 -105 -41c-43 0 -78 25 -87 67c-36 -42 -81 -67 -129 -67c-90 0 -151 57 -151 147
c0 81 52 151 270 187v33c0 56 -24 67 -58 67c-25 0 -55 -10 -131 -69zM201 655c0 -27 22 -49 49 -49s49 22 49 49s-22 49 -49 49s-49 -22 -49 -49zM298 125l2 117c-116 -26 -153 -54 -153 -105c0 -37 26 -59 64 -59c25 0 58 16 87 47zM250 552c-56 0 -103 48 -103 103
c0 56 47 103 103 103c55 0 103 -47 103 -103c0 -55 -48 -103 -103 -103z" />
    <glyph glyph-name="atilde" unicode="&#xe3;" horiz-adv-x="500" 
d="M112 351l-58 65c110 90 166 102 220 102c75 0 144 -47 144 -145c0 -18 0 -29 -1 -42l-4 -145c-1 -23 -2 -42 -2 -63c0 -28 14 -48 27 -48c6 0 15 3 36 13l29 -61c-53 -35 -82 -41 -105 -41c-43 0 -78 25 -87 67c-36 -42 -81 -67 -129 -67c-90 0 -151 57 -151 147
c0 81 52 151 270 187v33c0 56 -24 67 -58 67c-25 0 -55 -10 -131 -69zM298 125l2 117c-116 -26 -153 -54 -153 -105c0 -37 26 -59 64 -59c25 0 58 16 87 47zM129 577h-55c13 64 39 116 112 116c20 0 48 -10 73 -19c26 -9 52 -18 69 -18c25 0 37 23 43 45h55
c-13 -64 -39 -116 -112 -116c-20 0 -48 10 -73 19c-26 9 -52 18 -69 18c-25 0 -37 -23 -43 -45z" />
    <glyph glyph-name="ccedilla" unicode="&#xe7;" horiz-adv-x="444" 
d="M230 -58l2 -2c6 2 14 4 22 4c46 0 92 -24 92 -75c0 -67 -62 -95 -121 -95c-36 0 -71 12 -103 26l19 38c20 -7 42 -16 64 -16c27 0 61 7 61 43c0 28 -24 37 -49 37c-13 0 -27 -3 -36 -7l-22 17l50 79c-114 26 -172 145 -172 253c0 139 87 274 237 274
c74 0 131 -35 176 -85l-69 -67c-31 25 -59 48 -102 48c-76 0 -114 -82 -114 -159c0 -106 47 -165 108 -165c45 0 75 27 103 56l68 -64c-49 -60 -108 -96 -188 -96z" />
    <glyph glyph-name="eacute" unicode="&#xe9;" horiz-adv-x="500" 
d="M475 237h-316c1 -69 32 -153 116 -153c48 0 86 32 117 65l70 -64c-53 -59 -123 -99 -205 -99c-128 0 -220 106 -220 264c0 134 83 268 230 268c142 0 208 -105 208 -281zM165 323h194c-3 54 -28 109 -92 109c-55 0 -97 -59 -102 -109zM176 574l88 140h135l-140 -140h-83z
" />
    <glyph glyph-name="ecircumflex" unicode="&#xea;" horiz-adv-x="500" 
d="M475 237h-316c1 -69 32 -153 116 -153c48 0 86 32 117 65l70 -64c-53 -59 -123 -99 -205 -99c-128 0 -220 106 -220 264c0 134 83 268 230 268c142 0 208 -105 208 -281zM165 323h194c-3 54 -28 109 -92 109c-55 0 -97 -59 -102 -109zM85 568l109 146h111l110 -146h-91
l-74 92l-74 -92h-91z" />
    <glyph glyph-name="edieresis" unicode="&#xeb;" horiz-adv-x="500" 
d="M475 237h-316c1 -69 32 -153 116 -153c48 0 86 32 117 65l70 -64c-53 -59 -123 -99 -205 -99c-128 0 -220 106 -220 264c0 134 83 268 230 268c142 0 208 -105 208 -281zM165 323h194c-3 54 -28 109 -92 109c-55 0 -97 -59 -102 -109zM284 582v110h110v-110h-110z
M106 582v110h110v-110h-110z" />
    <glyph glyph-name="egrave" unicode="&#xe8;" horiz-adv-x="500" 
d="M475 237h-316c1 -69 32 -153 116 -153c48 0 86 32 117 65l70 -64c-53 -59 -123 -99 -205 -99c-128 0 -220 106 -220 264c0 134 83 268 230 268c142 0 208 -105 208 -281zM165 323h194c-3 54 -28 109 -92 109c-55 0 -97 -59 -102 -109zM241 574l-140 140h135l88 -140h-83z
" />
    <glyph glyph-name="iacute" unicode="&#xed;" horiz-adv-x="278" 
d="M75 0l5 504h122l-5 -504h-122zM65 574l88 140h135l-140 -140h-83z" />
    <glyph glyph-name="icircumflex" unicode="&#xee;" horiz-adv-x="278" 
d="M75 0l5 504h122l-5 -504h-122zM-26 568l109 146h111l110 -146h-91l-74 92l-74 -92h-91z" />
    <glyph glyph-name="idieresis" unicode="&#xef;" horiz-adv-x="278" 
d="M75 0l5 504h122l-5 -504h-122zM173 582v110h110v-110h-110zM-5 582v110h110v-110h-110z" />
    <glyph glyph-name="igrave" unicode="&#xec;" horiz-adv-x="278" 
d="M75 0l5 504h122l-5 -504h-122zM130 574l-140 140h135l88 -140h-83z" />
    <glyph glyph-name="ntilde" unicode="&#xf1;" 
d="M66 0l5 504h120v-61h2c39 44 96 75 163 75c106 0 134 -74 134 -152c0 -50 -1 -81 -1 -113l-3 -253h-122l1 126c1 78 2 138 2 198c0 62 -15 84 -66 84c-38 0 -80 -36 -111 -66l-2 -342h-122zM157 577h-55c13 64 39 116 112 116c20 0 48 -10 73 -19c26 -9 52 -18 69 -18
c25 0 37 23 43 45h55c-13 -64 -39 -116 -112 -116c-20 0 -48 10 -73 19c-26 9 -52 18 -69 18c-25 0 -37 -23 -43 -45z" />
    <glyph glyph-name="oacute" unicode="&#xf3;" 
d="M37 252c0 133 93 266 241 266c160 0 241 -117 241 -266c0 -143 -89 -266 -241 -266c-164 0 -241 123 -241 266zM159 248c0 -61 28 -164 119 -164c88 0 119 94 119 164c0 105 -37 172 -119 172c-91 0 -119 -102 -119 -172zM204 574l88 140h135l-140 -140h-83z" />
    <glyph glyph-name="ocircumflex" unicode="&#xf4;" 
d="M37 252c0 133 93 266 241 266c160 0 241 -117 241 -266c0 -143 -89 -266 -241 -266c-164 0 -241 123 -241 266zM159 248c0 -61 28 -164 119 -164c88 0 119 94 119 164c0 105 -37 172 -119 172c-91 0 -119 -102 -119 -172zM113 568l109 146h111l110 -146h-91l-74 92
l-74 -92h-91z" />
    <glyph glyph-name="odieresis" unicode="&#xf6;" 
d="M37 252c0 133 93 266 241 266c160 0 241 -117 241 -266c0 -143 -89 -266 -241 -266c-164 0 -241 123 -241 266zM159 248c0 -61 28 -164 119 -164c88 0 119 94 119 164c0 105 -37 172 -119 172c-91 0 -119 -102 -119 -172zM312 582v110h110v-110h-110zM134 582v110h110
v-110h-110z" />
    <glyph glyph-name="ograve" unicode="&#xf2;" 
d="M37 252c0 133 93 266 241 266c160 0 241 -117 241 -266c0 -143 -89 -266 -241 -266c-164 0 -241 123 -241 266zM159 248c0 -61 28 -164 119 -164c88 0 119 94 119 164c0 105 -37 172 -119 172c-91 0 -119 -102 -119 -172zM269 574l-140 140h135l88 -140h-83z" />
    <glyph glyph-name="otilde" unicode="&#xf5;" 
d="M37 252c0 133 93 266 241 266c160 0 241 -117 241 -266c0 -143 -89 -266 -241 -266c-164 0 -241 123 -241 266zM159 248c0 -61 28 -164 119 -164c88 0 119 94 119 164c0 105 -37 172 -119 172c-91 0 -119 -102 -119 -172zM157 577h-55c13 64 39 116 112 116
c20 0 48 -10 73 -19c26 -9 52 -18 69 -18c25 0 37 23 43 45h55c-13 -64 -39 -116 -112 -116c-20 0 -48 10 -73 19c-26 9 -52 18 -69 18c-25 0 -37 -23 -43 -45z" />
    <glyph glyph-name="scaron" unicode="&#x161;" horiz-adv-x="443" 
d="M40 34l45 86c39 -23 80 -42 126 -42c37 0 70 18 70 59c0 101 -235 23 -235 225c0 104 88 156 186 156c58 0 126 -17 171 -55l-52 -77c-29 22 -74 40 -111 40c-35 0 -78 -19 -78 -60c0 -96 241 -36 241 -219c0 -108 -92 -161 -190 -161c-61 0 -121 17 -173 48zM167 568
l-110 146h91l74 -92l74 92h91l-109 -146h-111z" />
    <glyph glyph-name="uacute" unicode="&#xfa;" 
d="M491 504l-4 -504h-122v61h-2c-38 -44 -95 -75 -156 -75c-111 0 -140 73 -140 171c0 31 1 62 1 94l3 253h122l-1 -126c-1 -73 -2 -144 -2 -199c0 -59 15 -83 66 -83c38 0 80 36 111 66l2 342h122zM204 574l88 140h135l-140 -140h-83z" />
    <glyph glyph-name="ucircumflex" unicode="&#xfb;" 
d="M491 504l-4 -504h-122v61h-2c-38 -44 -95 -75 -156 -75c-111 0 -140 73 -140 171c0 31 1 62 1 94l3 253h122l-1 -126c-1 -73 -2 -144 -2 -199c0 -59 15 -83 66 -83c38 0 80 36 111 66l2 342h122zM113 568l109 146h111l110 -146h-91l-74 92l-74 -92h-91z" />
    <glyph glyph-name="udieresis" unicode="&#xfc;" 
d="M491 504l-4 -504h-122v61h-2c-38 -44 -95 -75 -156 -75c-111 0 -140 73 -140 171c0 31 1 62 1 94l3 253h122l-1 -126c-1 -73 -2 -144 -2 -199c0 -59 15 -83 66 -83c38 0 80 36 111 66l2 342h122zM312 582v110h110v-110h-110zM134 582v110h110v-110h-110z" />
    <glyph glyph-name="ugrave" unicode="&#xf9;" 
d="M491 504l-4 -504h-122v61h-2c-38 -44 -95 -75 -156 -75c-111 0 -140 73 -140 171c0 31 1 62 1 94l3 253h122l-1 -126c-1 -73 -2 -144 -2 -199c0 -59 15 -83 66 -83c38 0 80 36 111 66l2 342h122zM269 574l-140 140h135l88 -140h-83z" />
    <glyph glyph-name="yacute" unicode="&#xfd;" horiz-adv-x="500" 
d="M21 -242v98h18c19 0 74 2 105 67l36 77l-170 483l122 35l109 -366h2l131 366l116 -35l-218 -546c-47 -117 -98 -179 -228 -179h-23zM176 574l88 140h135l-140 -140h-83z" />
    <glyph glyph-name="ydieresis" unicode="&#xff;" horiz-adv-x="500" 
d="M21 -242v98h18c19 0 74 2 105 67l36 77l-170 483l122 35l109 -366h2l131 366l116 -35l-218 -546c-47 -117 -98 -179 -228 -179h-23zM284 582v110h110v-110h-110zM106 582v110h110v-110h-110z" />
    <glyph glyph-name="zcaron" unicode="&#x17e;" horiz-adv-x="444" 
d="M61 0l-36 72l233 334h-221v98h345l37 -72l-235 -334h223v-98h-346zM167 568l-110 146h91l74 -92l74 92h91l-109 -146h-111z" />
    <glyph glyph-name="Delta" unicode="&#x2206;" horiz-adv-x="651" 
d="M27 0v66l235 630h131l229 -629v-67h-595zM141 88h362l-119 314c-16 52 -48 134 -59 177h-4c-8 -35 -38 -109 -54 -162z" />
    <glyph glyph-name="Omega" unicode="&#x2126;" horiz-adv-x="710" 
d="M181 89v2c-64 57 -126 154 -126 282c0 178 125 318 302 318c189 0 297 -160 297 -312c0 -131 -64 -233 -128 -288v-2h141v-89h-256v66c67 42 131 135 131 290c0 123 -64 244 -185 244c-116 0 -191 -107 -191 -248c0 -142 64 -246 132 -286v-66h-257v89h140z" />
    <glyph glyph-name="uni03BC" unicode="&#x3bc;" 
d="M65 -242l6 746h122l-1 -126c-1 -78 -2 -174 -2 -214c0 -39 15 -68 66 -68c38 0 80 36 111 66l2 342h122l-4 -504h-122v61h-2c-38 -44 -95 -75 -156 -75h-18l-2 -228h-122z" />
    <glyph glyph-name="pi" unicode="&#x3c0;" horiz-adv-x="589" 
d="M564 417h-73v-271c0 -75 6 -117 13 -146h-107c-11 19 -17 66 -17 140v277h-150c-5 -113 -31 -320 -67 -417h-107c35 110 62 302 65 417c-52 0 -81 -4 -102 -11l-13 73c25 18 73 31 156 31h411z" />
    <glyph glyph-name="Euro" unicode="&#x20ac;" 
d="M558 672l-31 -92c-31 10 -68 15 -109 15c-93 0 -164 -57 -195 -149h208v-63h-229l1 -74h227v-64h-216c23 -107 85 -161 186 -161c45 0 84 10 117 29l32 -87c-53 -25 -108 -38 -165 -38c-168 0 -274 92 -301 257h-74v64h69v74h-69v63h83c22 76 63 136 122 180
s128 66 208 66c45 0 91 -7 136 -20z" />
    <glyph glyph-name="afii61289" unicode="&#x2113;" horiz-adv-x="502" 
d="M436 169l46 -46c-49 -96 -122 -133 -200 -133c-116 0 -166 76 -175 165v11c-17 -12 -35 -28 -53 -41l-29 59c29 24 56 44 81 67v251c0 176 79 245 170 245c93 0 134 -76 134 -169c0 -118 -77 -229 -199 -345l1 -37c1 -81 43 -119 94 -119c57 0 103 47 130 92zM211 507
v-173c74 82 128 169 128 246c0 54 -16 88 -59 88c-32 0 -69 -37 -69 -161z" />
    <glyph glyph-name="estimated" unicode="&#x212e;" horiz-adv-x="851" 
d="M817 329h-635c-3 0 -5 -1 -5 -4v-192c0 -9 3 -16 8 -22c62 -64 147 -105 241 -105c101 0 191 46 252 117h57c-70 -82 -184 -136 -310 -136c-217 0 -392 157 -392 351c0 196 175 353 392 353s392 -157 392 -353v-9zM673 354v193c0 9 -3 17 -9 23c-62 61 -145 101 -238 101
s-178 -41 -240 -104c-6 -6 -9 -14 -9 -24v-189c0 -2 2 -6 5 -6h487c3 0 4 4 4 6z" />
    <glyph glyph-name="partialdiff" unicode="&#x2202;" horiz-adv-x="562" 
d="M102 628l-33 80c31 24 88 56 177 56c142 0 268 -124 268 -370c0 -236 -99 -404 -274 -404c-137 0 -202 124 -202 230c0 154 97 252 214 252c85 0 138 -58 153 -84h1v36c0 139 -72 250 -173 250c-62 0 -105 -25 -131 -46zM251 81h1c80 0 131 110 143 213
c-11 35 -55 91 -122 91c-72 0 -126 -78 -126 -168c0 -77 41 -136 104 -136z" />
    <glyph glyph-name="product" unicode="&#x220f;" horiz-adv-x="709" 
d="M684 581h-104v-675h-108v675h-236v-675h-108v675h-104v99h660v-99z" />
    <glyph glyph-name="summation" unicode="&#x2211;" horiz-adv-x="554" 
d="M533 -94h-511v70l249 317l-239 311v76h485v-93h-336v-3l214 -274l-235 -300v-3h373v-101z" />
    <glyph glyph-name="uni2219" unicode="&#x2219;" horiz-adv-x="278" 
d="M66 282c0 40 33 73 73 73s73 -33 73 -73s-33 -73 -73 -73s-73 33 -73 73z" />
    <glyph glyph-name="radical" unicode="&#x221a;" horiz-adv-x="582" 
d="M588 813l-223 -953h-89l-152 435l-73 -29l-19 61l158 64l111 -329c7 -28 14 -58 19 -78l1 -1c4 20 9 52 15 83l174 747h78z" />
    <glyph glyph-name="infinity" unicode="&#x221e;" horiz-adv-x="767" 
d="M718 282v-1c0 -104 -76 -166 -156 -166c-59 0 -111 30 -178 113c-51 -61 -104 -113 -183 -113c-81 0 -153 67 -153 161c0 97 69 165 161 165c73 0 127 -48 179 -112c44 50 94 112 180 112s150 -64 150 -159zM209 176h1c58 0 102 54 140 98c-41 54 -79 107 -146 107
c-58 0 -92 -46 -92 -105c0 -55 40 -100 97 -100zM562 381h-2c-61 0 -108 -66 -141 -101c62 -74 95 -104 146 -104c57 0 89 54 89 100c0 63 -38 105 -92 105z" />
    <glyph glyph-name="integral" unicode="&#x222b;" horiz-adv-x="378" 
d="M359 826l-13 -75c-9 5 -23 9 -36 9c-18 0 -37 -7 -50 -24c-22 -28 -29 -82 -29 -167c0 -156 14 -304 14 -474c0 -96 -16 -158 -38 -195c-25 -46 -72 -65 -117 -65c-30 0 -60 9 -73 16l15 78c9 -4 24 -11 43 -11c17 0 34 6 45 20c18 24 29 65 29 157
c0 172 -14 322 -14 485c0 111 16 173 57 215c27 30 69 43 108 43c24 0 47 -7 59 -12z" />
    <glyph glyph-name="approxequal" unicode="&#x2248;" horiz-adv-x="549" 
d="M468 435l40 -36c-30 -57 -75 -99 -132 -99c-41 0 -67 13 -113 40c-29 18 -55 33 -88 33c-45 0 -70 -35 -95 -71l-40 36c29 57 82 98 141 98c48 0 81 -23 107 -37c36 -21 57 -35 89 -35c39 0 64 27 91 71zM468 256l40 -36c-30 -56 -74 -99 -133 -99c-40 0 -67 15 -112 40
c-30 19 -56 34 -88 34c-45 0 -70 -36 -95 -72l-40 36c29 58 82 99 141 99c48 0 81 -23 107 -37c31 -18 55 -36 89 -36c39 0 63 27 91 71z" />
    <glyph glyph-name="notequal" unicode="&#x2260;" horiz-adv-x="549" 
d="M399 499l-40 -90h142v-65h-167l-61 -136h228v-65h-254l-50 -113l-51 21l41 92h-139v65h165l60 136h-225v65h250l50 112z" />
    <glyph glyph-name="lessequal" unicode="&#x2264;" horiz-adv-x="549" 
d="M498 96l-444 219v70l444 219v-75l-378 -177v-3l378 -178v-75zM501 -8h-452v66h452v-66z" />
    <glyph glyph-name="greaterequal" unicode="&#x2265;" horiz-adv-x="549" 
d="M55 604l444 -220v-69l-444 -219v75l378 178v2l-378 178v75zM500 -8h-450v66h450v-66z" />
    <glyph glyph-name="lozenge" unicode="&#x25ca;" horiz-adv-x="582" 
d="M530 339l-198 -386h-87l-194 386l198 388h87zM433 337l-122 246c-8 17 -15 40 -19 55h-3c-4 -16 -11 -36 -19 -55l-123 -241l124 -250c8 -18 14 -40 17 -52h4c4 13 12 40 17 51z" />
    <glyph glyph-name="uni00A0" unicode="&#xa0;" horiz-adv-x="278" 
 />
    <glyph glyph-name="uni00AD" unicode="&#xad;" horiz-adv-x="389" 
d="M63 198v110h263v-110h-263z" />
    <glyph glyph-name="uni02C9" unicode="&#x2c9;" horiz-adv-x="278" 
d="M-6 603v66h290v-66h-290z" />
    <glyph glyph-name="uni03A9" unicode="&#x3a9;" horiz-adv-x="710" 
d="M181 89v2c-64 57 -126 154 -126 282c0 178 125 318 302 318c189 0 297 -160 297 -312c0 -131 -64 -233 -128 -288v-2h141v-89h-256v66c67 42 131 135 131 290c0 123 -64 244 -185 244c-116 0 -191 -107 -191 -248c0 -142 64 -246 132 -286v-66h-257v89h140z" />
    <glyph glyph-name="uni2215" unicode="&#x2215;" horiz-adv-x="167" 
d="M-166 0l444 711l55 -33l-443 -709z" />
    </font>
</defs>
</svg>
