<?xml version="1.0" encoding="utf-8"?>
<!-- Generator: Adobe Illustrator 23.0.6, SVG Export Plug-In . SVG Version: 6.00 Build 0)  -->
<svg version="1.1" xmlns="http://www.w3.org/2000/svg" xmlns:xlink="http://www.w3.org/1999/xlink"
	 viewBox="0 0 32 32" xml:space="preserve">
<path d="M10.3,8.6l13.1,13.1c0.5,0.5,0.5,1.3,0,1.7l0,0c-0.5,0.5-1.3,0.5-1.7,0L8.6,10.3c-0.5-0.5-0.5-1.3,0-1.7l0,0
	C9.1,8.1,9.9,8.1,10.3,8.6z"/>
<path d="M8.6,21.7L21.7,8.6c0.5-0.5,1.3-0.5,1.7,0l0,0c0.5,0.5,0.5,1.3,0,1.7L10.3,23.4c-0.5,0.5-1.3,0.5-1.7,0l0,0
	C8.1,22.9,8.1,22.1,8.6,21.7z"/>
</svg>
