<?xml version="1.0" encoding="utf-8"?>
<!-- Generator: Adobe Illustrator 23.0.6, SVG Export Plug-In . SVG Version: 6.00 Build 0)  -->
<svg version="1.1" xmlns="http://www.w3.org/2000/svg" xmlns:xlink="http://www.w3.org/1999/xlink"
	 viewBox="0 0 32 32" xml:space="preserve">
<g>
	<path d="M22.7,7.7H9.3c-0.9,0-1.6,0.6-1.6,1.4c0,0.8,0.7,1.4,1.6,1.4h13.3c0.9,0,1.6-0.6,1.6-1.4C24.3,8.4,23.6,7.7,22.7,7.7z"/>
	<path d="M22.7,21.4H9.3c-0.9,0-1.6,0.6-1.6,1.4c0,0.8,0.7,1.4,1.6,1.4h13.3c0.9,0,1.6-0.6,1.6-1.4C24.3,22.1,23.6,21.4,22.7,21.4z"
		/>
	<path d="M22.7,14.6H9.3c-0.9,0-1.6,0.6-1.6,1.4c0,0.8,0.7,1.4,1.6,1.4h13.3c0.9,0,1.6-0.6,1.6-1.4C24.3,15.2,23.6,14.6,22.7,14.6z"
		/>
</g>
</svg>
