<?xml version="1.0" standalone="no"?>
<!DOCTYPE svg PUBLIC "-//W3C//DTD SVG 1.1//EN" "http://www.w3.org/Graphics/SVG/1.1/DTD/svg11.dtd" >
<svg>
<metadata>
Created by FontForge 20120731 at Wed Sep 18 14:58:29 2019
 By www-data
 The digitally encoded machine readable software for producing the
 Typefaces licensed to you is copyrighted (c) 1989, 1990, 2002 Adobe Systems.
 All Rights Reserved. This software is the property of Adobe Systems
 Incorporated and its licensors, and may not be reproduced, used,
 displayed, modified, disclosed or transferred without the express
 written approval of Adobe.
 
 The digitally encoded machine readable outline data for producing the Typefaces 
 provided as part of your laser printer is copyrighted (c) 1981, 2002 Heidelberger Druckmaschinen AG. 
 All rights reserved. This data is the property of Heidelberger Druckmaschinen AG, 
 and may not be reproduced, used, displayed, modified, disclosed or transferred 
 without the express written approval of Heidelberger Druckmaschinen AG. 
</metadata>
<defs>
<font id="SyntaxLTStd-Italic" horiz-adv-x="556" >
  <font-face 
    font-family="Syntax LT Std"
    font-weight="400"
    font-style="italic"
    font-stretch="normal"
    units-per-em="1000"
    panose-1="2 13 5 2 3 5 3 9 2 4"
    ascent="750"
    descent="-250"
    x-height="498"
    cap-height="692"
    bbox="-162 -236 1020 932"
    underline-thickness="50"
    underline-position="-50"
    slope="-12"
    stemh="20"
    stemv="80"
    unicode-range="U+0020-FB02"
  />
<missing-glyph horiz-adv-x="578" 
d="M78 0v700h500v-700h-500zM328 395l170 255h-340zM358 350l170 -255v510zM158 50h340l-170 255zM128 605v-510l170 255z" />
    <glyph glyph-name="fi" unicode="fi" 
d="M37 0l94 444h-101l11 54h101l17 80c21 101 57 164 174 164c15 0 28 -1 42 -3l-11 -55c-11 3 -23 4 -36 4c-48 0 -72 -28 -82 -75l-24 -115h283l-105 -498h-80l94 444h-204l-93 -444h-80zM447 608l18 84h80l-18 -84h-80z" />
    <glyph glyph-name="fl" unicode="fl" 
d="M37 0l94 444h-101l11 54h101l17 80c21 101 57 164 174 164c15 0 28 -1 42 -3l-11 -55c-11 3 -23 4 -36 4c-48 0 -72 -28 -82 -75l-24 -115h118l-11 -54h-119l-93 -444h-80zM320 0l157 742h80l-157 -742h-80z" />
    <glyph glyph-name=".notdef" horiz-adv-x="578" 
d="M78 0v700h500v-700h-500zM328 395l170 255h-340zM358 350l170 -255v510zM158 50h340l-170 255zM128 605v-510l170 255z" />
    <glyph glyph-name="space" unicode=" " horiz-adv-x="278" 
 />
    <glyph glyph-name="exclam" unicode="!" horiz-adv-x="333" 
d="M55 0l18 84h84l-18 -84h-84zM91 168l114 524h84l-114 -524h-84z" />
    <glyph glyph-name="quotedbl" unicode="&#x22;" 
d="M183 452v240h66v-240h-66zM341 452v240h66v-240h-66z" />
    <glyph glyph-name="numbersign" unicode="#" 
d="M335 265l21 152h-135l-21 -152h135zM104 0l30 211h-109l7 54h110l21 152h-109l7 54h110l29 211h58l-29 -211h135l29 211h58l-29 -211h109l-7 -54h-110l-21 -152h109l-7 -54h-110l-30 -211h-58l30 211h-135l-30 -211h-58z" />
    <glyph glyph-name="dollar" unicode="$" 
d="M280 294l-55 -248c80 7 134 56 134 134c0 55 -35 86 -79 114zM262 399l55 246c-84 -8 -135 -50 -135 -128c0 -58 36 -90 80 -118zM150 -103l20 91c-58 2 -106 14 -163 35l30 62c46 -23 94 -36 146 -40l60 271c-70 40 -147 84 -147 195c0 115 84 191 234 195l15 66h40
l-15 -66c52 -2 101 -11 145 -24l-28 -60c-39 15 -81 23 -130 24l-59 -269c72 -41 147 -84 147 -195c0 -65 -37 -194 -234 -196l-20 -89h-41z" />
    <glyph glyph-name="percent" unicode="%" horiz-adv-x="1000" 
d="M623 127c0 -55 29 -89 79 -89c66 0 109 53 109 130c0 55 -29 89 -79 89c-65 0 -109 -53 -109 -130zM228 -32l-35 22l594 724l36 -22zM203 514c0 -55 29 -89 79 -89c66 0 109 53 109 130c0 55 -29 89 -79 89c-65 0 -109 -53 -109 -130zM557 130c0 103 78 175 173 175
c91 0 147 -54 147 -140c0 -103 -78 -175 -172 -175c-91 0 -148 54 -148 140zM137 517c0 103 78 175 173 175c91 0 147 -54 147 -140c0 -103 -78 -175 -172 -175c-91 0 -148 54 -148 140z" />
    <glyph glyph-name="ampersand" unicode="&#x26;" horiz-adv-x="722" 
d="M464 140l-155 237c-108 -53 -168 -121 -168 -197c0 -91 65 -134 141 -134c72 0 140 44 182 94zM442 584c0 45 -34 62 -62 62c-58 0 -81 -39 -81 -79c0 -27 12 -54 41 -104c75 48 102 81 102 121zM563 -14l-66 102c-55 -66 -123 -102 -229 -102c-141 0 -213 92 -213 184
c0 107 58 175 225 261c-26 43 -47 81 -47 133c0 72 43 136 146 136c87 0 129 -49 129 -111c0 -73 -58 -128 -136 -174l138 -212c32 56 56 115 76 174l63 -19c-23 -75 -56 -148 -101 -214l80 -123z" />
    <glyph glyph-name="quoteright" unicode="&#x2019;" horiz-adv-x="278" 
d="M110 452l52 240h102l-113 -240h-41z" />
    <glyph glyph-name="parenleft" unicode="(" horiz-adv-x="333" 
d="M228 -102l-52 -29c-75 117 -113 217 -113 357c0 214 115 352 299 509l37 -43c-148 -128 -270 -263 -270 -473c0 -120 37 -218 99 -321z" />
    <glyph glyph-name="parenright" unicode=")" horiz-adv-x="333" 
d="M100 706l52 29c75 -117 113 -217 113 -357c0 -214 -115 -352 -299 -509l-37 43c148 128 270 263 270 473c0 120 -37 218 -99 321z" />
    <glyph glyph-name="asterisk" unicode="*" 
d="M146 507v55c44 -3 90 -7 137 -11c-28 34 -56 77 -78 113l47 28c20 -40 40 -83 59 -125c16 38 40 87 60 125l47 -28c-24 -36 -50 -74 -79 -113c41 5 95 8 139 11v-55c-44 3 -91 6 -138 11c26 -34 55 -78 78 -114l-47 -27c-20 39 -41 81 -59 124c-15 -39 -39 -86 -60 -124
l-47 27c25 37 51 76 78 114c-42 -6 -95 -9 -137 -11z" />
    <glyph glyph-name="plus" unicode="+" horiz-adv-x="600" 
d="M267 286v220h66v-220h220v-66h-220v-220h-66v220h-220v66h220z" />
    <glyph glyph-name="comma" unicode="," horiz-adv-x="278" 
d="M-9 -144l52 240h102l-113 -240h-41z" />
    <glyph glyph-name="hyphen" unicode="-" horiz-adv-x="389" 
d="M54 235l16 66h239l-16 -66h-239z" />
    <glyph glyph-name="period" unicode="." horiz-adv-x="278" 
d="M26 0l14 96h94l-14 -96h-94z" />
    <glyph glyph-name="slash" unicode="/" horiz-adv-x="444" 
d="M19 0l348 712l58 -20l-348 -712z" />
    <glyph glyph-name="zero" unicode="0" 
d="M111 225c0 -146 62 -181 120 -181c135 0 222 209 222 413c0 146 -62 181 -120 181c-135 0 -222 -209 -222 -413zM31 240c0 173 97 452 307 452c146 0 195 -128 195 -250c0 -173 -97 -452 -307 -452c-146 0 -195 128 -195 250z" />
    <glyph glyph-name="one" unicode="1" 
d="M207 0l136 601l-225 -138l-40 57l305 172l50 -19l-142 -673h-84z" />
    <glyph glyph-name="two" unicode="2" 
d="M9 45l200 180c170 153 201 215 201 278c0 84 -61 123 -141 123c-46 0 -102 -20 -151 -56l-28 56c62 40 126 66 195 66c116 0 205 -62 205 -183c0 -95 -58 -178 -219 -320l-140 -123h304l-15 -66h-397z" />
    <glyph glyph-name="three" unicode="3" 
d="M125 330l9 54c47 0 94 0 125 4c85 11 145 70 145 138c0 73 -56 106 -127 106c-39 0 -88 -13 -124 -28l-16 61c48 15 97 27 152 27c91 0 195 -50 195 -159c0 -91 -65 -155 -167 -182v-2c71 -19 118 -78 118 -158c0 -104 -101 -201 -261 -201c-63 0 -117 9 -166 30l27 57
c49 -22 89 -27 125 -27c139 0 189 71 189 151c0 92 -63 129 -162 129h-62z" />
    <glyph glyph-name="four" unicode="4" 
d="M266 0l50 214h-286l-15 55l392 413h83l-86 -408h123l-12 -60h-124l-45 -214h-80zM330 274l74 318h-2l-298 -318h226z" />
    <glyph glyph-name="five" unicode="5" 
d="M31 -4l18 54c15 -3 53 -6 75 -6c149 0 299 63 299 226c0 90 -62 136 -150 136c-71 0 -126 -41 -162 -95l-60 17l125 354h329l-11 -66h-263l-74 -190l2 -2c38 34 82 48 143 48c107 0 201 -70 201 -185c0 -162 -127 -297 -369 -297c-33 0 -68 1 -103 6z" />
    <glyph glyph-name="six" unicode="6" 
d="M542 692l-13 -60c-192 0 -371 -148 -399 -340l1 -2c54 65 105 101 192 101c108 0 183 -79 183 -185c0 -125 -109 -216 -236 -216c-145 0 -223 115 -223 255c0 282 262 447 495 447zM426 207c0 71 -52 124 -128 124c-70 0 -128 -48 -171 -112c7 -96 60 -163 143 -163
c95 0 156 67 156 151z" />
    <glyph glyph-name="seven" unicode="7" 
d="M44 14l420 602h-375l14 66h446l15 -48l-441 -644z" />
    <glyph glyph-name="eight" unicode="8" 
d="M29 150c0 114 101 170 200 205c-80 51 -114 90 -114 159c0 119 104 178 221 178c151 0 199 -81 199 -151c0 -89 -78 -150 -189 -194c82 -48 134 -103 134 -169c0 -128 -130 -188 -243 -188c-98 0 -208 49 -208 160zM109 156c0 -81 62 -112 136 -112c78 0 155 52 155 132
c0 45 -29 79 -123 143c-112 -42 -168 -98 -168 -163zM195 520c0 -66 46 -104 102 -135c69 20 158 71 158 151c0 71 -56 102 -122 102c-73 0 -138 -39 -138 -118z" />
    <glyph glyph-name="nine" unicode="9" 
d="M14 -10l13 60c192 0 371 148 399 340l-1 2c-54 -65 -105 -101 -192 -101c-108 0 -183 79 -183 185c0 125 109 216 236 216c145 0 223 -115 223 -255c0 -282 -262 -447 -495 -447zM130 475c0 -71 52 -124 128 -124c70 0 128 48 171 112c-7 96 -60 163 -143 163
c-95 0 -156 -67 -156 -151z" />
    <glyph glyph-name="colon" unicode=":" horiz-adv-x="278" 
d="M106 385l15 96h93l-15 -96h-93zM26 0l15 96h93l-15 -96h-93z" />
    <glyph glyph-name="semicolon" unicode=";" horiz-adv-x="278" 
d="M-9 -144l52 240h102l-113 -240h-41zM106 385l15 96h93l-15 -96h-93z" />
    <glyph glyph-name="less" unicode="&#x3c;" horiz-adv-x="600" 
d="M47 222v62l506 228v-68l-424 -191l424 -191v-68z" />
    <glyph glyph-name="equal" unicode="=" horiz-adv-x="600" 
d="M47 320v66h506v-66h-506zM47 120v66h506v-66h-506z" />
    <glyph glyph-name="greater" unicode="&#x3e;" horiz-adv-x="600" 
d="M47 -6v68l424 191l-424 191v68l506 -228v-62z" />
    <glyph glyph-name="question" unicode="?" horiz-adv-x="500" 
d="M130 596l-34 53c66 35 117 57 194 57c105 0 188 -61 188 -172c0 -87 -39 -135 -168 -215c-56 -35 -76 -64 -90 -144h-75c25 130 41 145 168 224c54 34 85 68 85 127c0 72 -41 120 -116 120c-54 0 -107 -21 -152 -50zM107 0l18 84h84l-18 -84h-84z" />
    <glyph glyph-name="at" unicode="@" horiz-adv-x="800" 
d="M261 288c0 -63 34 -98 87 -98c88 0 157 116 157 210c0 62 -33 94 -82 94c-96 0 -162 -114 -162 -206zM559 537h64l-88 -274c-6 -17 -10 -35 -10 -50c0 -17 6 -29 23 -29c75 0 152 118 152 220c0 154 -132 248 -283 248c-182 0 -317 -139 -317 -309
c0 -171 142 -303 322 -303c96 0 193 44 247 116h63c-67 -106 -183 -170 -312 -170c-214 0 -380 160 -380 362c0 199 171 358 376 358c187 0 344 -123 344 -297c0 -166 -143 -279 -227 -279c-45 0 -71 21 -80 63h-2c-23 -31 -59 -63 -116 -63c-88 0 -146 69 -146 151
c0 132 94 273 234 273c47 0 89 -23 113 -78z" />
    <glyph glyph-name="A" unicode="A" horiz-adv-x="667" 
d="M452 294l-59 302h-2l-155 -302h216zM3 16l365 676h75l154 -686l-84 -20l-49 248h-259l-127 -248z" />
    <glyph glyph-name="B" unicode="B" horiz-adv-x="611" 
d="M181 325l-56 -265h99c167 0 205 80 205 146c0 82 -55 119 -169 119h-79zM246 632l-52 -247h89c116 0 194 49 194 144c0 61 -32 103 -118 103h-113zM28 0l146 692h195c180 0 188 -121 188 -157c0 -115 -92 -171 -169 -184v-2c78 -13 127 -67 127 -145
c0 -84 -54 -204 -255 -204h-232z" />
    <glyph glyph-name="C" unicode="C" horiz-adv-x="667" 
d="M561 87l24 -58c-74 -32 -151 -43 -203 -43c-200 0 -322 125 -322 322c0 192 150 398 442 398c61 0 109 -6 160 -24l-25 -59c-42 17 -85 23 -133 23c-196 0 -358 -132 -358 -340c0 -154 91 -260 248 -260c46 0 120 20 167 41z" />
    <glyph glyph-name="D" unicode="D" horiz-adv-x="722" 
d="M21 0l146 692h184c270 0 311 -228 311 -299c0 -233 -177 -393 -445 -393h-196zM239 632l-121 -572h89c202 0 369 106 369 332c0 157 -105 240 -273 240h-64z" />
    <glyph glyph-name="E" unicode="E" horiz-adv-x="500" 
d="M28 0l146 692h337l-13 -60h-252l-52 -247h245l-13 -60h-245l-56 -265h293l-13 -60h-377z" />
    <glyph glyph-name="F" unicode="F" horiz-adv-x="500" 
d="M28 0l146 692h337l-13 -60h-251l-53 -247h245l-13 -60h-245l-69 -325h-84z" />
    <glyph glyph-name="G" unicode="G" horiz-adv-x="722" 
d="M648 360l-74 -338c-64 -20 -132 -36 -192 -36c-200 0 -322 125 -322 322c0 192 150 398 442 398c50 0 110 -5 170 -24l-28 -63c-44 19 -92 27 -140 27c-196 0 -358 -132 -358 -340c0 -154 91 -260 248 -260c41 0 78 7 111 19l61 295h82z" />
    <glyph glyph-name="H" unicode="H" horiz-adv-x="722" 
d="M28 0l146 692h84l-65 -307h361l65 307h84l-146 -692h-84l69 325h-361l-69 -325h-84z" />
    <glyph glyph-name="I" unicode="I" horiz-adv-x="278" 
d="M28 0l147 692h84l-147 -692h-84z" />
    <glyph glyph-name="J" unicode="J" horiz-adv-x="389" 
d="M171 199l104 493h84l-107 -507c-31 -149 -92 -199 -216 -199c-19 0 -39 2 -58 4l14 63c14 -4 28 -7 42 -7c64 0 110 24 137 153z" />
    <glyph glyph-name="K" unicode="K" horiz-adv-x="611" 
d="M28 0l146 692h84l-71 -335l2 -2l390 351l56 -49l-351 -306l261 -326l-74 -39l-285 364l-74 -350h-84z" />
    <glyph glyph-name="L" unicode="L" horiz-adv-x="500" 
d="M28 0l147 692h84l-133 -626h305l-14 -66h-389z" />
    <glyph glyph-name="M" unicode="M" horiz-adv-x="944" 
d="M-2 0l245 692h89l102 -596h2l334 596h95l-24 -692h-84c10 197 20 393 30 590h-2l-326 -590h-79l-100 590h-2l-196 -590h-84z" />
    <glyph glyph-name="N" unicode="N" horiz-adv-x="722" 
d="M25 0l144 682l77 24l261 -600h2l114 586h83l-145 -686l-79 -20l-259 592h-2l-113 -578h-83z" />
    <glyph glyph-name="O" unicode="O" horiz-adv-x="833" 
d="M60 306c0 213 167 400 387 400c204 0 326 -124 326 -320c0 -213 -167 -400 -387 -400c-204 0 -326 124 -326 320zM146 298c0 -150 96 -252 243 -252c187 0 298 182 298 348c0 150 -96 252 -241 252c-189 0 -300 -182 -300 -348z" />
    <glyph glyph-name="P" unicode="P" 
d="M246 632l-57 -271h44c152 0 232 43 232 164c0 63 -30 107 -126 107h-93zM28 0l146 692h187c136 0 190 -71 190 -166c0 -132 -80 -225 -278 -225h-97l-64 -301h-84z" />
    <glyph glyph-name="Q" unicode="Q" horiz-adv-x="833" 
d="M146 298c0 -150 96 -252 243 -252c187 0 298 182 298 348c0 150 -96 252 -241 252c-189 0 -300 -182 -300 -348zM725 -86l-193 102c-45 -20 -94 -30 -146 -30c-204 0 -326 124 -326 320c0 213 167 400 387 400c204 0 326 -124 326 -320c0 -135 -66 -258 -172 -331
l172 -78z" />
    <glyph glyph-name="R" unicode="R" horiz-adv-x="611" 
d="M28 0l146 692h199c136 0 190 -71 190 -166c0 -111 -79 -182 -204 -192v-2c45 -31 60 -54 122 -178l73 -146l-76 -22l-89 177c-74 148 -87 155 -163 155h-47l-67 -318h-84zM246 632l-54 -254h65c123 0 220 32 220 147c0 63 -30 107 -126 107h-105z" />
    <glyph glyph-name="S" unicode="S" horiz-adv-x="500" 
d="M-4 23l30 62c52 -26 108 -39 168 -39c88 0 152 49 152 134c0 150 -263 125 -263 331c0 116 94 195 251 195c60 0 118 -8 170 -24l-28 -60c-42 16 -88 24 -141 24c-92 0 -166 -45 -166 -129c0 -156 263 -128 263 -335c0 -65 -38 -196 -236 -196c-75 0 -131 11 -200 37z
" />
    <glyph glyph-name="T" unicode="T" 
d="M175 0l132 626h-222l14 66h513l-14 -66h-207l-132 -626h-84z" />
    <glyph glyph-name="U" unicode="U" horiz-adv-x="722" 
d="M532 285l87 407h84l-99 -464c-33 -153 -122 -242 -292 -242c-146 0 -238 73 -238 202c0 37 9 81 33 192l67 312h84l-73 -341c-22 -102 -25 -138 -25 -162c0 -74 49 -137 161 -137c139 0 179 83 211 233z" />
    <glyph glyph-name="V" unicode="V" horiz-adv-x="667" 
d="M278 0l-180 688l83 18l148 -592l303 592l76 -24l-354 -682h-76z" />
    <glyph glyph-name="W" unicode="W" horiz-adv-x="1000" 
d="M206 0l-102 692l82 14l80 -586h2l251 572h86l78 -572h2l259 586l76 -24l-315 -682h-82l-77 578h-2l-253 -578h-85z" />
    <glyph glyph-name="X" unicode="X" horiz-adv-x="611" 
d="M2 27l272 326l-163 323l77 30l141 -300l230 300l68 -42l-262 -318l173 -325l-77 -35l-148 309l-241 -309z" />
    <glyph glyph-name="Y" unicode="Y" horiz-adv-x="611" 
d="M211 0l64 306l-177 376l80 24l147 -329l262 329l67 -39l-298 -374l-61 -293h-84z" />
    <glyph glyph-name="Z" unicode="Z" 
d="M30 0l-20 54l447 572h-353l14 66h419l16 -54l-438 -572h357l-13 -66h-429z" />
    <glyph glyph-name="bracketleft" unicode="[" horiz-adv-x="333" 
d="M14 -102l174 808h178l-11 -54h-107l-153 -700h119l-9 -54h-191z" />
    <glyph glyph-name="backslash" unicode="\" horiz-adv-x="444" 
d="M367 -20l-348 712l58 20l348 -712z" />
    <glyph glyph-name="bracketright" unicode="]" horiz-adv-x="333" 
d="M75 -48l153 700h-119l9 54h191l-174 -808h-178l11 54h107z" />
    <glyph glyph-name="asciicircum" unicode="^" horiz-adv-x="600" 
d="M47 249l221 433h64l221 -433h-71l-182 361l-182 -361h-71z" />
    <glyph glyph-name="underscore" unicode="_" horiz-adv-x="500" 
d="M500 -125h-500v50h500v-50z" />
    <glyph glyph-name="quoteleft" unicode="&#x2018;" horiz-adv-x="278" 
d="M96 452l113 240h41l-52 -240h-102z" />
    <glyph glyph-name="a" unicode="a" horiz-adv-x="500" 
d="M85 123c0 -44 30 -77 76 -77s74 19 129 73c7 43 19 96 31 144c-150 -19 -236 -67 -236 -140zM122 384l-33 50c89 54 150 78 220 78c66 0 117 -24 117 -100c0 -20 -4 -49 -19 -110c-15 -62 -48 -208 -48 -234c0 -14 10 -22 20 -22c11 0 25 6 47 20l20 -35
c-49 -34 -80 -45 -105 -45c-48 0 -54 36 -54 77c-40 -45 -87 -77 -150 -77c-81 0 -132 52 -132 131c0 152 211 183 327 195c7 28 14 69 14 89c0 39 -25 51 -59 51c-41 0 -119 -35 -165 -68z" />
    <glyph glyph-name="b" unicode="b" 
d="M13 0l157 742h80l-70 -324h2c48 57 96 94 166 94c110 0 154 -85 154 -173c0 -103 -74 -345 -360 -345c-40 0 -84 2 -129 6zM167 351l-64 -303h60c154 0 259 139 259 286c0 66 -31 112 -95 112c-45 0 -89 -23 -160 -95z" />
    <glyph glyph-name="c" unicode="c" horiz-adv-x="444" 
d="M459 506l-22 -59c-17 3 -28 5 -57 5c-148 0 -270 -109 -270 -259c0 -73 32 -147 118 -147c54 0 102 20 148 52l32 -43c-47 -33 -113 -69 -184 -69c-129 0 -194 88 -194 190c0 213 162 336 352 336c26 0 51 -3 77 -6z" />
    <glyph glyph-name="d" unicode="d" 
d="M341 0l18 84l-2 2c-44 -51 -106 -100 -178 -100c-99 0 -149 85 -149 181c0 186 153 345 332 345c26 0 53 -2 79 -9l50 239h80l-157 -742h-73zM368 157l62 293c-21 5 -40 8 -61 8c-154 0 -259 -139 -259 -286c0 -74 31 -120 95 -120c47 0 96 34 163 105z" />
    <glyph glyph-name="e" unicode="e" horiz-adv-x="500" 
d="M128 304h251c1 12 2 25 2 38c0 60 -18 116 -93 116c-79 0 -133 -85 -160 -154zM448 250h-332c-4 -21 -6 -38 -6 -57c0 -73 32 -147 123 -147c56 0 110 27 150 61l28 -48c-50 -37 -116 -73 -187 -73c-129 0 -194 88 -194 213c0 143 110 313 268 313
c114 0 155 -90 155 -190c0 -24 -3 -48 -5 -72z" />
    <glyph glyph-name="f" unicode="f" horiz-adv-x="333" 
d="M57 0l94 444h-101l11 54h101l17 80c21 101 57 164 174 164c15 0 28 -1 42 -3l-11 -55c-11 3 -23 4 -36 4c-48 0 -72 -28 -82 -75l-24 -115h118l-11 -54h-119l-93 -444h-80z" />
    <glyph glyph-name="g" unicode="g" horiz-adv-x="500" 
d="M170 102l124 -35c89 -25 133 -73 133 -135c0 -84 -105 -168 -247 -168c-83 0 -201 38 -201 129c0 69 38 111 148 155v2c-107 26 -115 46 -115 63c0 22 12 44 134 96c-41 25 -65 65 -65 116c0 106 88 187 190 187c32 0 64 -9 92 -20l147 6l-10 -50l-103 4
c26 -26 35 -62 35 -99c0 -89 -78 -175 -185 -175c-25 0 -46 3 -66 11c-63 -29 -77 -42 -77 -54c0 -10 5 -16 66 -33zM280 2l-104 33c-92 -46 -131 -83 -131 -132c0 -45 55 -91 140 -91c101 0 162 59 162 115c0 35 -15 59 -67 75zM153 324c0 -61 30 -98 92 -98
c78 0 115 74 115 145c0 58 -35 93 -92 93c-69 0 -115 -80 -115 -140z" />
    <glyph glyph-name="h" unicode="h" 
d="M13 0l157 742h80l-77 -340l2 -2c49 56 129 112 204 112c56 0 109 -28 109 -91c0 -28 -4 -56 -12 -96l-68 -325h-80l66 310c10 45 14 68 14 91c0 37 -25 51 -61 51c-42 0 -99 -36 -181 -113l-73 -339h-80z" />
    <glyph glyph-name="i" unicode="i" horiz-adv-x="278" 
d="M30 0l105 498h80l-105 -498h-80zM157 608l18 84h80l-18 -84h-80z" />
    <glyph glyph-name="j" unicode="j" horiz-adv-x="278" 
d="M-5 -228l143 726h77l-78 -392c-31 -154 -44 -194 -90 -334h-52zM157 608l18 84h80l-18 -84h-80z" />
    <glyph glyph-name="k" unicode="k" horiz-adv-x="500" 
d="M375 -14l-224 283l315 243l45 -51l-268 -196l197 -236zM13 0l157 742h80l-157 -742h-80z" />
    <glyph glyph-name="l" unicode="l" horiz-adv-x="278" 
d="M30 0l157 742h80l-157 -742h-80z" />
    <glyph glyph-name="m" unicode="m" horiz-adv-x="834" 
d="M13 0l105 498h80l-24 -87h2c62 55 131 101 198 101c66 0 94 -34 95 -101c61 55 130 101 197 101c64 0 100 -38 100 -94c0 -25 -1 -47 -9 -84l-70 -334h-80l66 315c9 41 13 68 13 86c0 37 -21 51 -46 51c-41 0 -81 -26 -177 -105l-73 -347h-80l66 315c9 41 13 68 13 86
c0 37 -21 51 -46 51c-41 0 -81 -26 -177 -105l-73 -347h-80z" />
    <glyph glyph-name="n" unicode="n" 
d="M13 0l105 498h80l-25 -96l2 -2c49 56 129 112 204 112c56 0 109 -28 109 -91c0 -28 -4 -56 -12 -96l-68 -325h-80l66 310c10 45 14 68 14 91c0 37 -25 51 -61 51c-42 0 -99 -36 -181 -113l-73 -339h-80z" />
    <glyph glyph-name="o" unicode="o" 
d="M110 193c0 -73 32 -147 123 -147c127 0 189 148 189 259c0 73 -32 147 -123 147c-127 0 -189 -148 -189 -259zM30 197c0 161 103 315 273 315c128 0 199 -90 199 -211c0 -161 -103 -315 -273 -315c-128 0 -199 90 -199 211z" />
    <glyph glyph-name="p" unicode="p" 
d="M-39 -236l155 734h73l-18 -84l2 -2c45 51 107 100 180 100c99 0 149 -85 149 -173c0 -186 -153 -345 -332 -345c-26 0 -53 2 -79 9l-50 -239h-80zM164 349l-62 -293c21 -5 40 -8 61 -8c154 0 259 139 259 286c0 66 -31 112 -95 112c-47 0 -96 -34 -163 -97z" />
    <glyph glyph-name="q" unicode="q" 
d="M284 -236l67 316l-1 2c-37 -49 -103 -96 -171 -96c-99 0 -149 85 -149 181c0 199 170 337 368 337c48 0 85 -3 121 -6l-155 -734h-80zM368 157l62 293h-38c-150 0 -282 -127 -282 -278c0 -74 31 -120 95 -120c47 0 97 34 163 105z" />
    <glyph glyph-name="r" unicode="r" horiz-adv-x="333" 
d="M13 0l105 498h76l-25 -87l2 -2c44 67 84 103 141 103c16 0 33 -3 49 -7l-20 -72c-16 4 -32 7 -48 7c-49 0 -94 -44 -127 -101l-73 -339h-80z" />
    <glyph glyph-name="s" unicode="s" horiz-adv-x="389" 
d="M-11 12l23 51c33 -16 67 -23 104 -23c56 0 122 22 122 92c0 97 -184 83 -184 225c0 90 74 155 203 155c43 0 81 -7 119 -20l-21 -56c-34 10 -69 16 -96 16c-89 0 -125 -39 -125 -91c0 -93 184 -84 184 -224c0 -100 -92 -151 -195 -151c-52 0 -96 7 -134 26z" />
    <glyph glyph-name="t" unicode="t" horiz-adv-x="333" 
d="M30 444l14 54h105l48 194h80l-48 -194h115l-13 -54h-115l-63 -258c-9 -37 -14 -67 -14 -85c0 -32 18 -55 51 -55c22 0 51 10 92 38l22 -46c-57 -38 -103 -52 -146 -52c-61 0 -99 43 -99 101c0 40 11 88 25 144l52 213h-106z" />
    <glyph glyph-name="u" unicode="u" 
d="M48 173l68 325h80l-66 -310c-10 -45 -14 -68 -14 -91c0 -37 25 -51 61 -51c42 0 99 36 181 113l73 339h80l-105 -498h-80l25 96l-2 2c-49 -56 -129 -112 -204 -112c-56 0 -109 28 -109 91c0 28 4 56 12 96z" />
    <glyph glyph-name="v" unicode="v" horiz-adv-x="500" 
d="M150 0l-107 492l80 20l77 -410l233 410l68 -29l-282 -483h-69z" />
    <glyph glyph-name="w" unicode="w" horiz-adv-x="778" 
d="M128 0l-85 492l78 20l58 -416h2l193 402h79l52 -402h2l201 416l71 -34l-251 -478h-74l-54 390h-2l-200 -390h-70z" />
    <glyph glyph-name="x" unicode="x" horiz-adv-x="500" 
d="M-1 31l195 220l-134 227l74 34l107 -210l175 210l60 -44l-197 -219l135 -230l-73 -33l-111 212l-177 -212z" />
    <glyph glyph-name="y" unicode="y" horiz-adv-x="500" 
d="M12 -219l137 229l-106 482l80 20l78 -408l228 408l68 -31l-297 -517c-51 -88 -81 -130 -132 -200z" />
    <glyph glyph-name="z" unicode="z" horiz-adv-x="444" 
d="M-5 42l319 396h-261l10 60h343l13 -42l-319 -396h275l-13 -60h-352z" />
    <glyph glyph-name="braceleft" unicode="{" horiz-adv-x="333" 
d="M181 -54l-11 -48h-58c-43 0 -74 31 -74 97c0 21 5 45 12 74l15 61c7 29 10 51 10 71c0 48 -18 66 -53 74l12 54c58 6 92 63 108 138l29 136c14 68 58 103 123 103h58l-11 -48h-28c-43 0 -68 -19 -77 -61l-31 -146c-17 -80 -62 -123 -119 -148v-2c17 -5 55 -30 55 -96
c0 -16 -2 -33 -6 -53l-23 -105c-6 -26 -8 -40 -8 -56c0 -24 12 -45 42 -45h35z" />
    <glyph glyph-name="bar" unicode="|" horiz-adv-x="222" 
d="M78 -14v756h66v-756h-66z" />
    <glyph glyph-name="braceright" unicode="}" horiz-adv-x="333" 
d="M142 658l11 48h58c43 0 74 -31 74 -97c0 -21 -5 -45 -12 -74l-15 -61c-7 -29 -10 -51 -10 -71c0 -48 18 -66 53 -74l-12 -54c-58 -6 -92 -63 -108 -138l-29 -136c-14 -68 -58 -103 -123 -103h-58l11 48h28c43 0 68 19 77 61l31 146c17 80 62 123 119 148v2
c-17 5 -55 30 -55 96c0 16 2 33 6 53l23 105c6 26 8 40 8 56c0 24 -12 45 -42 45h-35z" />
    <glyph glyph-name="asciitilde" unicode="~" horiz-adv-x="600" 
d="M495 323l36 -50c-12 -23 -29 -45 -49 -61s-44 -26 -72 -26c-44 0 -83 18 -116 35c-30 15 -61 33 -105 33s-68 -37 -84 -71l-36 50c25 48 63 87 121 87c46 0 83 -14 122 -33c33 -16 67 -35 95 -35c40 0 65 36 88 71z" />
    <glyph glyph-name="exclamdown" unicode="&#xa1;" horiz-adv-x="333" 
d="M156 414l18 84h84l-18 -84h-84zM24 -194l114 524h84l-114 -524h-84z" />
    <glyph glyph-name="cent" unicode="&#xa2;" 
d="M221 60l144 384c-118 -25 -206 -123 -206 -251c0 -54 17 -108 62 -133zM166 -88l32 87c-79 26 -119 97 -119 177c0 196 138 316 310 333l31 82l31 -12l-25 -67h5c26 0 51 -3 77 -6l-22 -59c-17 3 -28 5 -57 5c-9 0 -18 0 -26 -2l-150 -401c7 -2 15 -3 24 -3
c54 0 102 20 148 52l32 -43c-47 -33 -113 -69 -184 -69c-15 0 -29 1 -42 4l-34 -91z" />
    <glyph glyph-name="sterling" unicode="&#xa3;" 
d="M9 0l11 54c116 0 131 88 165 282h-134l9 54h131c21 180 65 316 267 316c25 0 63 -6 89 -10l-15 -57c-21 4 -42 7 -70 7c-116 0 -170 -60 -190 -256h196l-10 -54h-193c-27 -174 -57 -244 -109 -268v-2h322l-13 -66h-456z" />
    <glyph glyph-name="fraction" unicode="&#x2044;" horiz-adv-x="168" 
d="M-162 -10l447 729l45 -27l-447 -729z" />
    <glyph glyph-name="yen" unicode="&#xa5;" 
d="M171 0l32 160h-180l14 54h177l18 86h-177l14 54h145l-134 328l70 24l131 -329l247 329l57 -39l-232 -313h150l-14 -54h-176l-5 -7l-17 -79h180l-14 -54h-177l-33 -160h-76z" />
    <glyph glyph-name="florin" unicode="&#x192;" 
d="M133 360l11 54h111l22 103c33 154 77 189 170 189c15 0 33 -1 48 -3l-8 -57c-9 2 -22 3 -38 3c-52 0 -70 -29 -84 -94l-30 -141h111l-10 -54h-113l-84 -392c-24 -112 -80 -153 -160 -153c-22 0 -36 1 -54 5l12 55c9 -2 20 -3 29 -3c52 0 77 19 94 98l83 390h-110z" />
    <glyph glyph-name="section" unicode="&#xa7;" 
d="M498 669l-27 -48c-39 18 -80 31 -123 31c-57 0 -119 -20 -119 -89c0 -128 260 -82 260 -243c0 -78 -72 -116 -163 -134v-2c55 -25 88 -64 88 -129c0 -103 -97 -154 -188 -154c-63 0 -124 12 -180 43l32 50c36 -22 84 -33 126 -33c63 0 130 21 130 97
c0 116 -261 103 -261 252c0 79 73 114 157 132v2c-46 22 -81 60 -81 116c0 100 94 146 183 146c57 0 114 -13 166 -37zM196 250l84 -43c117 38 137 65 137 109c0 24 -16 43 -37 53l-101 49c-105 -34 -134 -58 -134 -101c0 -35 16 -49 51 -67z" />
    <glyph glyph-name="currency" unicode="&#xa4;" 
d="M27 134l56 56c-34 41 -53 94 -53 151s19 110 53 152l-56 55l44 44l56 -56c41 34 94 53 151 53s110 -19 151 -53l56 56l44 -44l-56 -56c34 -41 53 -94 53 -151s-19 -109 -53 -151l56 -56l-44 -44l-56 56c-40 -33 -93 -53 -151 -53c-57 0 -110 19 -151 53l-56 -56zM96 341
c0 -101 81 -182 182 -182s182 81 182 182s-81 182 -182 182s-182 -81 -182 -182z" />
    <glyph glyph-name="quotesingle" unicode="'" horiz-adv-x="278" 
d="M148 452v240h66v-240h-66z" />
    <glyph glyph-name="quotedblleft" unicode="&#x201c;" 
d="M321 452l113 240h41l-52 -240h-102zM153 452l113 240h41l-52 -240h-102z" />
    <glyph glyph-name="guillemotleft" unicode="&#xab;" 
d="M256 277l205 181l31 -26l-158 -162l110 -174l-41 -18zM64 277l205 181l31 -26l-158 -162l110 -174l-41 -18z" />
    <glyph glyph-name="guilsinglleft" unicode="&#x2039;" horiz-adv-x="278" 
d="M13 277l205 181l31 -26l-158 -162l110 -174l-41 -18z" />
    <glyph glyph-name="guilsinglright" unicode="&#x203a;" horiz-adv-x="278" 
d="M13 104l158 162l-110 174l41 18l147 -199l-205 -181z" />
    <glyph glyph-name="endash" unicode="&#x2013;" horiz-adv-x="500" 
d="M-15 232l16 72h500l-16 -72h-500z" />
    <glyph glyph-name="dagger" unicode="&#x2020;" 
d="M176 0l94 444h-185l11 54h186l41 194h73l-41 -194h184l-11 -54h-185l-94 -444h-73z" />
    <glyph glyph-name="daggerdbl" unicode="&#x2021;" 
d="M176 0l38 180h-187l10 48h187l51 236h-187l10 48h187l38 180h73l-38 -180h181l-10 -48h-181l-51 -236h181l-10 -48h-181l-38 -180h-73z" />
    <glyph glyph-name="periodcentered" unicode="&#xb7;" horiz-adv-x="278" 
d="M76 292c0 35 28 63 63 63s63 -28 63 -63s-28 -63 -63 -63s-63 28 -63 63z" />
    <glyph glyph-name="paragraph" unicode="&#xb6;" horiz-adv-x="600" 
d="M146 -85l91 437c-103 0 -163 56 -161 140c0 129 114 200 238 200h233l-162 -777h-65l151 723h-108l-151 -723h-66z" />
    <glyph glyph-name="bullet" unicode="&#x2022;" horiz-adv-x="500" 
d="M77 346c0 96 77 173 173 173s173 -77 173 -173s-77 -173 -173 -173s-173 77 -173 173z" />
    <glyph glyph-name="quotesinglbase" unicode="&#x201a;" horiz-adv-x="278" 
d="M-9 -144l52 240h102l-113 -240h-41z" />
    <glyph glyph-name="quotedblbase" unicode="&#x201e;" 
d="M61 -144l52 240h102l-113 -240h-41zM229 -144l52 240h102l-113 -240h-41z" />
    <glyph glyph-name="quotedblright" unicode="&#x201d;" 
d="M163 452l52 240h102l-113 -240h-41zM331 452l52 240h102l-113 -240h-41z" />
    <glyph glyph-name="guillemotright" unicode="&#xbb;" 
d="M64 104l158 162l-110 174l41 18l147 -199l-205 -181zM256 104l158 162l-110 174l41 18l147 -199l-205 -181z" />
    <glyph glyph-name="ellipsis" unicode="&#x2026;" horiz-adv-x="1000" 
d="M53 0l14 96h94l-14 -96h-94zM386 0l14 96h94l-14 -96h-94zM719 0l14 96h94l-14 -96h-94z" />
    <glyph glyph-name="perthousand" unicode="&#x2030;" horiz-adv-x="1000" 
d="M719 127c0 -55 29 -89 79 -89c66 0 109 53 109 130c0 55 -29 89 -79 89c-65 0 -109 -53 -109 -130zM62 -32l-35 22l594 724l36 -22zM125 514c0 -55 29 -89 79 -89c66 0 109 53 109 130c0 55 -29 89 -79 89c-65 0 -109 -53 -109 -130zM653 130c0 103 78 175 173 175
c91 0 147 -54 147 -140c0 -103 -78 -175 -172 -175c-91 0 -148 54 -148 140zM59 517c0 103 78 175 173 175c91 0 147 -54 147 -140c0 -103 -78 -175 -172 -175c-91 0 -148 54 -148 140zM302 130c0 103 78 175 173 175c91 0 147 -54 147 -140c0 -103 -78 -175 -172 -175
c-91 0 -148 54 -148 140zM368 127c0 -55 29 -89 79 -89c66 0 109 53 109 130c0 55 -29 89 -79 89c-65 0 -109 -53 -109 -130z" />
    <glyph glyph-name="questiondown" unicode="&#xbf;" horiz-adv-x="500" 
d="M350 -98l34 -53c-66 -35 -117 -57 -194 -57c-105 0 -188 61 -188 172c0 87 39 135 168 215c56 35 76 64 90 144h75c-25 -130 -41 -145 -168 -224c-54 -34 -85 -68 -85 -127c0 -72 41 -120 116 -120c54 0 107 21 152 50zM271 414l18 84h84l-18 -84h-84z" />
    <glyph glyph-name="grave" unicode="`" horiz-adv-x="278" 
d="M175 571l-101 143h101l67 -143h-67z" />
    <glyph glyph-name="acute" unicode="&#xb4;" horiz-adv-x="278" 
d="M134 571l94 143h112l-135 -143h-71z" />
    <glyph glyph-name="circumflex" unicode="&#x2c6;" horiz-adv-x="278" 
d="M48 571l133 143h86l75 -143h-74l-51 97l-87 -97h-82z" />
    <glyph glyph-name="tilde" unicode="&#x2dc;" horiz-adv-x="278" 
d="M341 692h52c-14 -52 -42 -114 -98 -114c-23 0 -51 12 -76 24c-26 12 -49 24 -66 24c-28 0 -41 -24 -50 -46h-52c14 48 42 112 98 112c24 0 51 -12 76 -25s50 -25 66 -25c28 0 41 24 50 50z" />
    <glyph glyph-name="macron" unicode="&#xaf;" horiz-adv-x="278" 
d="M81 604l11 60h270l-11 -60h-270z" />
    <glyph glyph-name="breve" unicode="&#x2d8;" horiz-adv-x="278" 
d="M82 714h48c0 -59 36 -84 91 -84c60 0 96 26 113 84h48c-14 -88 -78 -138 -166 -138c-93 0 -134 49 -134 138z" />
    <glyph glyph-name="dotaccent" unicode="&#x2d9;" horiz-adv-x="278" 
d="M139 580l20 102h88l-20 -102h-88z" />
    <glyph glyph-name="dieresis" unicode="&#xa8;" horiz-adv-x="278" 
d="M228 580l20 102h88l-20 -102h-88zM64 580l20 102h88l-20 -102h-88z" />
    <glyph glyph-name="ring" unicode="&#x2da;" horiz-adv-x="278" 
d="M117 656c0 56 46 102 102 102s102 -46 102 -102s-46 -102 -102 -102s-102 46 -102 102zM159 656c0 -33 27 -60 60 -60s60 27 60 60s-27 60 -60 60s-60 -27 -60 -60z" />
    <glyph glyph-name="cedilla" unicode="&#xb8;" horiz-adv-x="278" 
d="M12 -204l16 35c23 -9 43 -15 69 -15c35 0 57 15 57 45c0 26 -24 39 -49 39c-11 0 -26 -2 -39 -8l-17 18l76 90h42l-58 -66l2 -2c7 2 18 4 27 4c43 0 88 -21 88 -72c0 -64 -66 -90 -117 -90c-34 0 -66 7 -97 22z" />
    <glyph glyph-name="hungarumlaut" unicode="&#x2dd;" horiz-adv-x="278" 
d="M84 571l94 143h112l-135 -143h-71zM249 571l94 143h112l-135 -143h-71z" />
    <glyph glyph-name="ogonek" unicode="&#x2db;" horiz-adv-x="278" 
d="M146 0h46c-77 -64 -111 -101 -111 -141c0 -20 18 -37 48 -37c12 0 24 2 36 5l-4 -46c-16 -4 -36 -7 -64 -7c-41 0 -88 19 -88 75c0 60 53 107 137 151z" />
    <glyph glyph-name="caron" unicode="&#x2c7;" horiz-adv-x="278" 
d="M361 714l-133 -143h-86l-75 143h74l51 -97l87 97h82z" />
    <glyph glyph-name="emdash" unicode="&#x2014;" horiz-adv-x="1000" 
d="M-15 232l16 72h1000l-16 -72h-1000z" />
    <glyph glyph-name="AE" unicode="&#xc6;" horiz-adv-x="889" 
d="M410 0l52 248h-219l-197 -262l-64 42l519 664h382l-14 -60h-246l-52 -247h250l-12 -60h-250l-56 -265h274l-12 -60h-355zM475 308l69 330h-2l-255 -330h188z" />
    <glyph glyph-name="ordfeminine" unicode="&#xaa;" horiz-adv-x="325" 
d="M95 459c0 -24 15 -40 47 -40c26 0 51 11 88 37c4 26 11 58 19 83c-98 -12 -154 -40 -154 -80zM119 609l-21 36c58 33 97 47 152 47c43 0 76 -14 76 -60c0 -12 -3 -29 -12 -66c-10 -37 -32 -125 -32 -139c0 -9 5 -14 14 -14c7 0 16 3 30 12l13 -21
c-32 -20 -52 -27 -68 -27c-33 0 -42 21 -43 46c-27 -27 -58 -46 -104 -46c-56 0 -89 31 -89 78c0 94 137 113 221 120c4 17 10 39 10 48c0 20 -16 27 -39 27c-27 0 -78 -21 -108 -41z" />
    <glyph glyph-name="Lslash" unicode="&#x141;" horiz-adv-x="500" 
d="M28 0l63 297l-91 -46l15 69l91 46l69 326h84l-59 -278l165 84l-15 -69l-165 -84l-59 -279h305l-14 -66h-389z" />
    <glyph glyph-name="Oslash" unicode="&#xd8;" horiz-adv-x="833" 
d="M196 136l410 454c-39 36 -93 56 -160 56c-189 0 -300 -182 -300 -348c0 -65 18 -120 50 -162zM635 559l-408 -457c37 -35 93 -56 162 -56c187 0 298 182 298 348c0 66 -18 122 -52 165zM67 -14l78 88c-55 56 -85 135 -85 232c0 213 167 400 387 400c84 0 154 -21 208 -61
l77 87l34 -26l-78 -88c55 -56 85 -135 85 -232c0 -213 -167 -400 -387 -400c-85 0 -155 22 -208 61l-77 -87z" />
    <glyph glyph-name="OE" unicode="&#x152;" horiz-adv-x="1000" 
d="M146 269c0 -122 66 -223 194 -223c163 0 271 181 271 377c0 122 -66 223 -194 223c-163 0 -271 -181 -271 -377zM529 0l28 109l-2 2c-49 -83 -129 -125 -226 -125c-176 0 -269 127 -269 298c0 204 137 422 360 422c113 0 197 -56 232 -164h2l25 150h322l-13 -60h-239
l-52 -247h236l-13 -60h-237l-56 -265h282l-13 -60h-367z" />
    <glyph glyph-name="ordmasculine" unicode="&#xba;" horiz-adv-x="361" 
d="M116 501c0 -38 21 -82 75 -82c78 0 119 88 119 149c0 38 -21 82 -76 82c-77 0 -118 -89 -118 -149zM56 503c0 97 66 189 181 189c87 0 133 -54 133 -126c0 -97 -67 -189 -181 -189c-87 0 -133 54 -133 126z" />
    <glyph glyph-name="ae" unicode="&#xe6;" horiz-adv-x="778" 
d="M134 384l-33 50c89 54 150 78 209 78c67 0 95 -38 96 -92l2 -2c38 54 99 93 164 94c114 0 155 -90 155 -190c0 -24 -3 -48 -5 -72h-332c-4 -21 -6 -38 -6 -57c0 -73 32 -147 123 -147c56 0 110 27 150 61l28 -48c-50 -37 -116 -73 -187 -73c-73 0 -128 37 -160 94
c-56 -66 -110 -94 -189 -94c-81 0 -132 52 -132 131c0 152 211 183 311 195c8 39 18 62 18 89c0 36 -22 51 -47 51c-41 0 -119 -35 -165 -68zM97 123c0 -44 30 -77 76 -77c63 -3 113 33 149 75c-8 29 -10 58 -10 85c0 19 2 35 5 51c-80 -7 -220 -39 -220 -134zM402 304h251
c1 12 2 25 2 38c0 60 -18 116 -93 116c-79 0 -133 -85 -160 -154z" />
    <glyph glyph-name="dotlessi" unicode="&#x131;" horiz-adv-x="278" 
d="M30 0l105 498h80l-105 -498h-80z" />
    <glyph glyph-name="lslash" unicode="&#x142;" horiz-adv-x="278" 
d="M30 0l69 327l-78 -50l13 63l79 51l74 351h80l-62 -292l97 62l-13 -63l-97 -62l-82 -387h-80z" />
    <glyph glyph-name="oslash" unicode="&#xf8;" 
d="M126 113l257 306c-20 21 -48 33 -84 33c-127 0 -189 -148 -189 -259c0 -28 5 -57 16 -80zM13 -21l63 75c-30 36 -46 86 -46 143c0 161 103 315 273 315c51 0 93 -15 125 -40l61 73l30 -26l-63 -75c31 -37 46 -87 46 -143c0 -161 -103 -315 -273 -315
c-51 0 -93 14 -125 40l-61 -73zM406 385l-257 -306c20 -21 48 -33 84 -33c127 0 189 148 189 259c0 28 -5 57 -16 80z" />
    <glyph glyph-name="oe" unicode="&#x153;" horiz-adv-x="888" 
d="M110 193c0 -73 32 -147 123 -147c127 0 189 148 189 259c0 73 -32 147 -123 147c-127 0 -189 -148 -189 -259zM512 304h251c1 12 2 25 2 38c0 60 -18 116 -93 116c-79 0 -133 -85 -160 -154zM832 250h-332c-4 -21 -6 -38 -6 -57c0 -73 32 -147 123 -147
c56 0 110 27 150 61l28 -48c-50 -37 -116 -73 -187 -73c-85 -5 -156 52 -169 135h-2c-44 -91 -115 -135 -208 -135c-128 0 -199 90 -199 211c0 161 103 315 273 315c93 0 163 -55 175 -142h2c29 83 106 142 202 142c114 0 155 -90 155 -190c0 -24 -3 -48 -5 -72z" />
    <glyph glyph-name="germandbls" unicode="&#xdf;" 
d="M13 0l124 583c24 114 95 167 210 167c90 0 155 -45 155 -116c0 -107 -139 -160 -139 -213c0 -42 121 -113 121 -225c0 -119 -90 -202 -237 -202c-17 0 -35 1 -52 2l15 61c9 -2 21 -3 35 -3c85 0 159 43 159 133c0 106 -121 166 -121 231c0 76 139 121 139 213
c0 45 -38 65 -78 65c-76 0 -113 -51 -128 -119l-123 -577h-80z" />
    <glyph glyph-name="onesuperior" unicode="&#xb9;" horiz-adv-x="361" 
d="M160 277l85 351l-143 -78l-26 39l198 103l39 -10l-92 -405h-61z" />
    <glyph glyph-name="logicalnot" unicode="&#xac;" horiz-adv-x="600" 
d="M487 108v212h-440v66h506v-278h-66z" />
    <glyph glyph-name="mu" unicode="&#xb5;" 
d="M-36 -236l152 734h80l-66 -310c-10 -45 -14 -68 -14 -91c0 -37 25 -51 61 -51c42 0 99 36 181 113l73 339h80l-105 -498h-80l25 96l-2 2c-53 -56 -129 -112 -192 -112c-27 0 -46 8 -62 25l-51 -247h-80z" />
    <glyph glyph-name="trademark" unicode="&#x2122;" horiz-adv-x="990" 
d="M194 277v361h-130v54h326v-54h-130v-361h-66zM860 277v349h-2l-136 -349h-43l-136 349h-2v-349h-66v415h104l123 -315l121 315h103v-415h-66z" />
    <glyph glyph-name="Eth" unicode="&#xd0;" horiz-adv-x="722" 
d="M21 0l73 347h-68l13 60h68l60 285h184c270 0 311 -228 311 -299c0 -233 -177 -393 -445 -393h-196zM179 347l-61 -287h89c202 0 369 106 369 332c0 157 -105 240 -273 240h-64l-47 -225h225l-13 -60h-225z" />
    <glyph glyph-name="onehalf" unicode="&#xbd;" horiz-adv-x="834" 
d="M128 -10l447 729l45 -27l-447 -729zM120 277l85 351l-143 -78l-26 39l198 103l39 -10l-92 -405h-61zM526 333l-18 44c40 23 81 38 134 38c77 0 134 -38 134 -110c0 -57 -32 -101 -143 -192l-79 -63v-2h178l-10 -48h-261l-9 27l130 108c114 95 128 121 128 163
c0 48 -37 69 -79 69c-37 0 -73 -12 -105 -34z" />
    <glyph glyph-name="plusminus" unicode="&#xb1;" horiz-adv-x="600" 
d="M267 338v168h66v-168h220v-66h-220v-168h-66v168h-220v66h220zM47 0v66h506v-66h-506z" />
    <glyph glyph-name="Thorn" unicode="&#xde;" 
d="M221 512l-57 -271h44c152 0 232 43 232 164c0 63 -30 107 -126 107h-93zM28 0l146 692h84l-26 -120h104c136 0 190 -71 190 -166c0 -132 -80 -225 -278 -225h-98l-38 -181h-84z" />
    <glyph glyph-name="onequarter" unicode="&#xbc;" horiz-adv-x="834" 
d="M612 0l32 125h-190l-10 38l255 246h67l-56 -242h72l-8 -42h-73l-29 -125h-60zM654 167l48 188h-2l-193 -188h147zM128 -10l447 729l45 -27l-447 -729zM120 277l85 351l-143 -78l-26 39l198 103l39 -10l-92 -405h-61z" />
    <glyph glyph-name="divide" unicode="&#xf7;" horiz-adv-x="600" 
d="M47 220v66h506v-66h-506zM237 457c0 35 28 63 63 63s63 -28 63 -63s-28 -63 -63 -63s-63 28 -63 63zM237 49c0 35 28 63 63 63s63 -28 63 -63s-28 -63 -63 -63s-63 28 -63 63z" />
    <glyph glyph-name="brokenbar" unicode="&#xa6;" horiz-adv-x="222" 
d="M78 -14v286h66v-286h-66zM78 456v286h66v-286h-66z" />
    <glyph glyph-name="degree" unicode="&#xb0;" horiz-adv-x="400" 
d="M97 549c0 79 64 143 143 143s143 -64 143 -143s-64 -143 -143 -143s-143 64 -143 143zM151 549c0 -49 40 -89 89 -89s89 40 89 89s-40 89 -89 89s-89 -40 -89 -89z" />
    <glyph glyph-name="thorn" unicode="&#xfe;" 
d="M-39 -236l207 978h80l-70 -321l2 -2c46 51 107 93 173 93c99 0 149 -85 149 -173c0 -186 -153 -345 -332 -345c-26 0 -53 2 -79 9l-50 -239h-80zM164 349l-62 -293c21 -5 40 -8 61 -8c154 0 259 139 259 286c0 66 -31 112 -95 112c-47 0 -96 -34 -163 -97z" />
    <glyph glyph-name="threequarters" unicode="&#xbe;" horiz-adv-x="834" 
d="M612 0l32 125h-190l-10 38l255 246h67l-56 -242h72l-8 -42h-73l-29 -125h-60zM654 167l48 188h-2l-193 -188h147zM174 -10l447 729l45 -27l-447 -729zM124 633l-10 43c31 9 63 16 108 16c59 0 127 -30 127 -95c0 -55 -43 -95 -109 -111v-2c46 -9 77 -44 77 -92
c0 -65 -66 -123 -170 -123c-50 0 -85 5 -117 18l18 40c32 -13 58 -16 81 -16c90 0 122 43 122 84c0 63 -58 75 -115 75h-30l6 42h48c58 0 129 21 129 81c0 37 -36 57 -84 57c-25 0 -57 -8 -81 -17z" />
    <glyph glyph-name="twosuperior" unicode="&#xb2;" horiz-adv-x="361" 
d="M99 610l-18 44c40 23 81 38 134 38c77 0 134 -38 134 -110c0 -57 -32 -101 -143 -192l-79 -63v-2h178l-10 -48h-261l-9 27l130 108c114 95 128 121 128 163c0 48 -37 69 -79 69c-37 0 -73 -12 -105 -34z" />
    <glyph glyph-name="registered" unicode="&#xae;" horiz-adv-x="800" 
d="M257 136v420h175c88 0 132 -39 132 -119c0 -75 -47 -107 -109 -114l122 -187h-68l-114 185h-78v-185h-60zM317 508v-139h75c62 0 112 5 112 71c0 56 -39 68 -96 68h-91zM100 347c0 -174 130 -307 300 -307s300 133 300 307c0 172 -130 305 -300 305s-300 -133 -300 -305z
M40 346c0 199 161 360 360 360s360 -161 360 -360s-161 -360 -360 -360s-360 161 -360 360z" />
    <glyph glyph-name="minus" unicode="&#x2212;" horiz-adv-x="600" 
d="M553 220h-506v66h506v-66z" />
    <glyph glyph-name="eth" unicode="&#xf0;" 
d="M227 578l-27 43l136 47c-29 35 -65 59 -90 74l47 38c39 -23 77 -51 110 -89l129 45l25 -42l-124 -44c55 -84 75 -183 75 -288c0 -164 -75 -376 -279 -376c-128 0 -199 90 -199 211c0 161 103 315 273 315c52 0 103 -23 129 -84l2 2c-11 87 -30 148 -66 197zM110 193
c0 -73 32 -147 123 -147c127 0 189 148 189 259c0 73 -32 147 -123 147c-127 0 -189 -148 -189 -259z" />
    <glyph glyph-name="multiply" unicode="&#xd7;" horiz-adv-x="600" 
d="M255 253l-183 182l46 46l182 -183l182 183l46 -46l-182 -182l182 -182l-46 -46l-182 183l-182 -183l-46 46z" />
    <glyph glyph-name="threesuperior" unicode="&#xb3;" horiz-adv-x="361" 
d="M124 633l-10 43c31 9 63 16 108 16c59 0 127 -30 127 -95c0 -55 -43 -95 -109 -111v-2c46 -9 77 -44 77 -92c0 -65 -66 -123 -170 -123c-50 0 -85 5 -117 18l18 40c32 -13 58 -16 81 -16c90 0 122 43 122 84c0 63 -58 75 -115 75h-30l6 42h48c58 0 129 21 129 81
c0 37 -36 57 -84 57c-25 0 -57 -8 -81 -17z" />
    <glyph glyph-name="copyright" unicode="&#xa9;" horiz-adv-x="800" 
d="M100 347c0 -174 130 -307 300 -307s300 133 300 307c0 172 -130 305 -300 305s-300 -133 -300 -305zM530 277h62c-20 -93 -91 -154 -180 -154c-131 0 -216 98 -216 224c0 128 80 223 213 223c92 0 168 -53 182 -149h-61c-11 52 -56 89 -120 89c-96 0 -148 -70 -148 -161
c0 -90 57 -166 150 -166c64 0 109 39 118 94zM40 346c0 199 161 360 360 360s360 -161 360 -360s-161 -360 -360 -360s-360 161 -360 360z" />
    <glyph glyph-name="Aacute" unicode="&#xc1;" horiz-adv-x="667" 
d="M452 294l-59 302h-2l-155 -302h216zM3 16l365 676h75l154 -686l-84 -20l-49 248h-259l-127 -248zM349 735l94 143h112l-135 -143h-71z" />
    <glyph glyph-name="Acircumflex" unicode="&#xc2;" horiz-adv-x="667" 
d="M452 294l-59 302h-2l-155 -302h216zM3 16l365 676h75l154 -686l-84 -20l-49 248h-259l-127 -248zM263 735l133 143h86l75 -143h-74l-51 97l-87 -97h-82z" />
    <glyph glyph-name="Adieresis" unicode="&#xc4;" horiz-adv-x="667" 
d="M452 294l-59 302h-2l-155 -302h216zM3 16l365 676h75l154 -686l-84 -20l-49 248h-259l-127 -248zM443 744l20 102h88l-20 -102h-88zM279 744l20 102h88l-20 -102h-88z" />
    <glyph glyph-name="Agrave" unicode="&#xc0;" horiz-adv-x="667" 
d="M452 294l-59 302h-2l-155 -302h216zM3 16l365 676h75l154 -686l-84 -20l-49 248h-259l-127 -248zM390 735l-101 143h101l67 -143h-67z" />
    <glyph glyph-name="Aring" unicode="&#xc5;" horiz-adv-x="667" 
d="M452 294l-59 302h-2l-155 -302h216zM3 16l365 676h75l154 -686l-84 -20l-49 248h-259l-127 -248zM312 830c0 56 46 102 102 102s102 -46 102 -102s-46 -102 -102 -102s-102 46 -102 102zM354 830c0 -33 27 -60 60 -60s60 27 60 60s-27 60 -60 60s-60 -27 -60 -60z" />
    <glyph glyph-name="Atilde" unicode="&#xc3;" horiz-adv-x="667" 
d="M452 294l-59 302h-2l-155 -302h216zM3 16l365 676h75l154 -686l-84 -20l-49 248h-259l-127 -248zM541 856h52c-14 -52 -42 -114 -98 -114c-23 0 -51 12 -76 24c-26 12 -49 24 -66 24c-28 0 -41 -24 -50 -46h-52c14 48 42 112 98 112c24 0 51 -12 76 -25s50 -25 66 -25
c28 0 41 24 50 50z" />
    <glyph glyph-name="Ccedilla" unicode="&#xc7;" horiz-adv-x="667" 
d="M561 87l24 -58c-74 -32 -151 -43 -203 -43c-11 0 -21 0 -31 1l-47 -53l2 -2c7 2 18 4 27 4c43 0 88 -21 88 -72c0 -64 -66 -90 -117 -90c-34 0 -66 7 -97 22l16 35c23 -9 43 -15 69 -15c35 0 57 15 57 45c0 26 -24 39 -49 39c-11 0 -26 -2 -39 -8l-17 18l69 81
c-159 26 -253 144 -253 317c0 192 150 398 442 398c61 0 109 -6 160 -24l-25 -59c-42 17 -85 23 -133 23c-196 0 -358 -132 -358 -340c0 -154 91 -260 248 -260c46 0 120 20 167 41z" />
    <glyph glyph-name="Eacute" unicode="&#xc9;" horiz-adv-x="500" 
d="M28 0l146 692h337l-13 -60h-252l-52 -247h245l-13 -60h-245l-56 -265h293l-13 -60h-377zM295 735l94 143h112l-135 -143h-71z" />
    <glyph glyph-name="Ecircumflex" unicode="&#xca;" horiz-adv-x="500" 
d="M28 0l146 692h337l-13 -60h-252l-52 -247h245l-13 -60h-245l-56 -265h293l-13 -60h-377zM209 735l133 143h86l75 -143h-74l-51 97l-87 -97h-82z" />
    <glyph glyph-name="Edieresis" unicode="&#xcb;" horiz-adv-x="500" 
d="M28 0l146 692h337l-13 -60h-252l-52 -247h245l-13 -60h-245l-56 -265h293l-13 -60h-377zM389 744l20 102h88l-20 -102h-88zM225 744l20 102h88l-20 -102h-88z" />
    <glyph glyph-name="Egrave" unicode="&#xc8;" horiz-adv-x="500" 
d="M28 0l146 692h337l-13 -60h-252l-52 -247h245l-13 -60h-245l-56 -265h293l-13 -60h-377zM336 735l-101 143h101l67 -143h-67z" />
    <glyph glyph-name="Iacute" unicode="&#xcd;" horiz-adv-x="278" 
d="M28 0l147 692h84l-147 -692h-84zM154 735l94 143h112l-135 -143h-71z" />
    <glyph glyph-name="Icircumflex" unicode="&#xce;" horiz-adv-x="278" 
d="M28 0l147 692h84l-147 -692h-84zM68 735l133 143h86l75 -143h-74l-51 97l-87 -97h-82z" />
    <glyph glyph-name="Idieresis" unicode="&#xcf;" horiz-adv-x="278" 
d="M28 0l147 692h84l-147 -692h-84zM248 744l20 102h88l-20 -102h-88zM84 744l20 102h88l-20 -102h-88z" />
    <glyph glyph-name="Igrave" unicode="&#xcc;" horiz-adv-x="278" 
d="M28 0l147 692h84l-147 -692h-84zM195 735l-101 143h101l67 -143h-67z" />
    <glyph glyph-name="Ntilde" unicode="&#xd1;" horiz-adv-x="722" 
d="M25 0l144 682l77 24l261 -600h2l114 586h83l-145 -686l-79 -20l-259 592h-2l-113 -578h-83zM568 856h52c-14 -52 -42 -114 -98 -114c-23 0 -51 12 -76 24c-26 12 -49 24 -66 24c-28 0 -41 -24 -50 -46h-52c14 48 42 112 98 112c24 0 51 -12 76 -25s50 -25 66 -25
c28 0 41 24 50 50z" />
    <glyph glyph-name="Oacute" unicode="&#xd3;" horiz-adv-x="833" 
d="M60 306c0 213 167 400 387 400c204 0 326 -124 326 -320c0 -213 -167 -400 -387 -400c-204 0 -326 124 -326 320zM146 298c0 -150 96 -252 243 -252c187 0 298 182 298 348c0 150 -96 252 -241 252c-189 0 -300 -182 -300 -348zM407 735l94 143h112l-135 -143h-71z" />
    <glyph glyph-name="Ocircumflex" unicode="&#xd4;" horiz-adv-x="833" 
d="M60 306c0 213 167 400 387 400c204 0 326 -124 326 -320c0 -213 -167 -400 -387 -400c-204 0 -326 124 -326 320zM146 298c0 -150 96 -252 243 -252c187 0 298 182 298 348c0 150 -96 252 -241 252c-189 0 -300 -182 -300 -348zM321 735l133 143h86l75 -143h-74l-51 97
l-87 -97h-82z" />
    <glyph glyph-name="Odieresis" unicode="&#xd6;" horiz-adv-x="833" 
d="M60 306c0 213 167 400 387 400c204 0 326 -124 326 -320c0 -213 -167 -400 -387 -400c-204 0 -326 124 -326 320zM146 298c0 -150 96 -252 243 -252c187 0 298 182 298 348c0 150 -96 252 -241 252c-189 0 -300 -182 -300 -348zM501 744l20 102h88l-20 -102h-88zM337 744
l20 102h88l-20 -102h-88z" />
    <glyph glyph-name="Ograve" unicode="&#xd2;" horiz-adv-x="833" 
d="M60 306c0 213 167 400 387 400c204 0 326 -124 326 -320c0 -213 -167 -400 -387 -400c-204 0 -326 124 -326 320zM146 298c0 -150 96 -252 243 -252c187 0 298 182 298 348c0 150 -96 252 -241 252c-189 0 -300 -182 -300 -348zM448 735l-101 143h101l67 -143h-67z" />
    <glyph glyph-name="Otilde" unicode="&#xd5;" horiz-adv-x="833" 
d="M60 306c0 213 167 400 387 400c204 0 326 -124 326 -320c0 -213 -167 -400 -387 -400c-204 0 -326 124 -326 320zM146 298c0 -150 96 -252 243 -252c187 0 298 182 298 348c0 150 -96 252 -241 252c-189 0 -300 -182 -300 -348zM614 856h52c-14 -52 -42 -114 -98 -114
c-23 0 -51 12 -76 24c-26 12 -49 24 -66 24c-28 0 -41 -24 -50 -46h-52c14 48 42 112 98 112c24 0 51 -12 76 -25s50 -25 66 -25c28 0 41 24 50 50z" />
    <glyph glyph-name="Scaron" unicode="&#x160;" horiz-adv-x="500" 
d="M-4 23l30 62c52 -26 108 -39 168 -39c88 0 152 49 152 134c0 150 -263 125 -263 331c0 116 94 195 251 195c60 0 118 -8 170 -24l-28 -60c-42 16 -88 24 -141 24c-92 0 -166 -45 -166 -129c0 -156 263 -128 263 -335c0 -65 -38 -196 -236 -196c-75 0 -131 11 -200 37z
M492 878l-133 -143h-86l-75 143h74l51 -97l87 97h82z" />
    <glyph glyph-name="Uacute" unicode="&#xda;" horiz-adv-x="722" 
d="M532 285l87 407h84l-99 -464c-33 -153 -122 -242 -292 -242c-146 0 -238 73 -238 202c0 37 9 81 33 192l67 312h84l-73 -341c-22 -102 -25 -138 -25 -162c0 -74 49 -137 161 -137c139 0 179 83 211 233zM381 735l94 143h112l-135 -143h-71z" />
    <glyph glyph-name="Ucircumflex" unicode="&#xdb;" horiz-adv-x="722" 
d="M532 285l87 407h84l-99 -464c-33 -153 -122 -242 -292 -242c-146 0 -238 73 -238 202c0 37 9 81 33 192l67 312h84l-73 -341c-22 -102 -25 -138 -25 -162c0 -74 49 -137 161 -137c139 0 179 83 211 233zM295 735l133 143h86l75 -143h-74l-51 97l-87 -97h-82z" />
    <glyph glyph-name="Udieresis" unicode="&#xdc;" horiz-adv-x="722" 
d="M532 285l87 407h84l-99 -464c-33 -153 -122 -242 -292 -242c-146 0 -238 73 -238 202c0 37 9 81 33 192l67 312h84l-73 -341c-22 -102 -25 -138 -25 -162c0 -74 49 -137 161 -137c139 0 179 83 211 233zM475 744l20 102h88l-20 -102h-88zM311 744l20 102h88l-20 -102h-88
z" />
    <glyph glyph-name="Ugrave" unicode="&#xd9;" horiz-adv-x="722" 
d="M532 285l87 407h84l-99 -464c-33 -153 -122 -242 -292 -242c-146 0 -238 73 -238 202c0 37 9 81 33 192l67 312h84l-73 -341c-22 -102 -25 -138 -25 -162c0 -74 49 -137 161 -137c139 0 179 83 211 233zM422 735l-101 143h101l67 -143h-67z" />
    <glyph glyph-name="Yacute" unicode="&#xdd;" horiz-adv-x="611" 
d="M211 0l64 306l-177 376l80 24l147 -329l262 329l67 -39l-298 -374l-61 -293h-84zM321 735l94 143h112l-135 -143h-71z" />
    <glyph glyph-name="Ydieresis" unicode="&#x178;" horiz-adv-x="611" 
d="M211 0l64 306l-177 376l80 24l147 -329l262 329l67 -39l-298 -374l-61 -293h-84zM415 744l20 102h88l-20 -102h-88zM251 744l20 102h88l-20 -102h-88z" />
    <glyph glyph-name="Zcaron" unicode="&#x17d;" 
d="M30 0l-20 54l447 572h-353l14 66h419l16 -54l-438 -572h357l-13 -66h-429zM520 878l-133 -143h-86l-75 143h74l51 -97l87 97h82z" />
    <glyph glyph-name="aacute" unicode="&#xe1;" horiz-adv-x="500" 
d="M85 123c0 -44 30 -77 76 -77s74 19 129 73c7 43 19 96 31 144c-150 -19 -236 -67 -236 -140zM122 384l-33 50c89 54 150 78 220 78c66 0 117 -24 117 -100c0 -20 -4 -49 -19 -110c-15 -62 -48 -208 -48 -234c0 -14 10 -22 20 -22c11 0 25 6 47 20l20 -35
c-49 -34 -80 -45 -105 -45c-48 0 -54 36 -54 77c-40 -45 -87 -77 -150 -77c-81 0 -132 52 -132 131c0 152 211 183 327 195c7 28 14 69 14 89c0 39 -25 51 -59 51c-41 0 -119 -35 -165 -68zM245 571l94 143h112l-135 -143h-71z" />
    <glyph glyph-name="acircumflex" unicode="&#xe2;" horiz-adv-x="500" 
d="M85 123c0 -44 30 -77 76 -77s74 19 129 73c7 43 19 96 31 144c-150 -19 -236 -67 -236 -140zM122 384l-33 50c89 54 150 78 220 78c66 0 117 -24 117 -100c0 -20 -4 -49 -19 -110c-15 -62 -48 -208 -48 -234c0 -14 10 -22 20 -22c11 0 25 6 47 20l20 -35
c-49 -34 -80 -45 -105 -45c-48 0 -54 36 -54 77c-40 -45 -87 -77 -150 -77c-81 0 -132 52 -132 131c0 152 211 183 327 195c7 28 14 69 14 89c0 39 -25 51 -59 51c-41 0 -119 -35 -165 -68zM159 571l133 143h86l75 -143h-74l-51 97l-87 -97h-82z" />
    <glyph glyph-name="adieresis" unicode="&#xe4;" horiz-adv-x="500" 
d="M85 123c0 -44 30 -77 76 -77s74 19 129 73c7 43 19 96 31 144c-150 -19 -236 -67 -236 -140zM122 384l-33 50c89 54 150 78 220 78c66 0 117 -24 117 -100c0 -20 -4 -49 -19 -110c-15 -62 -48 -208 -48 -234c0 -14 10 -22 20 -22c11 0 25 6 47 20l20 -35
c-49 -34 -80 -45 -105 -45c-48 0 -54 36 -54 77c-40 -45 -87 -77 -150 -77c-81 0 -132 52 -132 131c0 152 211 183 327 195c7 28 14 69 14 89c0 39 -25 51 -59 51c-41 0 -119 -35 -165 -68zM339 580l20 102h88l-20 -102h-88zM175 580l20 102h88l-20 -102h-88z" />
    <glyph glyph-name="agrave" unicode="&#xe0;" horiz-adv-x="500" 
d="M85 123c0 -44 30 -77 76 -77s74 19 129 73c7 43 19 96 31 144c-150 -19 -236 -67 -236 -140zM122 384l-33 50c89 54 150 78 220 78c66 0 117 -24 117 -100c0 -20 -4 -49 -19 -110c-15 -62 -48 -208 -48 -234c0 -14 10 -22 20 -22c11 0 25 6 47 20l20 -35
c-49 -34 -80 -45 -105 -45c-48 0 -54 36 -54 77c-40 -45 -87 -77 -150 -77c-81 0 -132 52 -132 131c0 152 211 183 327 195c7 28 14 69 14 89c0 39 -25 51 -59 51c-41 0 -119 -35 -165 -68zM286 571l-101 143h101l67 -143h-67z" />
    <glyph glyph-name="aring" unicode="&#xe5;" horiz-adv-x="500" 
d="M85 123c0 -44 30 -77 76 -77s74 19 129 73c7 43 19 96 31 144c-150 -19 -236 -67 -236 -140zM122 384l-33 50c89 54 150 78 220 78c66 0 117 -24 117 -100c0 -20 -4 -49 -19 -110c-15 -62 -48 -208 -48 -234c0 -14 10 -22 20 -22c11 0 25 6 47 20l20 -35
c-49 -34 -80 -45 -105 -45c-48 0 -54 36 -54 77c-40 -45 -87 -77 -150 -77c-81 0 -132 52 -132 131c0 152 211 183 327 195c7 28 14 69 14 89c0 39 -25 51 -59 51c-41 0 -119 -35 -165 -68zM216 656c0 56 46 102 102 102s102 -46 102 -102s-46 -102 -102 -102
s-102 46 -102 102zM258 656c0 -33 27 -60 60 -60s60 27 60 60s-27 60 -60 60s-60 -27 -60 -60z" />
    <glyph glyph-name="atilde" unicode="&#xe3;" horiz-adv-x="500" 
d="M85 123c0 -44 30 -77 76 -77s74 19 129 73c7 43 19 96 31 144c-150 -19 -236 -67 -236 -140zM122 384l-33 50c89 54 150 78 220 78c66 0 117 -24 117 -100c0 -20 -4 -49 -19 -110c-15 -62 -48 -208 -48 -234c0 -14 10 -22 20 -22c11 0 25 6 47 20l20 -35
c-49 -34 -80 -45 -105 -45c-48 0 -54 36 -54 77c-40 -45 -87 -77 -150 -77c-81 0 -132 52 -132 131c0 152 211 183 327 195c7 28 14 69 14 89c0 39 -25 51 -59 51c-41 0 -119 -35 -165 -68zM420 692h52c-14 -52 -42 -114 -98 -114c-23 0 -51 12 -76 24c-26 12 -49 24 -66 24
c-28 0 -41 -24 -50 -46h-52c14 48 42 112 98 112c24 0 51 -12 76 -25s50 -25 66 -25c28 0 41 24 50 50z" />
    <glyph glyph-name="ccedilla" unicode="&#xe7;" horiz-adv-x="444" 
d="M459 506l-22 -59c-17 3 -28 5 -57 5c-148 0 -270 -109 -270 -259c0 -73 32 -147 118 -147c54 0 102 20 148 52l32 -43c-44 -31 -104 -65 -170 -69l-46 -52l2 -2c7 2 18 4 27 4c43 0 88 -21 88 -72c0 -64 -66 -90 -117 -90c-34 0 -66 7 -97 22l16 35c23 -9 43 -15 69 -15
c35 0 57 15 57 45c0 26 -24 39 -49 39c-11 0 -26 -2 -39 -8l-17 18l65 77c-111 11 -167 94 -167 189c0 213 162 336 352 336c26 0 51 -3 77 -6z" />
    <glyph glyph-name="eacute" unicode="&#xe9;" horiz-adv-x="500" 
d="M128 304h251c1 12 2 25 2 38c0 60 -18 116 -93 116c-79 0 -133 -85 -160 -154zM448 250h-332c-4 -21 -6 -38 -6 -57c0 -73 32 -147 123 -147c56 0 110 27 150 61l28 -48c-50 -37 -116 -73 -187 -73c-129 0 -194 88 -194 213c0 143 110 313 268 313
c114 0 155 -90 155 -190c0 -24 -3 -48 -5 -72zM245 571l94 143h112l-135 -143h-71z" />
    <glyph glyph-name="ecircumflex" unicode="&#xea;" horiz-adv-x="500" 
d="M128 304h251c1 12 2 25 2 38c0 60 -18 116 -93 116c-79 0 -133 -85 -160 -154zM448 250h-332c-4 -21 -6 -38 -6 -57c0 -73 32 -147 123 -147c56 0 110 27 150 61l28 -48c-50 -37 -116 -73 -187 -73c-129 0 -194 88 -194 213c0 143 110 313 268 313
c114 0 155 -90 155 -190c0 -24 -3 -48 -5 -72zM159 571l133 143h86l75 -143h-74l-51 97l-87 -97h-82z" />
    <glyph glyph-name="edieresis" unicode="&#xeb;" horiz-adv-x="500" 
d="M128 304h251c1 12 2 25 2 38c0 60 -18 116 -93 116c-79 0 -133 -85 -160 -154zM448 250h-332c-4 -21 -6 -38 -6 -57c0 -73 32 -147 123 -147c56 0 110 27 150 61l28 -48c-50 -37 -116 -73 -187 -73c-129 0 -194 88 -194 213c0 143 110 313 268 313
c114 0 155 -90 155 -190c0 -24 -3 -48 -5 -72zM339 580l20 102h88l-20 -102h-88zM175 580l20 102h88l-20 -102h-88z" />
    <glyph glyph-name="egrave" unicode="&#xe8;" horiz-adv-x="500" 
d="M128 304h251c1 12 2 25 2 38c0 60 -18 116 -93 116c-79 0 -133 -85 -160 -154zM448 250h-332c-4 -21 -6 -38 -6 -57c0 -73 32 -147 123 -147c56 0 110 27 150 61l28 -48c-50 -37 -116 -73 -187 -73c-129 0 -194 88 -194 213c0 143 110 313 268 313
c114 0 155 -90 155 -190c0 -24 -3 -48 -5 -72zM286 571l-101 143h101l67 -143h-67z" />
    <glyph glyph-name="iacute" unicode="&#xed;" horiz-adv-x="278" 
d="M30 0l105 498h80l-105 -498h-80zM134 571l94 143h112l-135 -143h-71z" />
    <glyph glyph-name="icircumflex" unicode="&#xee;" horiz-adv-x="278" 
d="M30 0l105 498h80l-105 -498h-80zM48 571l133 143h86l75 -143h-74l-51 97l-87 -97h-82z" />
    <glyph glyph-name="idieresis" unicode="&#xef;" horiz-adv-x="278" 
d="M30 0l105 498h80l-105 -498h-80zM228 580l20 102h88l-20 -102h-88zM64 580l20 102h88l-20 -102h-88z" />
    <glyph glyph-name="igrave" unicode="&#xec;" horiz-adv-x="278" 
d="M30 0l105 498h80l-105 -498h-80zM175 571l-101 143h101l67 -143h-67z" />
    <glyph glyph-name="ntilde" unicode="&#xf1;" 
d="M13 0l105 498h80l-25 -96l2 -2c49 56 129 112 204 112c56 0 109 -28 109 -91c0 -28 -4 -56 -12 -96l-68 -325h-80l66 310c10 45 14 68 14 91c0 37 -25 51 -61 51c-42 0 -99 -36 -181 -113l-73 -339h-80zM448 692h52c-14 -52 -42 -114 -98 -114c-23 0 -51 12 -76 24
c-26 12 -49 24 -66 24c-28 0 -41 -24 -50 -46h-52c14 48 42 112 98 112c24 0 51 -12 76 -25s50 -25 66 -25c28 0 41 24 50 50z" />
    <glyph glyph-name="oacute" unicode="&#xf3;" 
d="M110 193c0 -73 32 -147 123 -147c127 0 189 148 189 259c0 73 -32 147 -123 147c-127 0 -189 -148 -189 -259zM30 197c0 161 103 315 273 315c128 0 199 -90 199 -211c0 -161 -103 -315 -273 -315c-128 0 -199 90 -199 211zM273 571l94 143h112l-135 -143h-71z" />
    <glyph glyph-name="ocircumflex" unicode="&#xf4;" 
d="M110 193c0 -73 32 -147 123 -147c127 0 189 148 189 259c0 73 -32 147 -123 147c-127 0 -189 -148 -189 -259zM30 197c0 161 103 315 273 315c128 0 199 -90 199 -211c0 -161 -103 -315 -273 -315c-128 0 -199 90 -199 211zM187 571l133 143h86l75 -143h-74l-51 97
l-87 -97h-82z" />
    <glyph glyph-name="odieresis" unicode="&#xf6;" 
d="M110 193c0 -73 32 -147 123 -147c127 0 189 148 189 259c0 73 -32 147 -123 147c-127 0 -189 -148 -189 -259zM30 197c0 161 103 315 273 315c128 0 199 -90 199 -211c0 -161 -103 -315 -273 -315c-128 0 -199 90 -199 211zM367 580l20 102h88l-20 -102h-88zM203 580
l20 102h88l-20 -102h-88z" />
    <glyph glyph-name="ograve" unicode="&#xf2;" 
d="M110 193c0 -73 32 -147 123 -147c127 0 189 148 189 259c0 73 -32 147 -123 147c-127 0 -189 -148 -189 -259zM30 197c0 161 103 315 273 315c128 0 199 -90 199 -211c0 -161 -103 -315 -273 -315c-128 0 -199 90 -199 211zM314 571l-101 143h101l67 -143h-67z" />
    <glyph glyph-name="otilde" unicode="&#xf5;" 
d="M110 193c0 -73 32 -147 123 -147c127 0 189 148 189 259c0 73 -32 147 -123 147c-127 0 -189 -148 -189 -259zM30 197c0 161 103 315 273 315c128 0 199 -90 199 -211c0 -161 -103 -315 -273 -315c-128 0 -199 90 -199 211zM448 692h52c-14 -52 -42 -114 -98 -114
c-23 0 -51 12 -76 24c-26 12 -49 24 -66 24c-28 0 -41 -24 -50 -46h-52c14 48 42 112 98 112c24 0 51 -12 76 -25s50 -25 66 -25c28 0 41 24 50 50z" />
    <glyph glyph-name="scaron" unicode="&#x161;" horiz-adv-x="389" 
d="M-11 12l23 51c33 -16 67 -23 104 -23c56 0 122 22 122 92c0 97 -184 83 -184 225c0 90 74 155 203 155c43 0 81 -7 119 -20l-21 -56c-34 10 -69 16 -96 16c-89 0 -125 -39 -125 -91c0 -93 184 -84 184 -224c0 -100 -92 -151 -195 -151c-52 0 -96 7 -134 26zM417 714
l-133 -143h-86l-75 143h74l51 -97l87 97h82z" />
    <glyph glyph-name="uacute" unicode="&#xfa;" 
d="M48 173l68 325h80l-66 -310c-10 -45 -14 -68 -14 -91c0 -37 25 -51 61 -51c42 0 99 36 181 113l73 339h80l-105 -498h-80l25 96l-2 2c-49 -56 -129 -112 -204 -112c-56 0 -109 28 -109 91c0 28 4 56 12 96zM273 571l94 143h112l-135 -143h-71z" />
    <glyph glyph-name="ucircumflex" unicode="&#xfb;" 
d="M48 173l68 325h80l-66 -310c-10 -45 -14 -68 -14 -91c0 -37 25 -51 61 -51c42 0 99 36 181 113l73 339h80l-105 -498h-80l25 96l-2 2c-49 -56 -129 -112 -204 -112c-56 0 -109 28 -109 91c0 28 4 56 12 96zM187 571l133 143h86l75 -143h-74l-51 97l-87 -97h-82z" />
    <glyph glyph-name="udieresis" unicode="&#xfc;" 
d="M48 173l68 325h80l-66 -310c-10 -45 -14 -68 -14 -91c0 -37 25 -51 61 -51c42 0 99 36 181 113l73 339h80l-105 -498h-80l25 96l-2 2c-49 -56 -129 -112 -204 -112c-56 0 -109 28 -109 91c0 28 4 56 12 96zM367 580l20 102h88l-20 -102h-88zM203 580l20 102h88l-20 -102
h-88z" />
    <glyph glyph-name="ugrave" unicode="&#xf9;" 
d="M48 173l68 325h80l-66 -310c-10 -45 -14 -68 -14 -91c0 -37 25 -51 61 -51c42 0 99 36 181 113l73 339h80l-105 -498h-80l25 96l-2 2c-49 -56 -129 -112 -204 -112c-56 0 -109 28 -109 91c0 28 4 56 12 96zM314 571l-101 143h101l67 -143h-67z" />
    <glyph glyph-name="yacute" unicode="&#xfd;" horiz-adv-x="500" 
d="M12 -219l137 229l-106 482l80 20l78 -408l228 408l68 -31l-297 -517c-51 -88 -81 -130 -132 -200zM245 571l94 143h112l-135 -143h-71z" />
    <glyph glyph-name="ydieresis" unicode="&#xff;" horiz-adv-x="500" 
d="M12 -219l137 229l-106 482l80 20l78 -408l228 408l68 -31l-297 -517c-51 -88 -81 -130 -132 -200zM339 580l20 102h88l-20 -102h-88zM175 580l20 102h88l-20 -102h-88z" />
    <glyph glyph-name="zcaron" unicode="&#x17e;" horiz-adv-x="444" 
d="M-5 42l319 396h-261l10 60h343l13 -42l-319 -396h275l-13 -60h-352zM444 714l-133 -143h-86l-75 143h74l51 -97l87 97h82z" />
    <glyph glyph-name="Delta" unicode="&#x2206;" horiz-adv-x="646" 
d="M-36 0l10 48l390 647h79l113 -647l-10 -48h-582zM44 55h440l-69 381c-7 52 -25 138 -29 182h-4c-17 -35 -67 -114 -96 -166z" />
    <glyph glyph-name="Omega" unicode="&#x2126;" horiz-adv-x="723" 
d="M145 56l1 3c-60 60 -103 165 -73 303c40 191 200 325 369 325c178 0 261 -152 225 -321c-31 -144 -124 -253 -204 -307l-1 -3h153l-12 -56h-238l9 41c89 49 188 156 221 313c27 128 -18 277 -166 277c-140 0 -257 -125 -290 -280c-31 -146 22 -262 89 -310l-8 -41h-237
l12 56h150z" />
    <glyph glyph-name="uni03BC" unicode="&#x3bc;" 
d="M-36 -236l152 734h80l-66 -310c-10 -45 -14 -68 -14 -91c0 -37 25 -51 61 -51c42 0 99 36 181 113l73 339h80l-105 -498h-80l25 96l-2 2c-53 -56 -129 -112 -192 -112c-27 0 -46 8 -62 25l-51 -247h-80z" />
    <glyph glyph-name="pi" unicode="&#x3c0;" horiz-adv-x="566" 
d="M565 445h-82l-64 -301c-17 -83 -18 -118 -16 -144h-66c-6 15 -5 55 12 137l66 308h-187c-33 -128 -113 -355 -169 -445h-66c59 103 134 312 167 445c-64 0 -93 -5 -116 -13l-2 45c29 15 71 26 146 26h396z" />
    <glyph glyph-name="Euro" unicode="&#x20ac;" 
d="M582 686l-25 -61c-38 13 -74 19 -108 19c-61 0 -116 -18 -163 -55c-45 -34 -79 -80 -102 -139h229l-14 -54h-233c-7 -25 -11 -55 -13 -89h233l-14 -54h-220c3 -56 16 -101 38 -135c28 -42 68 -63 120 -63c49 0 97 15 146 44l22 -60c-61 -31 -121 -47 -179 -47
c-73 0 -131 25 -172 76c-34 44 -54 106 -59 185h-82l14 54h68c1 26 5 56 14 89h-69l14 54h71c60 160 186 256 354 256c53 0 96 -7 130 -20z" />
    <glyph glyph-name="afii61289" unicode="&#x2113;" horiz-adv-x="480" 
d="M385 146l27 -29c-60 -81 -132 -122 -210 -122c-112 0 -140 85 -124 180c1 4 2 9 2 12c-21 -14 -45 -31 -67 -46l-13 40c33 24 64 44 93 67l57 268c37 177 127 232 199 232c83 0 107 -71 89 -157c-27 -123 -134 -240 -284 -359l-6 -30c-23 -109 22 -153 79 -153
c64 0 124 52 158 97zM216 522l-48 -222c109 94 200 191 221 289c13 63 2 107 -51 107c-38 0 -95 -43 -122 -174z" />
    <glyph glyph-name="estimated" unicode="&#x212e;" horiz-adv-x="924" 
d="M891 331h-631c-3 0 -5 -1 -5 -4v-191c0 -8 3 -16 8 -22c61 -63 145 -104 239 -104c101 0 190 46 251 117h56c-69 -82 -183 -136 -308 -136c-215 0 -390 156 -390 350s175 351 390 351c216 0 390 -157 390 -351v-10zM748 356v192c0 9 -3 17 -9 23
c-62 60 -145 100 -237 100c-93 0 -177 -41 -238 -103c-6 -6 -9 -15 -9 -24v-188c0 -2 2 -6 5 -6h484c3 0 4 4 4 6z" />
    <glyph glyph-name="partialdiff" unicode="&#x2202;" horiz-adv-x="541" 
d="M172 657l-14 48c38 26 96 55 176 55c128 0 224 -120 171 -367c-47 -221 -172 -399 -342 -399c-130 0 -165 115 -143 224c32 150 152 245 263 245c95 0 138 -68 148 -97h1c4 12 8 32 10 44c38 178 -25 293 -127 293c-62 0 -111 -24 -143 -46zM180 50h1
c98 0 186 118 227 248c-6 43 -46 110 -126 110c-84 0 -171 -84 -194 -189c-20 -97 15 -169 92 -169z" />
    <glyph glyph-name="product" unicode="&#x220f;" horiz-adv-x="769" 
d="M743 615h-110v-708h-67v708h-288v-708h-66v708h-111v61h642v-61z" />
    <glyph glyph-name="summation" unicode="&#x2211;" horiz-adv-x="626" 
d="M604 -93h-507v45l272 338l-259 339v47h478v-59h-383v-3l242 -315l-260 -325v-4h417v-63z" />
    <glyph glyph-name="uni2219" unicode="&#x2219;" horiz-adv-x="278" 
d="M76 292c0 35 28 63 63 63s63 -28 63 -63s-28 -63 -63 -63s-63 28 -63 63z" />
    <glyph glyph-name="radical" unicode="&#x221a;" horiz-adv-x="643" 
d="M644 802l-221 -948h-61l-161 452l-74 -28l-15 42l132 51l130 -370c6 -22 13 -48 17 -67h1c3 18 9 44 13 67l187 801h52z" />
    <glyph glyph-name="infinity" unicode="&#x221e;" horiz-adv-x="790" 
d="M739 281v-1c0 -94 -72 -155 -149 -155c-63 0 -113 41 -182 119c-53 -60 -107 -119 -188 -119c-79 0 -146 66 -146 152c0 89 65 154 154 154c74 0 131 -57 183 -118c53 57 103 119 186 118c86 0 142 -61 142 -150zM227 169h1c64 0 114 63 155 107c-44 53 -91 113 -162 113
c-64 0 -100 -53 -100 -113c0 -59 42 -107 106 -107zM592 389h-1c-67 0 -121 -74 -157 -109c67 -73 106 -111 159 -111c64 0 100 56 100 108c0 71 -44 112 -101 112z" />
    <glyph glyph-name="integral" unicode="&#x222b;" horiz-adv-x="426" 
d="M412 811l-12 -47c-8 6 -24 11 -37 11c-16 0 -37 -6 -50 -23c-26 -29 -35 -82 -35 -174c0 -151 14 -333 14 -489c0 -106 -21 -163 -44 -196c-21 -32 -57 -48 -94 -48c-25 0 -52 10 -64 17l13 49c8 -4 25 -12 45 -12c17 0 35 7 47 22c20 25 35 68 35 169
c0 157 -14 343 -14 494c0 105 14 165 52 204c25 26 58 37 90 37c21 0 44 -7 54 -14z" />
    <glyph glyph-name="approxequal" unicode="&#x2248;" horiz-adv-x="582" 
d="M506 417l29 -25c-27 -51 -66 -92 -127 -92c-41 0 -69 15 -118 42c-30 17 -60 33 -94 33c-46 0 -74 -35 -99 -73l-30 24c30 58 79 93 136 93c48 0 84 -27 112 -41c35 -19 58 -34 95 -34c41 0 68 25 96 73zM506 250l29 -25c-27 -50 -66 -91 -127 -91c-41 0 -69 15 -118 42
c-31 17 -60 33 -93 33c-48 0 -75 -35 -100 -74l-30 25c30 57 79 93 136 93c49 0 84 -26 112 -41c33 -18 58 -35 96 -35c41 0 66 25 95 73z" />
    <glyph glyph-name="notequal" unicode="&#x2260;" horiz-adv-x="600" 
d="M436 491l-45 -98h159v-45h-178l-68 -146h246v-45h-264l-55 -118l-36 17l47 101h-152v45h171l68 146h-239v45h257l54 115z" />
    <glyph glyph-name="lessequal" unicode="&#x2264;" horiz-adv-x="616" 
d="M563 91l-451 221v48l451 221v-53l-402 -190v-2l402 -192v-53zM565 4h-459v46h459v-46z" />
    <glyph glyph-name="greaterequal" unicode="&#x2265;" horiz-adv-x="616" 
d="M112 581l451 -222v-47l-450 -221v53l401 191v2l-402 191v53zM565 4h-458v46h458v-46z" />
    <glyph glyph-name="lozenge" unicode="&#x25ca;" horiz-adv-x="643" 
d="M589 338l-201 -383h-55l-200 383l202 383h55zM527 336l-146 278c-8 16 -15 37 -19 50h-3c-4 -15 -11 -32 -19 -50l-145 -275l147 -280c9 -19 15 -37 18 -48h3c3 12 12 35 18 47z" />
    <glyph glyph-name="uni00A0" unicode="&#xa0;" horiz-adv-x="278" 
 />
    <glyph glyph-name="uni00AD" unicode="&#xad;" horiz-adv-x="389" 
d="M54 235l16 66h239l-16 -66h-239z" />
    <glyph glyph-name="uni02C9" unicode="&#x2c9;" horiz-adv-x="278" 
d="M81 604l11 60h270l-11 -60h-270z" />
    <glyph glyph-name="uni03A9" unicode="&#x3a9;" horiz-adv-x="723" 
d="M145 56l1 3c-60 60 -103 165 -73 303c40 191 200 325 369 325c178 0 261 -152 225 -321c-31 -144 -124 -253 -204 -307l-1 -3h153l-12 -56h-238l9 41c89 49 188 156 221 313c27 128 -18 277 -166 277c-140 0 -257 -125 -290 -280c-31 -146 22 -262 89 -310l-8 -41h-237
l12 56h150z" />
    <glyph glyph-name="uni2215" unicode="&#x2215;" horiz-adv-x="168" 
d="M-162 -10l447 729l45 -27l-447 -729z" />
    </font>
</defs>
</svg>
